M48
;Layer_Color=9474304
;FILE_FORMAT=2:5
INCH,LZ
;TYPE=PLATED
T1F00S00C0.02800
T2F00S00C0.03504
T3F00S00C0.04016
T4F00S00C0.05512
%
T01
X0177953Y0049281
X0202795Y00355
X0224996Y0049072
X02755Y00355
X00885Y00345
X0066Y00155
X00345Y00165
X00155Y0017
X00345Y0039
X0044Y00345
X00345Y00775
X00155
Y0062
X00345Y00995
X00155Y0122
X0073Y0139
X0085Y0133
X00916Y01443
X0087Y01625
X0081
X01142Y01291
X0114181Y0122979
X0153666Y0111936
X0185827Y011811
X0191732
X0183465Y0125197
X0177953Y0137402
X0194882Y0137008
X0205118Y013189
X0214173Y0119291
X02075Y0098653
X01965Y01041
X01846Y00909
X01844Y00846
X01845Y00785
X0176001Y0076319
X0178Y0083
X01665Y0084
X015055Y0074354
X01505Y005725
X016925Y00545
X016975Y0061
X0187519Y0057651
X0195009Y0065012
X0195161Y0071141
X02075Y0070422
X0211417Y0066142
X0230885Y0066074
X023589Y0076002
X0235872Y0093742
X0229921Y0099213
X022874Y0139764
X0214567Y0148819
X0187008Y0148819
X022875Y017225
T02
X0289Y00065
X0279
X0016
X0006
X00065Y019
X00165
X02785Y019
X02885
T03
X01325Y00145
X01425
X01525
X01625
X01725
X01825
X01925
X01225
X01125
X01025
X0062Y00975
Y01075
Y01255
Y01355
X01025Y0183
X01125
X01225
X01325
X01425
X01525
X01625
X01725
X01825
X01925
X0202014Y00895
Y00795
X0247013Y0079775
Y0089775
T04
X0043Y0145
Y0165
M30
