G04*
G04 #@! TF.GenerationSoftware,Altium Limited,Altium Designer,21.7.2 (23)*
G04*
G04 Layer_Physical_Order=4*
G04 Layer_Color=16711680*
%FSLAX25Y25*%
%MOIN*%
G70*
G04*
G04 #@! TF.SameCoordinates,CEDA9658-653E-4C37-85A5-3546ED317D05*
G04*
G04*
G04 #@! TF.FilePolarity,Positive*
G04*
G01*
G75*
%ADD15C,0.01000*%
%ADD37R,0.06181X0.06181*%
%ADD38C,0.06181*%
%ADD39R,0.06181X0.06181*%
%ADD40C,0.08465*%
%ADD41R,0.08465X0.08465*%
%ADD42C,0.05512*%
%ADD43R,0.05512X0.05512*%
%ADD44C,0.05000*%
G36*
X184347Y180473D02*
X183815Y179865D01*
X183599Y179579D01*
X183416Y179303D01*
X183266Y179039D01*
X183150Y178787D01*
X183066Y178545D01*
X183017Y178315D01*
X183000Y178096D01*
X182000D01*
X181983Y178315D01*
X181933Y178545D01*
X181850Y178787D01*
X181734Y179039D01*
X181584Y179303D01*
X181401Y179579D01*
X181185Y179865D01*
X180653Y180473D01*
X180337Y180793D01*
X184663D01*
X184347Y180473D01*
D02*
G37*
G36*
X164347D02*
X163815Y179865D01*
X163599Y179579D01*
X163416Y179303D01*
X163266Y179039D01*
X163150Y178787D01*
X163066Y178545D01*
X163017Y178315D01*
X163000Y178096D01*
X162000D01*
X161983Y178315D01*
X161934Y178545D01*
X161850Y178787D01*
X161734Y179039D01*
X161584Y179303D01*
X161401Y179579D01*
X161185Y179865D01*
X160653Y180473D01*
X160337Y180793D01*
X164663D01*
X164347Y180473D01*
D02*
G37*
G36*
X174708Y180776D02*
X174037Y179724D01*
X173873Y179417D01*
X173634Y178872D01*
X173560Y178633D01*
X173515Y178416D01*
X173500Y178221D01*
X172500Y178055D01*
X172482Y178289D01*
X172429Y178525D01*
X172340Y178763D01*
X172216Y179002D01*
X172055Y179243D01*
X171860Y179485D01*
X171629Y179729D01*
X171362Y179975D01*
X171060Y180223D01*
X170722Y180472D01*
X174992Y181172D01*
X174708Y180776D01*
D02*
G37*
G36*
X154278Y180472D02*
X153940Y180223D01*
X153371Y179729D01*
X153140Y179485D01*
X152945Y179243D01*
X152784Y179002D01*
X152660Y178763D01*
X152571Y178525D01*
X152518Y178289D01*
X152500Y178055D01*
X151500Y178221D01*
X151485Y178416D01*
X151440Y178633D01*
X151366Y178872D01*
X151261Y179133D01*
X151127Y179417D01*
X150769Y180052D01*
X150545Y180403D01*
X150008Y181172D01*
X154278Y180472D01*
D02*
G37*
G36*
X205093Y129390D02*
X204754Y129387D01*
X204141Y129339D01*
X203867Y129295D01*
X203614Y129237D01*
X203384Y129166D01*
X203175Y129080D01*
X202988Y128982D01*
X202823Y128869D01*
X202679Y128744D01*
X201972Y129451D01*
X202098Y129594D01*
X202210Y129760D01*
X202309Y129947D01*
X202394Y130156D01*
X202465Y130386D01*
X202523Y130638D01*
X202567Y130912D01*
X202598Y131208D01*
X202618Y131865D01*
X205093Y129390D01*
D02*
G37*
G36*
X154904Y109756D02*
X154865Y109707D01*
X154830Y109645D01*
X154799Y109569D01*
X154773Y109480D01*
X154752Y109377D01*
X154736Y109260D01*
X154717Y108986D01*
X154715Y108828D01*
X153715D01*
X153712Y108941D01*
X153703Y109042D01*
X153689Y109133D01*
X153669Y109211D01*
X153643Y109279D01*
X153611Y109335D01*
X153573Y109380D01*
X153530Y109414D01*
X153481Y109437D01*
X153426Y109448D01*
X154949Y109791D01*
X154904Y109756D01*
D02*
G37*
G36*
X198854Y106332D02*
X198761Y106234D01*
X198683Y106138D01*
X198620Y106045D01*
X198571Y105955D01*
X198538Y105867D01*
X198519Y105782D01*
X198514Y105701D01*
X198525Y105621D01*
X198550Y105545D01*
X198590Y105472D01*
X197113Y106524D01*
X197198Y106510D01*
X197287Y106511D01*
X197380Y106526D01*
X197477Y106556D01*
X197578Y106600D01*
X197683Y106659D01*
X197793Y106732D01*
X197907Y106820D01*
X198024Y106923D01*
X198146Y107039D01*
X198854Y106332D01*
D02*
G37*
G36*
X185113Y94659D02*
X185150Y94463D01*
X185213Y94260D01*
X185300Y94053D01*
X185413Y93839D01*
X185550Y93620D01*
X185713Y93395D01*
X185900Y93164D01*
X186350Y92685D01*
X182850D01*
X183088Y92927D01*
X183487Y93395D01*
X183650Y93620D01*
X183788Y93839D01*
X183900Y94053D01*
X183987Y94260D01*
X184050Y94463D01*
X184088Y94659D01*
X184100Y94849D01*
X185100D01*
X185113Y94659D01*
D02*
G37*
G36*
X202519Y93386D02*
X202534Y93214D01*
X202559Y93062D01*
X202594Y92931D01*
X202639Y92820D01*
X202694Y92729D01*
X202759Y92658D01*
X202834Y92607D01*
X202919Y92577D01*
X203014Y92567D01*
X201014D01*
X201109Y92577D01*
X201194Y92607D01*
X201269Y92658D01*
X201334Y92729D01*
X201389Y92820D01*
X201434Y92931D01*
X201469Y93062D01*
X201494Y93214D01*
X201509Y93386D01*
X201514Y93578D01*
X202514D01*
X202519Y93386D01*
D02*
G37*
G36*
X178513Y86759D02*
X178550Y86563D01*
X178612Y86360D01*
X178700Y86153D01*
X178813Y85939D01*
X178950Y85720D01*
X179113Y85495D01*
X179300Y85264D01*
X179750Y84785D01*
X176250D01*
X176488Y85027D01*
X176888Y85495D01*
X177050Y85720D01*
X177188Y85939D01*
X177300Y86153D01*
X177387Y86360D01*
X177450Y86563D01*
X177488Y86759D01*
X177500Y86949D01*
X178500D01*
X178513Y86759D01*
D02*
G37*
G36*
X168012Y81972D02*
X167613Y81505D01*
X167450Y81280D01*
X167313Y81061D01*
X167200Y80847D01*
X167113Y80640D01*
X167050Y80437D01*
X167013Y80241D01*
X167000Y80050D01*
X166000D01*
X165988Y80241D01*
X165950Y80437D01*
X165887Y80640D01*
X165800Y80847D01*
X165688Y81061D01*
X165550Y81280D01*
X165387Y81505D01*
X165200Y81736D01*
X164750Y82215D01*
X168250D01*
X168012Y81972D01*
D02*
G37*
G36*
X176430Y80075D02*
X176467Y79872D01*
X176528Y79667D01*
X176614Y79462D01*
X176724Y79255D01*
X176858Y79048D01*
X177018Y78839D01*
X177201Y78629D01*
X177409Y78418D01*
X177642Y78205D01*
X174239Y78092D01*
X174463Y78324D01*
X174840Y78778D01*
X174993Y79000D01*
X175123Y79217D01*
X175229Y79431D01*
X175312Y79642D01*
X175371Y79848D01*
X175406Y80051D01*
X175418Y80250D01*
X176418Y80277D01*
X176430Y80075D01*
D02*
G37*
G36*
X187003Y78136D02*
X187051Y77523D01*
X187095Y77249D01*
X187153Y76996D01*
X187224Y76766D01*
X187309Y76557D01*
X187408Y76370D01*
X187520Y76205D01*
X187646Y76061D01*
X186939Y75354D01*
X186795Y75480D01*
X186630Y75592D01*
X186443Y75691D01*
X186234Y75776D01*
X186004Y75847D01*
X185751Y75905D01*
X185477Y75949D01*
X185182Y75980D01*
X184525Y76000D01*
X187000Y78475D01*
X187003Y78136D01*
D02*
G37*
G36*
X173019Y63232D02*
X172898Y63095D01*
X172787Y62934D01*
X172686Y62750D01*
X172594Y62541D01*
X172511Y62309D01*
X172439Y62053D01*
X172375Y61774D01*
X172276Y61143D01*
X172241Y60792D01*
X170008Y63487D01*
X170333Y63461D01*
X170926Y63460D01*
X171192Y63486D01*
X171439Y63530D01*
X171667Y63591D01*
X171874Y63669D01*
X172062Y63764D01*
X172231Y63877D01*
X172380Y64007D01*
X173019Y63232D01*
D02*
G37*
G36*
X197512Y64647D02*
X197559Y64034D01*
X197603Y63760D01*
X197661Y63508D01*
X197733Y63277D01*
X197818Y63069D01*
X197916Y62881D01*
X198029Y62716D01*
X198155Y62572D01*
X197448Y61865D01*
X197304Y61991D01*
X197139Y62104D01*
X196952Y62202D01*
X196743Y62287D01*
X196512Y62359D01*
X196260Y62417D01*
X195986Y62461D01*
X195690Y62492D01*
X195034Y62512D01*
X197508Y64987D01*
X197512Y64647D01*
D02*
G37*
G36*
X170763Y52473D02*
X170362Y52005D01*
X170200Y51780D01*
X170062Y51561D01*
X169950Y51347D01*
X169862Y51140D01*
X169800Y50937D01*
X169763Y50741D01*
X169750Y50551D01*
X168750D01*
X168737Y50741D01*
X168700Y50937D01*
X168638Y51140D01*
X168550Y51347D01*
X168438Y51561D01*
X168300Y51780D01*
X168138Y52005D01*
X167950Y52236D01*
X167500Y52715D01*
X171000D01*
X170763Y52473D01*
D02*
G37*
G36*
X203308Y39259D02*
X203345Y39062D01*
X203408Y38860D01*
X203495Y38653D01*
X203608Y38439D01*
X203745Y38220D01*
X203908Y37995D01*
X204095Y37764D01*
X204545Y37285D01*
X201045D01*
X201283Y37527D01*
X201683Y37995D01*
X201845Y38220D01*
X201983Y38439D01*
X202095Y38653D01*
X202183Y38860D01*
X202245Y39062D01*
X202283Y39259D01*
X202295Y39450D01*
X203295D01*
X203308Y39259D01*
D02*
G37*
G36*
X193017Y19185D02*
X193067Y18955D01*
X193150Y18713D01*
X193266Y18461D01*
X193416Y18197D01*
X193599Y17921D01*
X193815Y17635D01*
X194347Y17028D01*
X194663Y16707D01*
X190337D01*
X190653Y17028D01*
X191185Y17635D01*
X191401Y17921D01*
X191584Y18197D01*
X191734Y18461D01*
X191850Y18713D01*
X191934Y18955D01*
X191983Y19185D01*
X192000Y19404D01*
X193000D01*
X193017Y19185D01*
D02*
G37*
G36*
X183017D02*
X183066Y18955D01*
X183150Y18713D01*
X183266Y18461D01*
X183416Y18197D01*
X183599Y17921D01*
X183815Y17635D01*
X184347Y17028D01*
X184663Y16707D01*
X180337D01*
X180653Y17028D01*
X181185Y17635D01*
X181401Y17921D01*
X181584Y18197D01*
X181734Y18461D01*
X181850Y18713D01*
X181933Y18955D01*
X181983Y19185D01*
X182000Y19404D01*
X183000D01*
X183017Y19185D01*
D02*
G37*
G36*
X173017D02*
X173066Y18955D01*
X173150Y18713D01*
X173266Y18461D01*
X173416Y18197D01*
X173599Y17921D01*
X173815Y17635D01*
X174347Y17028D01*
X174663Y16707D01*
X170337D01*
X170653Y17028D01*
X171185Y17635D01*
X171401Y17921D01*
X171584Y18197D01*
X171734Y18461D01*
X171850Y18713D01*
X171933Y18955D01*
X171983Y19185D01*
X172000Y19404D01*
X173000D01*
X173017Y19185D01*
D02*
G37*
G36*
X163017D02*
X163066Y18955D01*
X163150Y18713D01*
X163266Y18461D01*
X163416Y18197D01*
X163599Y17921D01*
X163815Y17635D01*
X164347Y17028D01*
X164663Y16707D01*
X160337D01*
X160653Y17028D01*
X161185Y17635D01*
X161401Y17921D01*
X161584Y18197D01*
X161734Y18461D01*
X161850Y18713D01*
X161934Y18955D01*
X161983Y19185D01*
X162000Y19404D01*
X163000D01*
X163017Y19185D01*
D02*
G37*
D15*
X181106Y80106D02*
X183172Y82172D01*
X181106Y76694D02*
Y80106D01*
X202014Y89430D02*
Y128785D01*
X205118Y131890D01*
X202014Y89430D02*
X202014Y89430D01*
X198500Y106686D02*
Y142000D01*
X196500Y104100D02*
Y104686D01*
X198500Y106686D01*
X195500Y145000D02*
X198500Y142000D01*
X202795Y35500D02*
Y57225D01*
X195009Y65012D02*
X202795Y57225D01*
X189500Y64655D02*
X194250Y59905D01*
Y36000D02*
Y59905D01*
X189500Y64655D02*
Y73500D01*
X172608Y74913D02*
Y90436D01*
Y74913D02*
X173018Y74502D01*
Y63939D02*
Y74502D01*
X175918Y76402D02*
X176001Y76319D01*
X170079Y61000D02*
X173018Y63939D01*
X169750Y61000D02*
X170079D01*
X175918Y76402D02*
Y80277D01*
X174606Y81588D02*
X175918Y80277D01*
X155815Y107228D02*
X172608Y90436D01*
X184500Y78500D02*
X189500Y73500D01*
X179000Y93491D02*
Y101900D01*
X178000Y92491D02*
X179000Y93491D01*
X178000Y83000D02*
Y92491D01*
X174606Y81588D02*
Y100144D01*
X165500Y109250D02*
X174606Y100144D01*
X186900Y64100D02*
Y70900D01*
Y64100D02*
X191750Y59250D01*
Y38128D02*
Y59250D01*
X166500Y76500D02*
Y84000D01*
X165797Y75797D02*
X166500Y76500D01*
X163547Y75797D02*
X165797D01*
X145000Y57250D02*
X163547Y75797D01*
X145000Y39767D02*
Y57250D01*
Y39767D02*
X162500Y22267D01*
Y14500D02*
Y22267D01*
X172500Y14500D02*
Y19500D01*
X169250Y22750D02*
Y54500D01*
Y22750D02*
X172500Y19500D01*
X182500Y28878D02*
X191750Y38128D01*
X182500Y14500D02*
Y28878D01*
X192500Y34250D02*
X194250Y36000D01*
X192500Y14500D02*
Y34250D01*
X195500Y145000D02*
Y156133D01*
X182500Y169133D02*
X195500Y156133D01*
X182500Y169133D02*
Y183000D01*
X172500D02*
X173000Y182500D01*
X162500Y177500D02*
Y183000D01*
Y177500D02*
X169500Y170500D01*
Y111400D02*
Y170500D01*
X152000Y182500D02*
X152500Y183000D01*
X152000Y178000D02*
Y182500D01*
X165500Y109250D02*
Y164500D01*
X152000Y178000D02*
X165500Y164500D01*
X173000Y116100D02*
Y182500D01*
X184400Y83518D02*
Y84600D01*
X183172Y82289D02*
X184400Y83518D01*
X183172Y82172D02*
Y82289D01*
X169500Y111400D02*
X179000Y101900D01*
X173000Y116100D02*
X184600Y104500D01*
Y90900D02*
Y104500D01*
X181106Y76694D02*
X186900Y70900D01*
X154215Y108828D02*
X155815Y107228D01*
X155815D01*
X153666Y111936D02*
X154215Y111387D01*
Y108828D02*
Y111387D01*
D37*
X247013Y89775D02*
D03*
X62000Y125500D02*
D03*
Y107500D02*
D03*
X202014Y89500D02*
D03*
D38*
X247013Y79775D02*
D03*
X62000Y135500D02*
D03*
Y97500D02*
D03*
X202014Y79500D02*
D03*
X192500Y14500D02*
D03*
X182500D02*
D03*
X172500D02*
D03*
X162500D02*
D03*
X152500D02*
D03*
X142500D02*
D03*
X132500D02*
D03*
X122500D02*
D03*
X112500D02*
D03*
X102500Y183000D02*
D03*
X112500D02*
D03*
X122500D02*
D03*
X132500D02*
D03*
X142500D02*
D03*
X152500D02*
D03*
X162500D02*
D03*
X172500D02*
D03*
X182500D02*
D03*
D39*
X102500Y14500D02*
D03*
X192500Y183000D02*
D03*
D40*
X43000Y145000D02*
D03*
D41*
Y165000D02*
D03*
D42*
X6500Y190000D02*
D03*
X289000Y6500D02*
D03*
X16000D02*
D03*
X278500Y190000D02*
D03*
D43*
X16500Y190000D02*
D03*
X279000Y6500D02*
D03*
X6000D02*
D03*
X288500Y190000D02*
D03*
D44*
X177953Y49281D02*
D03*
X207500Y98653D02*
D03*
X196500Y104100D02*
D03*
X195009Y65012D02*
D03*
X176001Y76319D02*
D03*
X184500Y78500D02*
D03*
X178000Y83000D02*
D03*
X150550Y74354D02*
D03*
X114200Y129100D02*
D03*
X91600Y144300D02*
D03*
X34500Y99500D02*
D03*
X15500Y122000D02*
D03*
Y77500D02*
D03*
X34500D02*
D03*
Y39000D02*
D03*
X15500Y62000D02*
D03*
Y17000D02*
D03*
X34500Y16500D02*
D03*
X66000Y15500D02*
D03*
X44000Y34500D02*
D03*
X88500D02*
D03*
X81000Y162500D02*
D03*
X87000D02*
D03*
X85000Y133000D02*
D03*
X207500Y70422D02*
D03*
X166500Y84000D02*
D03*
X73000Y139000D02*
D03*
X228750Y172250D02*
D03*
X275500Y35500D02*
D03*
X195161Y71141D02*
D03*
X187519Y57651D02*
D03*
X150500Y57250D02*
D03*
X169750Y61000D02*
D03*
X169250Y54500D02*
D03*
X194882Y137008D02*
D03*
X184400Y84600D02*
D03*
X184600Y90900D02*
D03*
X228740Y139764D02*
D03*
X187008Y148819D02*
D03*
X177953Y137402D02*
D03*
X214173Y119291D02*
D03*
X205118Y131890D02*
D03*
X211417Y66142D02*
D03*
X229921Y99213D02*
D03*
X230885Y66074D02*
D03*
X191732Y118110D02*
D03*
X185827D02*
D03*
X114181Y122979D02*
D03*
X153666Y111936D02*
D03*
X235872Y93742D02*
D03*
X235890Y76002D02*
D03*
X202795Y35500D02*
D03*
X224996Y49072D02*
D03*
X214567Y148819D02*
D03*
X183465Y125197D02*
D03*
M02*
