G04*
G04 #@! TF.GenerationSoftware,Altium Limited,Altium Designer,21.7.2 (23)*
G04*
G04 Layer_Color=8388736*
%FSLAX25Y25*%
%MOIN*%
G70*
G04*
G04 #@! TF.SameCoordinates,CEDA9658-653E-4C37-85A5-3546ED317D05*
G04*
G04*
G04 #@! TF.FilePolarity,Positive*
G04*
G01*
G75*
%ADD12C,0.00787*%
G36*
X247809Y84475D02*
X247805D01*
X247797D01*
X247781Y84474D01*
X247761Y84471D01*
X247738Y84470D01*
X247712Y84468D01*
X247683Y84464D01*
X247652Y84458D01*
X247585Y84444D01*
X247520Y84426D01*
X247491Y84415D01*
X247462Y84401D01*
X247436Y84385D01*
X247414Y84370D01*
X247413Y84368D01*
X247411Y84366D01*
X247405Y84360D01*
X247399Y84352D01*
X247391Y84342D01*
X247381Y84330D01*
X247371Y84317D01*
X247362Y84301D01*
X247352Y84281D01*
X247342Y84262D01*
X247324Y84217D01*
X247313Y84164D01*
X247311Y84134D01*
X247309Y84103D01*
Y84082D01*
X247311Y84072D01*
X247313Y84060D01*
X247317Y84030D01*
X247322Y83997D01*
X247332Y83960D01*
X247346Y83925D01*
X247365Y83889D01*
Y83887D01*
X247368Y83886D01*
X247375Y83874D01*
X247389Y83858D01*
X247407Y83838D01*
X247428Y83819D01*
X247456Y83797D01*
X247485Y83780D01*
X247520Y83764D01*
X247522D01*
X247524Y83762D01*
X247530Y83760D01*
X247540Y83758D01*
X247550Y83756D01*
X247564Y83752D01*
X247579Y83750D01*
X247597Y83746D01*
X247618Y83742D01*
X247642Y83740D01*
X247667Y83736D01*
X247695Y83735D01*
X247726Y83733D01*
X247761Y83731D01*
X247797Y83729D01*
X247836D01*
X249569D01*
Y83395D01*
X247855D01*
X247852D01*
X247842D01*
X247826D01*
X247803Y83397D01*
X247777D01*
X247746Y83399D01*
X247712Y83401D01*
X247675Y83405D01*
X247638Y83409D01*
X247597Y83413D01*
X247516Y83427D01*
X247475Y83437D01*
X247436Y83446D01*
X247401Y83458D01*
X247365Y83472D01*
X247363D01*
X247358Y83476D01*
X247350Y83480D01*
X247338Y83486D01*
X247322Y83495D01*
X247307Y83505D01*
X247268Y83531D01*
X247248Y83546D01*
X247226Y83564D01*
X247203Y83586D01*
X247181Y83607D01*
X247160Y83631D01*
X247140Y83656D01*
X247120Y83686D01*
X247103Y83715D01*
Y83717D01*
X247099Y83723D01*
X247095Y83731D01*
X247089Y83744D01*
X247081Y83760D01*
X247074Y83780D01*
X247066Y83801D01*
X247058Y83825D01*
X247050Y83852D01*
X247042Y83882D01*
X247034Y83913D01*
X247026Y83948D01*
X247021Y83983D01*
X247017Y84021D01*
X247015Y84060D01*
X247013Y84101D01*
Y84115D01*
X247015Y84132D01*
X247017Y84156D01*
X247019Y84183D01*
X247023Y84215D01*
X247028Y84250D01*
X247036Y84289D01*
X247046Y84328D01*
X247058Y84370D01*
X247074Y84413D01*
X247093Y84456D01*
X247115Y84497D01*
X247138Y84536D01*
X247167Y84573D01*
X247201Y84609D01*
X247203Y84611D01*
X247211Y84617D01*
X247220Y84624D01*
X247236Y84636D01*
X247256Y84648D01*
X247281Y84664D01*
X247311Y84679D01*
X247344Y84695D01*
X247381Y84711D01*
X247422Y84726D01*
X247469Y84740D01*
X247520Y84752D01*
X247575Y84763D01*
X247634Y84769D01*
X247699Y84775D01*
X247767D01*
X247809Y84475D01*
D02*
G37*
G36*
X247822Y82978D02*
X247844Y82976D01*
X247867Y82974D01*
X247895Y82970D01*
X247924Y82964D01*
X247989Y82951D01*
X248022Y82939D01*
X248057Y82927D01*
X248093Y82913D01*
X248126Y82898D01*
X248159Y82878D01*
X248191Y82857D01*
X248193Y82854D01*
X248199Y82851D01*
X248206Y82843D01*
X248218Y82833D01*
X248232Y82821D01*
X248248Y82803D01*
X248263Y82786D01*
X248281Y82764D01*
X248300Y82741D01*
X248318Y82713D01*
X248338Y82684D01*
X248355Y82653D01*
X248373Y82619D01*
X248389Y82582D01*
X248404Y82541D01*
X248416Y82500D01*
Y82502D01*
X248420Y82508D01*
X248424Y82517D01*
X248430Y82531D01*
X248436Y82547D01*
X248446Y82566D01*
X248467Y82608D01*
X248496Y82655D01*
X248530Y82702D01*
X248571Y82747D01*
X248592Y82768D01*
X248616Y82786D01*
X248618D01*
X248622Y82790D01*
X248630Y82794D01*
X248639Y82800D01*
X248651Y82807D01*
X248667Y82815D01*
X248685Y82823D01*
X248704Y82831D01*
X248726Y82841D01*
X248751Y82849D01*
X248804Y82864D01*
X248863Y82874D01*
X248896Y82876D01*
X248930Y82878D01*
X248934D01*
X248941D01*
X248957Y82876D01*
X248975Y82874D01*
X248998Y82872D01*
X249026Y82868D01*
X249057Y82862D01*
X249090Y82853D01*
X249126Y82843D01*
X249163Y82831D01*
X249200Y82813D01*
X249239Y82796D01*
X249278Y82772D01*
X249318Y82747D01*
X249355Y82717D01*
X249390Y82682D01*
X249392Y82680D01*
X249398Y82672D01*
X249408Y82662D01*
X249420Y82647D01*
X249433Y82627D01*
X249449Y82604D01*
X249467Y82574D01*
X249484Y82543D01*
X249502Y82508D01*
X249519Y82468D01*
X249535Y82425D01*
X249549Y82378D01*
X249561Y82329D01*
X249570Y82274D01*
X249576Y82218D01*
X249578Y82159D01*
Y82145D01*
X249576Y82127D01*
Y82104D01*
X249572Y82076D01*
X249569Y82043D01*
X249563Y82008D01*
X249555Y81969D01*
X249545Y81927D01*
X249531Y81884D01*
X249516Y81841D01*
X249498Y81796D01*
X249475Y81753D01*
X249449Y81710D01*
X249420Y81669D01*
X249386Y81630D01*
X249384Y81628D01*
X249378Y81622D01*
X249367Y81610D01*
X249353Y81598D01*
X249333Y81582D01*
X249312Y81565D01*
X249286Y81547D01*
X249257Y81528D01*
X249224Y81510D01*
X249188Y81492D01*
X249151Y81475D01*
X249110Y81459D01*
X249067Y81445D01*
X249020Y81436D01*
X248973Y81430D01*
X248922Y81428D01*
X248920D01*
X248914D01*
X248904D01*
X248892Y81430D01*
X248877D01*
X248859Y81432D01*
X248839Y81436D01*
X248818Y81439D01*
X248769Y81449D01*
X248718Y81467D01*
X248667Y81488D01*
X248641Y81504D01*
X248616Y81520D01*
X248614Y81522D01*
X248610Y81524D01*
X248604Y81529D01*
X248594Y81537D01*
X248585Y81547D01*
X248571Y81559D01*
X248557Y81573D01*
X248544Y81588D01*
X248526Y81608D01*
X248510Y81628D01*
X248495Y81651D01*
X248477Y81677D01*
X248461Y81704D01*
X248446Y81733D01*
X248430Y81765D01*
X248416Y81798D01*
Y81796D01*
X248412Y81788D01*
X248408Y81776D01*
X248402Y81761D01*
X248394Y81741D01*
X248383Y81720D01*
X248371Y81694D01*
X248357Y81669D01*
X248342Y81641D01*
X248324Y81612D01*
X248304Y81582D01*
X248283Y81553D01*
X248257Y81526D01*
X248232Y81496D01*
X248204Y81471D01*
X248173Y81447D01*
X248171Y81445D01*
X248165Y81441D01*
X248155Y81436D01*
X248144Y81428D01*
X248128Y81420D01*
X248108Y81408D01*
X248085Y81398D01*
X248061Y81387D01*
X248032Y81375D01*
X248003Y81365D01*
X247969Y81353D01*
X247934Y81345D01*
X247897Y81337D01*
X247857Y81332D01*
X247816Y81328D01*
X247773Y81326D01*
X247769D01*
X247760D01*
X247742Y81328D01*
X247720Y81330D01*
X247691Y81334D01*
X247659Y81337D01*
X247624Y81345D01*
X247585Y81355D01*
X247542Y81367D01*
X247499Y81383D01*
X247454Y81400D01*
X247409Y81422D01*
X247362Y81449D01*
X247317Y81479D01*
X247273Y81514D01*
X247230Y81555D01*
X247228Y81557D01*
X247220Y81565D01*
X247211Y81578D01*
X247197Y81596D01*
X247179Y81620D01*
X247162Y81647D01*
X247142Y81678D01*
X247123Y81716D01*
X247101Y81755D01*
X247081Y81800D01*
X247064Y81849D01*
X247046Y81904D01*
X247032Y81961D01*
X247023Y82021D01*
X247015Y82084D01*
X247013Y82153D01*
Y82169D01*
X247015Y82188D01*
X247017Y82214D01*
X247019Y82247D01*
X247024Y82282D01*
X247030Y82323D01*
X247040Y82367D01*
X247052Y82414D01*
X247066Y82463D01*
X247083Y82513D01*
X247105Y82563D01*
X247130Y82613D01*
X247160Y82662D01*
X247193Y82708D01*
X247232Y82753D01*
X247234Y82754D01*
X247242Y82762D01*
X247254Y82774D01*
X247271Y82788D01*
X247293Y82806D01*
X247319Y82825D01*
X247350Y82845D01*
X247383Y82866D01*
X247420Y82888D01*
X247463Y82907D01*
X247509Y82927D01*
X247556Y82945D01*
X247609Y82958D01*
X247663Y82970D01*
X247720Y82978D01*
X247781Y82980D01*
X247783D01*
X247793D01*
X247805D01*
X247822Y82978D01*
D02*
G37*
G36*
X22988Y105717D02*
X23012Y105715D01*
X23039Y105711D01*
X23073Y105707D01*
X23110Y105700D01*
X23149Y105690D01*
X23192Y105676D01*
X23237Y105660D01*
X23282Y105641D01*
X23329Y105617D01*
X23377Y105590D01*
X23424Y105558D01*
X23469Y105521D01*
X23514Y105478D01*
X23516Y105476D01*
X23524Y105466D01*
X23535Y105455D01*
X23549Y105435D01*
X23567Y105411D01*
X23586Y105384D01*
X23606Y105351D01*
X23627Y105313D01*
X23649Y105270D01*
X23669Y105225D01*
X23688Y105174D01*
X23706Y105121D01*
X23720Y105063D01*
X23731Y105002D01*
X23739Y104937D01*
X23741Y104870D01*
Y104857D01*
X23739Y104839D01*
X23737Y104816D01*
X23735Y104786D01*
X23731Y104755D01*
X23725Y104718D01*
X23716Y104678D01*
X23706Y104635D01*
X23694Y104590D01*
X23676Y104545D01*
X23659Y104498D01*
X23635Y104453D01*
X23610Y104406D01*
X23580Y104363D01*
X23545Y104320D01*
X23543Y104318D01*
X23535Y104310D01*
X23526Y104300D01*
X23510Y104284D01*
X23490Y104269D01*
X23467Y104249D01*
X23437Y104230D01*
X23406Y104208D01*
X23373Y104186D01*
X23333Y104163D01*
X23290Y104143D01*
X23245Y104124D01*
X23196Y104106D01*
X23145Y104092D01*
X23090Y104081D01*
X23034Y104073D01*
X22992Y104381D01*
X22994D01*
X23004Y104382D01*
X23018Y104386D01*
X23035Y104390D01*
X23057Y104396D01*
X23081Y104404D01*
X23108Y104412D01*
X23137Y104424D01*
X23200Y104447D01*
X23263Y104479D01*
X23292Y104496D01*
X23322Y104516D01*
X23347Y104537D01*
X23371Y104561D01*
X23373Y104563D01*
X23377Y104567D01*
X23381Y104575D01*
X23388Y104584D01*
X23398Y104596D01*
X23408Y104612D01*
X23418Y104627D01*
X23427Y104647D01*
X23439Y104669D01*
X23449Y104692D01*
X23469Y104747D01*
X23476Y104774D01*
X23480Y104806D01*
X23484Y104839D01*
X23486Y104872D01*
Y104882D01*
X23484Y104894D01*
Y104910D01*
X23482Y104927D01*
X23479Y104949D01*
X23475Y104974D01*
X23467Y105002D01*
X23459Y105029D01*
X23449Y105059D01*
X23437Y105090D01*
X23424Y105121D01*
X23406Y105151D01*
X23386Y105182D01*
X23363Y105211D01*
X23337Y105241D01*
X23335Y105243D01*
X23329Y105247D01*
X23322Y105255D01*
X23310Y105264D01*
X23296Y105276D01*
X23279Y105288D01*
X23257Y105302D01*
X23234Y105317D01*
X23208Y105331D01*
X23179Y105345D01*
X23149Y105357D01*
X23116Y105368D01*
X23081Y105378D01*
X23043Y105386D01*
X23004Y105390D01*
X22963Y105392D01*
X22961D01*
X22953D01*
X22943D01*
X22928Y105390D01*
X22910Y105388D01*
X22888Y105384D01*
X22865Y105380D01*
X22840Y105374D01*
X22812Y105366D01*
X22785Y105359D01*
X22755Y105347D01*
X22726Y105333D01*
X22696Y105317D01*
X22669Y105298D01*
X22642Y105278D01*
X22614Y105253D01*
X22612Y105251D01*
X22608Y105247D01*
X22600Y105239D01*
X22593Y105227D01*
X22583Y105213D01*
X22571Y105198D01*
X22557Y105178D01*
X22544Y105157D01*
X22532Y105131D01*
X22518Y105106D01*
X22506Y105076D01*
X22497Y105045D01*
X22489Y105012D01*
X22481Y104974D01*
X22477Y104937D01*
X22475Y104898D01*
Y104882D01*
X22477Y104863D01*
X22479Y104837D01*
X22483Y104806D01*
X22489Y104769D01*
X22497Y104727D01*
X22508Y104680D01*
X22238Y104714D01*
Y104720D01*
X22240Y104731D01*
X22242Y104749D01*
Y104784D01*
X22240Y104798D01*
X22238Y104816D01*
X22236Y104835D01*
X22234Y104857D01*
X22228Y104882D01*
X22216Y104937D01*
X22199Y104998D01*
X22187Y105027D01*
X22173Y105059D01*
X22157Y105090D01*
X22140Y105119D01*
X22138Y105121D01*
X22134Y105127D01*
X22128Y105135D01*
X22120Y105145D01*
X22108Y105157D01*
X22095Y105170D01*
X22079Y105184D01*
X22061Y105200D01*
X22040Y105213D01*
X22016Y105227D01*
X21991Y105241D01*
X21961Y105253D01*
X21930Y105264D01*
X21897Y105272D01*
X21861Y105276D01*
X21822Y105278D01*
X21820D01*
X21814D01*
X21807D01*
X21793Y105276D01*
X21779Y105274D01*
X21761Y105272D01*
X21744Y105268D01*
X21722Y105264D01*
X21679Y105251D01*
X21656Y105241D01*
X21632Y105229D01*
X21607Y105215D01*
X21585Y105202D01*
X21562Y105182D01*
X21540Y105163D01*
X21538Y105161D01*
X21536Y105157D01*
X21530Y105151D01*
X21522Y105141D01*
X21515Y105131D01*
X21505Y105115D01*
X21495Y105100D01*
X21483Y105082D01*
X21473Y105061D01*
X21464Y105039D01*
X21454Y105014D01*
X21446Y104988D01*
X21438Y104961D01*
X21432Y104929D01*
X21430Y104898D01*
X21428Y104865D01*
Y104847D01*
X21430Y104835D01*
X21432Y104820D01*
X21434Y104802D01*
X21438Y104782D01*
X21442Y104761D01*
X21456Y104714D01*
X21466Y104688D01*
X21475Y104663D01*
X21489Y104637D01*
X21505Y104612D01*
X21522Y104588D01*
X21542Y104565D01*
X21544Y104563D01*
X21548Y104559D01*
X21554Y104553D01*
X21564Y104545D01*
X21575Y104535D01*
X21589Y104525D01*
X21607Y104514D01*
X21626Y104500D01*
X21650Y104488D01*
X21675Y104475D01*
X21703Y104463D01*
X21732Y104449D01*
X21765Y104439D01*
X21803Y104428D01*
X21840Y104420D01*
X21881Y104412D01*
X21826Y104104D01*
X21822D01*
X21813Y104106D01*
X21797Y104110D01*
X21775Y104116D01*
X21750Y104124D01*
X21718Y104132D01*
X21685Y104143D01*
X21650Y104157D01*
X21613Y104173D01*
X21573Y104190D01*
X21532Y104212D01*
X21493Y104235D01*
X21454Y104261D01*
X21415Y104290D01*
X21379Y104324D01*
X21346Y104359D01*
X21344Y104361D01*
X21338Y104369D01*
X21330Y104381D01*
X21319Y104396D01*
X21307Y104416D01*
X21291Y104439D01*
X21277Y104467D01*
X21260Y104498D01*
X21244Y104531D01*
X21228Y104571D01*
X21215Y104612D01*
X21203Y104655D01*
X21191Y104702D01*
X21183Y104751D01*
X21177Y104804D01*
X21175Y104859D01*
Y104878D01*
X21177Y104894D01*
Y104912D01*
X21179Y104933D01*
X21183Y104957D01*
X21187Y104984D01*
X21191Y105012D01*
X21197Y105041D01*
X21213Y105106D01*
X21236Y105170D01*
X21250Y105204D01*
X21266Y105237D01*
Y105239D01*
X21270Y105245D01*
X21275Y105255D01*
X21281Y105266D01*
X21291Y105280D01*
X21301Y105298D01*
X21328Y105335D01*
X21364Y105378D01*
X21405Y105423D01*
X21452Y105466D01*
X21507Y105504D01*
X21509Y105506D01*
X21513Y105508D01*
X21522Y105511D01*
X21532Y105517D01*
X21548Y105525D01*
X21564Y105533D01*
X21583Y105541D01*
X21603Y105551D01*
X21626Y105558D01*
X21652Y105566D01*
X21707Y105582D01*
X21767Y105592D01*
X21799Y105596D01*
X21830D01*
X21832D01*
X21838D01*
X21846D01*
X21858Y105594D01*
X21871D01*
X21889Y105592D01*
X21907Y105588D01*
X21928Y105584D01*
X21973Y105574D01*
X22024Y105558D01*
X22075Y105537D01*
X22101Y105523D01*
X22126Y105508D01*
X22128D01*
X22132Y105504D01*
X22140Y105498D01*
X22148Y105492D01*
X22159Y105482D01*
X22173Y105470D01*
X22187Y105456D01*
X22203Y105443D01*
X22218Y105425D01*
X22236Y105406D01*
X22253Y105384D01*
X22271Y105360D01*
X22289Y105337D01*
X22306Y105309D01*
X22338Y105249D01*
Y105251D01*
X22340Y105259D01*
X22344Y105270D01*
X22348Y105286D01*
X22355Y105304D01*
X22363Y105325D01*
X22371Y105351D01*
X22383Y105376D01*
X22397Y105404D01*
X22412Y105431D01*
X22430Y105460D01*
X22449Y105490D01*
X22471Y105517D01*
X22495Y105545D01*
X22522Y105572D01*
X22551Y105596D01*
X22553Y105598D01*
X22559Y105602D01*
X22567Y105607D01*
X22581Y105615D01*
X22596Y105625D01*
X22616Y105635D01*
X22638Y105647D01*
X22663Y105658D01*
X22691Y105668D01*
X22722Y105680D01*
X22755Y105690D01*
X22791Y105700D01*
X22828Y105707D01*
X22869Y105713D01*
X22912Y105717D01*
X22957Y105719D01*
X22961D01*
X22971D01*
X22988Y105717D01*
D02*
G37*
G36*
X21481Y103026D02*
X23698D01*
Y102693D01*
X21481D01*
Y101866D01*
X21185D01*
Y103857D01*
X21481D01*
Y103026D01*
D02*
G37*
G36*
X23000Y101595D02*
X23016D01*
X23035Y101593D01*
X23055Y101591D01*
X23079Y101587D01*
X23130Y101580D01*
X23185Y101566D01*
X23241Y101546D01*
X23300Y101521D01*
X23302D01*
X23306Y101517D01*
X23314Y101513D01*
X23326Y101507D01*
X23337Y101501D01*
X23353Y101491D01*
X23386Y101470D01*
X23424Y101442D01*
X23463Y101411D01*
X23500Y101376D01*
X23533Y101337D01*
Y101335D01*
X23537Y101333D01*
X23541Y101325D01*
X23547Y101317D01*
X23553Y101307D01*
X23561Y101294D01*
X23571Y101280D01*
X23580Y101262D01*
X23600Y101223D01*
X23620Y101176D01*
X23639Y101121D01*
X23657Y101062D01*
Y101060D01*
X23659Y101054D01*
X23661Y101045D01*
X23663Y101033D01*
X23667Y101017D01*
X23671Y100997D01*
X23674Y100976D01*
X23676Y100951D01*
X23680Y100921D01*
X23684Y100892D01*
X23688Y100858D01*
X23692Y100821D01*
X23694Y100784D01*
X23696Y100743D01*
X23698Y100702D01*
Y99700D01*
X21185D01*
Y100668D01*
X21187Y100688D01*
Y100713D01*
X21189Y100741D01*
X21191Y100772D01*
X21195Y100807D01*
X21199Y100843D01*
X21203Y100880D01*
X21217Y100958D01*
X21236Y101033D01*
X21248Y101070D01*
X21262Y101103D01*
Y101105D01*
X21266Y101111D01*
X21270Y101121D01*
X21275Y101133D01*
X21283Y101146D01*
X21295Y101164D01*
X21320Y101203D01*
X21352Y101246D01*
X21393Y101292D01*
X21442Y101337D01*
X21497Y101376D01*
X21499Y101378D01*
X21505Y101380D01*
X21513Y101386D01*
X21524Y101391D01*
X21538Y101399D01*
X21556Y101407D01*
X21575Y101417D01*
X21597Y101427D01*
X21622Y101435D01*
X21648Y101444D01*
X21703Y101460D01*
X21764Y101472D01*
X21797Y101474D01*
X21828Y101476D01*
X21830D01*
X21836D01*
X21844D01*
X21856Y101474D01*
X21869D01*
X21887Y101472D01*
X21907Y101468D01*
X21928Y101464D01*
X21975Y101454D01*
X22026Y101438D01*
X22079Y101417D01*
X22106Y101403D01*
X22134Y101388D01*
X22136D01*
X22140Y101384D01*
X22148Y101378D01*
X22157Y101372D01*
X22169Y101362D01*
X22183Y101350D01*
X22199Y101337D01*
X22214Y101321D01*
X22234Y101303D01*
X22252Y101284D01*
X22271Y101262D01*
X22289Y101239D01*
X22308Y101213D01*
X22326Y101186D01*
X22344Y101154D01*
X22361Y101123D01*
Y101125D01*
X22365Y101133D01*
X22369Y101145D01*
X22375Y101160D01*
X22383Y101180D01*
X22391Y101201D01*
X22402Y101227D01*
X22416Y101252D01*
X22447Y101309D01*
X22465Y101339D01*
X22487Y101368D01*
X22510Y101395D01*
X22534Y101425D01*
X22561Y101450D01*
X22591Y101474D01*
X22593Y101476D01*
X22598Y101480D01*
X22606Y101486D01*
X22620Y101493D01*
X22634Y101503D01*
X22653Y101513D01*
X22675Y101525D01*
X22698Y101537D01*
X22726Y101546D01*
X22753Y101558D01*
X22785Y101568D01*
X22818Y101578D01*
X22853Y101585D01*
X22891Y101591D01*
X22930Y101595D01*
X22971Y101597D01*
X22973D01*
X22979D01*
X22988D01*
X23000Y101595D01*
D02*
G37*
G36*
X59721Y133944D02*
X59730Y133936D01*
X59744Y133922D01*
X59766Y133905D01*
X59791Y133883D01*
X59820Y133857D01*
X59858Y133828D01*
X59899Y133795D01*
X59946Y133761D01*
X59997Y133722D01*
X60052Y133683D01*
X60113Y133642D01*
X60177Y133599D01*
X60246Y133556D01*
X60318Y133512D01*
X60397Y133467D01*
X60399D01*
X60401Y133465D01*
X60407Y133461D01*
X60416Y133458D01*
X60426Y133452D01*
X60438Y133446D01*
X60454Y133438D01*
X60469Y133428D01*
X60509Y133409D01*
X60553Y133387D01*
X60606Y133362D01*
X60663Y133334D01*
X60728Y133305D01*
X60795Y133275D01*
X60867Y133246D01*
X60942Y133215D01*
X61020Y133185D01*
X61100Y133158D01*
X61183Y133130D01*
X61267Y133105D01*
X61271D01*
X61281Y133101D01*
X61298Y133097D01*
X61322Y133089D01*
X61351Y133083D01*
X61387Y133073D01*
X61426Y133066D01*
X61471Y133056D01*
X61520Y133046D01*
X61575Y133036D01*
X61632Y133026D01*
X61690Y133017D01*
X61755Y133007D01*
X61820Y132999D01*
X61888Y132993D01*
X61957Y132987D01*
Y132670D01*
X61953D01*
X61943D01*
X61927Y132672D01*
X61904D01*
X61875Y132674D01*
X61841Y132677D01*
X61802Y132681D01*
X61757Y132685D01*
X61706Y132691D01*
X61651Y132699D01*
X61592Y132709D01*
X61530Y132721D01*
X61463Y132732D01*
X61392Y132748D01*
X61318Y132766D01*
X61242Y132785D01*
X61239D01*
X61238Y132787D01*
X61232Y132789D01*
X61222Y132791D01*
X61212Y132793D01*
X61200Y132797D01*
X61187Y132801D01*
X61169Y132807D01*
X61132Y132817D01*
X61089Y132832D01*
X61038Y132848D01*
X60983Y132868D01*
X60924Y132889D01*
X60859Y132913D01*
X60793Y132938D01*
X60722Y132968D01*
X60651Y132999D01*
X60579Y133032D01*
X60505Y133068D01*
X60432Y133105D01*
X60430D01*
X60428Y133107D01*
X60422Y133111D01*
X60414Y133115D01*
X60395Y133126D01*
X60367Y133142D01*
X60334Y133162D01*
X60295Y133183D01*
X60252Y133211D01*
X60203Y133240D01*
X60154Y133271D01*
X60099Y133305D01*
X60046Y133342D01*
X59989Y133381D01*
X59879Y133464D01*
X59824Y133507D01*
X59773Y133550D01*
Y132319D01*
X59478D01*
Y133946D01*
X59719D01*
X59721Y133944D01*
D02*
G37*
G36*
X61210Y131878D02*
X61236D01*
X61267Y131876D01*
X61300Y131874D01*
X61338Y131870D01*
X61375Y131866D01*
X61416Y131862D01*
X61496Y131848D01*
X61537Y131839D01*
X61577Y131829D01*
X61612Y131817D01*
X61647Y131803D01*
X61649D01*
X61655Y131799D01*
X61663Y131796D01*
X61675Y131790D01*
X61690Y131780D01*
X61706Y131770D01*
X61745Y131745D01*
X61765Y131729D01*
X61786Y131711D01*
X61810Y131690D01*
X61831Y131668D01*
X61853Y131645D01*
X61873Y131619D01*
X61892Y131590D01*
X61910Y131560D01*
Y131558D01*
X61914Y131553D01*
X61918Y131545D01*
X61924Y131531D01*
X61931Y131515D01*
X61939Y131496D01*
X61947Y131474D01*
X61955Y131450D01*
X61963Y131423D01*
X61971Y131394D01*
X61979Y131362D01*
X61986Y131327D01*
X61992Y131292D01*
X61996Y131254D01*
X61998Y131215D01*
X62000Y131174D01*
Y131160D01*
X61998Y131143D01*
X61996Y131119D01*
X61994Y131092D01*
X61990Y131061D01*
X61984Y131025D01*
X61976Y130986D01*
X61967Y130947D01*
X61955Y130906D01*
X61939Y130863D01*
X61920Y130819D01*
X61898Y130778D01*
X61875Y130739D01*
X61845Y130702D01*
X61812Y130667D01*
X61810Y130665D01*
X61802Y130659D01*
X61792Y130651D01*
X61777Y130639D01*
X61757Y130627D01*
X61731Y130612D01*
X61702Y130596D01*
X61669Y130580D01*
X61632Y130565D01*
X61590Y130549D01*
X61543Y130535D01*
X61492Y130524D01*
X61437Y130512D01*
X61379Y130506D01*
X61314Y130500D01*
X61245D01*
X61204Y130800D01*
X61208D01*
X61216D01*
X61232Y130802D01*
X61251Y130804D01*
X61275Y130806D01*
X61300Y130808D01*
X61330Y130812D01*
X61361Y130817D01*
X61428Y130831D01*
X61492Y130849D01*
X61522Y130861D01*
X61551Y130874D01*
X61577Y130890D01*
X61598Y130906D01*
X61600Y130908D01*
X61602Y130910D01*
X61608Y130915D01*
X61614Y130923D01*
X61622Y130933D01*
X61632Y130945D01*
X61641Y130959D01*
X61651Y130974D01*
X61661Y130994D01*
X61671Y131014D01*
X61688Y131059D01*
X61700Y131112D01*
X61702Y131141D01*
X61704Y131172D01*
Y131194D01*
X61702Y131204D01*
X61700Y131215D01*
X61696Y131245D01*
X61690Y131278D01*
X61681Y131315D01*
X61667Y131351D01*
X61647Y131386D01*
Y131388D01*
X61645Y131390D01*
X61637Y131402D01*
X61624Y131417D01*
X61606Y131437D01*
X61585Y131456D01*
X61557Y131478D01*
X61528Y131496D01*
X61492Y131511D01*
X61490D01*
X61488Y131513D01*
X61483Y131515D01*
X61473Y131517D01*
X61463Y131519D01*
X61449Y131523D01*
X61434Y131525D01*
X61416Y131529D01*
X61394Y131533D01*
X61371Y131535D01*
X61345Y131539D01*
X61318Y131541D01*
X61287Y131543D01*
X61251Y131545D01*
X61216Y131547D01*
X61177D01*
X59444D01*
Y131880D01*
X61157D01*
X61161D01*
X61171D01*
X61187D01*
X61210Y131878D01*
D02*
G37*
G36*
X62796Y102200D02*
X62792D01*
X62784D01*
X62768Y102198D01*
X62749Y102196D01*
X62725Y102194D01*
X62700Y102192D01*
X62670Y102188D01*
X62639Y102182D01*
X62572Y102169D01*
X62508Y102151D01*
X62478Y102139D01*
X62449Y102126D01*
X62423Y102110D01*
X62402Y102094D01*
X62400Y102092D01*
X62398Y102090D01*
X62392Y102085D01*
X62386Y102077D01*
X62378Y102067D01*
X62368Y102055D01*
X62359Y102041D01*
X62349Y102026D01*
X62339Y102006D01*
X62329Y101987D01*
X62312Y101941D01*
X62300Y101889D01*
X62298Y101859D01*
X62296Y101828D01*
Y101806D01*
X62298Y101796D01*
X62300Y101785D01*
X62304Y101755D01*
X62310Y101722D01*
X62319Y101685D01*
X62333Y101649D01*
X62353Y101614D01*
Y101612D01*
X62355Y101610D01*
X62362Y101598D01*
X62376Y101583D01*
X62394Y101563D01*
X62415Y101544D01*
X62443Y101522D01*
X62472Y101504D01*
X62508Y101489D01*
X62510D01*
X62511Y101487D01*
X62517Y101485D01*
X62527Y101483D01*
X62537Y101481D01*
X62551Y101477D01*
X62566Y101475D01*
X62584Y101471D01*
X62606Y101467D01*
X62629Y101465D01*
X62655Y101461D01*
X62682Y101459D01*
X62713Y101457D01*
X62749Y101455D01*
X62784Y101453D01*
X62823D01*
X64556D01*
Y101120D01*
X62843D01*
X62839D01*
X62829D01*
X62813D01*
X62790Y101122D01*
X62764D01*
X62733Y101124D01*
X62700Y101126D01*
X62662Y101130D01*
X62625Y101134D01*
X62584Y101138D01*
X62504Y101152D01*
X62463Y101161D01*
X62423Y101171D01*
X62388Y101183D01*
X62353Y101197D01*
X62351D01*
X62345Y101200D01*
X62337Y101205D01*
X62325Y101210D01*
X62310Y101220D01*
X62294Y101230D01*
X62255Y101255D01*
X62235Y101271D01*
X62214Y101289D01*
X62190Y101310D01*
X62169Y101332D01*
X62147Y101355D01*
X62127Y101381D01*
X62108Y101410D01*
X62090Y101440D01*
Y101442D01*
X62086Y101447D01*
X62082Y101455D01*
X62076Y101469D01*
X62069Y101485D01*
X62061Y101504D01*
X62053Y101526D01*
X62045Y101549D01*
X62037Y101577D01*
X62029Y101606D01*
X62021Y101638D01*
X62014Y101673D01*
X62008Y101708D01*
X62004Y101745D01*
X62002Y101785D01*
X62000Y101826D01*
Y101839D01*
X62002Y101857D01*
X62004Y101881D01*
X62006Y101908D01*
X62010Y101939D01*
X62016Y101975D01*
X62024Y102014D01*
X62033Y102053D01*
X62045Y102094D01*
X62061Y102137D01*
X62080Y102181D01*
X62102Y102222D01*
X62125Y102261D01*
X62155Y102298D01*
X62188Y102333D01*
X62190Y102335D01*
X62198Y102341D01*
X62208Y102349D01*
X62223Y102361D01*
X62243Y102373D01*
X62269Y102388D01*
X62298Y102404D01*
X62331Y102420D01*
X62368Y102435D01*
X62410Y102451D01*
X62457Y102465D01*
X62508Y102477D01*
X62563Y102488D01*
X62621Y102494D01*
X62686Y102500D01*
X62754D01*
X62796Y102200D01*
D02*
G37*
G36*
X63752Y100701D02*
X63780Y100699D01*
X63811Y100695D01*
X63848Y100691D01*
X63891Y100683D01*
X63936Y100675D01*
X63984Y100663D01*
X64034Y100648D01*
X64085Y100630D01*
X64138Y100609D01*
X64189Y100583D01*
X64238Y100554D01*
X64287Y100519D01*
X64332Y100479D01*
X64334Y100477D01*
X64342Y100470D01*
X64354Y100456D01*
X64370Y100438D01*
X64387Y100417D01*
X64407Y100389D01*
X64426Y100360D01*
X64450Y100324D01*
X64472Y100285D01*
X64491Y100242D01*
X64511Y100195D01*
X64528Y100146D01*
X64544Y100091D01*
X64556Y100034D01*
X64564Y99976D01*
X64566Y99913D01*
Y99889D01*
X64564Y99872D01*
X64562Y99850D01*
X64558Y99825D01*
X64554Y99797D01*
X64550Y99766D01*
X64542Y99731D01*
X64532Y99695D01*
X64522Y99658D01*
X64509Y99621D01*
X64495Y99582D01*
X64475Y99542D01*
X64456Y99505D01*
X64432Y99466D01*
X64430Y99464D01*
X64426Y99456D01*
X64419Y99446D01*
X64409Y99433D01*
X64395Y99415D01*
X64377Y99395D01*
X64358Y99374D01*
X64336Y99350D01*
X64311Y99327D01*
X64283Y99301D01*
X64252Y99276D01*
X64219Y99248D01*
X64181Y99225D01*
X64142Y99199D01*
X64101Y99178D01*
X64056Y99156D01*
X64054Y99154D01*
X64044Y99152D01*
X64030Y99146D01*
X64011Y99141D01*
X63985Y99131D01*
X63954Y99123D01*
X63919Y99113D01*
X63878Y99103D01*
X63829Y99094D01*
X63778Y99084D01*
X63719Y99074D01*
X63656Y99066D01*
X63587Y99060D01*
X63513Y99054D01*
X63435Y99052D01*
X63350Y99050D01*
X63348D01*
X63345D01*
X63339D01*
X63329D01*
X63317D01*
X63303D01*
X63288Y99052D01*
X63270D01*
X63231Y99054D01*
X63182Y99056D01*
X63131Y99058D01*
X63074Y99064D01*
X63013Y99070D01*
X62950Y99076D01*
X62823Y99095D01*
X62758Y99107D01*
X62698Y99121D01*
X62637Y99137D01*
X62582Y99156D01*
X62578Y99158D01*
X62570Y99160D01*
X62555Y99168D01*
X62535Y99176D01*
X62511Y99186D01*
X62484Y99199D01*
X62455Y99215D01*
X62421Y99235D01*
X62386Y99254D01*
X62351Y99278D01*
X62315Y99303D01*
X62280Y99331D01*
X62245Y99362D01*
X62210Y99395D01*
X62178Y99431D01*
X62149Y99468D01*
X62147Y99470D01*
X62143Y99478D01*
X62135Y99489D01*
X62125Y99505D01*
X62114Y99525D01*
X62102Y99548D01*
X62088Y99574D01*
X62074Y99605D01*
X62061Y99638D01*
X62047Y99676D01*
X62035Y99715D01*
X62024Y99758D01*
X62014Y99803D01*
X62006Y99850D01*
X62002Y99899D01*
X62000Y99950D01*
Y99964D01*
X62002Y99980D01*
Y99999D01*
X62006Y100024D01*
X62008Y100054D01*
X62014Y100085D01*
X62020Y100121D01*
X62029Y100158D01*
X62039Y100197D01*
X62053Y100238D01*
X62069Y100277D01*
X62088Y100319D01*
X62110Y100358D01*
X62133Y100397D01*
X62163Y100432D01*
X62165Y100434D01*
X62170Y100440D01*
X62180Y100450D01*
X62192Y100462D01*
X62210Y100477D01*
X62229Y100493D01*
X62255Y100511D01*
X62282Y100530D01*
X62312Y100550D01*
X62347Y100569D01*
X62384Y100587D01*
X62425Y100605D01*
X62470Y100620D01*
X62517Y100636D01*
X62568Y100648D01*
X62623Y100656D01*
X62651Y100360D01*
X62649D01*
X62641Y100358D01*
X62631Y100356D01*
X62617Y100352D01*
X62600Y100348D01*
X62580Y100342D01*
X62557Y100336D01*
X62535Y100328D01*
X62484Y100309D01*
X62435Y100283D01*
X62386Y100254D01*
X62366Y100236D01*
X62347Y100217D01*
X62345Y100215D01*
X62343Y100211D01*
X62339Y100205D01*
X62333Y100197D01*
X62325Y100187D01*
X62318Y100173D01*
X62310Y100160D01*
X62300Y100142D01*
X62282Y100103D01*
X62269Y100058D01*
X62257Y100003D01*
X62255Y99976D01*
X62253Y99944D01*
Y99931D01*
X62255Y99921D01*
Y99907D01*
X62257Y99893D01*
X62261Y99860D01*
X62269Y99821D01*
X62280Y99778D01*
X62296Y99734D01*
X62318Y99693D01*
Y99691D01*
X62321Y99689D01*
X62323Y99683D01*
X62329Y99676D01*
X62343Y99656D01*
X62362Y99631D01*
X62388Y99603D01*
X62417Y99574D01*
X62451Y99546D01*
X62490Y99519D01*
X62492D01*
X62496Y99515D01*
X62502Y99513D01*
X62510Y99507D01*
X62521Y99501D01*
X62535Y99495D01*
X62551Y99488D01*
X62568Y99480D01*
X62588Y99470D01*
X62609Y99460D01*
X62635Y99452D01*
X62660Y99442D01*
X62719Y99423D01*
X62784Y99405D01*
X62786D01*
X62792Y99403D01*
X62802Y99401D01*
X62815Y99397D01*
X62833Y99393D01*
X62853Y99389D01*
X62876Y99386D01*
X62902Y99382D01*
X62929Y99378D01*
X62958Y99374D01*
X63023Y99366D01*
X63092Y99360D01*
X63162Y99358D01*
X63166D01*
X63178D01*
X63186D01*
X63196D01*
X63209D01*
X63223D01*
X63221Y99360D01*
X63217Y99362D01*
X63209Y99368D01*
X63200Y99376D01*
X63186Y99386D01*
X63172Y99395D01*
X63156Y99409D01*
X63139Y99425D01*
X63099Y99462D01*
X63060Y99505D01*
X63021Y99556D01*
X62984Y99613D01*
Y99615D01*
X62980Y99621D01*
X62976Y99629D01*
X62970Y99640D01*
X62962Y99656D01*
X62954Y99674D01*
X62947Y99693D01*
X62939Y99715D01*
X62931Y99740D01*
X62923Y99768D01*
X62907Y99827D01*
X62898Y99891D01*
X62896Y99925D01*
X62894Y99960D01*
Y99974D01*
X62896Y99989D01*
X62898Y100013D01*
X62902Y100038D01*
X62906Y100070D01*
X62913Y100105D01*
X62921Y100142D01*
X62933Y100183D01*
X62949Y100226D01*
X62966Y100270D01*
X62990Y100315D01*
X63015Y100358D01*
X63045Y100403D01*
X63080Y100446D01*
X63119Y100487D01*
X63121Y100489D01*
X63129Y100497D01*
X63143Y100507D01*
X63160Y100520D01*
X63182Y100536D01*
X63209Y100556D01*
X63243Y100575D01*
X63278Y100595D01*
X63319Y100615D01*
X63364Y100634D01*
X63413Y100652D01*
X63466Y100669D01*
X63523Y100683D01*
X63584Y100693D01*
X63646Y100701D01*
X63715Y100703D01*
X63717D01*
X63719D01*
X63725D01*
X63733D01*
X63752Y100701D01*
D02*
G37*
G36*
X23741Y43932D02*
X23739D01*
X23735D01*
X23729D01*
X23721D01*
X23700D01*
X23673Y43935D01*
X23641Y43939D01*
X23604Y43945D01*
X23567Y43955D01*
X23528Y43967D01*
X23526D01*
X23520Y43971D01*
X23510Y43973D01*
X23498Y43979D01*
X23482Y43986D01*
X23465Y43994D01*
X23445Y44004D01*
X23422Y44016D01*
X23373Y44043D01*
X23316Y44079D01*
X23255Y44120D01*
X23194Y44169D01*
X23192Y44171D01*
X23186Y44175D01*
X23177Y44184D01*
X23165Y44194D01*
X23149Y44210D01*
X23132Y44228D01*
X23110Y44249D01*
X23085Y44273D01*
X23059Y44300D01*
X23030Y44330D01*
X22998Y44363D01*
X22965Y44400D01*
X22930Y44439D01*
X22892Y44480D01*
X22853Y44526D01*
X22814Y44574D01*
X22812Y44576D01*
X22810Y44578D01*
X22806Y44584D01*
X22798Y44592D01*
X22783Y44614D01*
X22759Y44641D01*
X22730Y44674D01*
X22698Y44712D01*
X22661Y44753D01*
X22622Y44798D01*
X22581Y44843D01*
X22538Y44890D01*
X22493Y44935D01*
X22447Y44980D01*
X22404Y45023D01*
X22361Y45063D01*
X22320Y45098D01*
X22283Y45127D01*
X22281Y45129D01*
X22273Y45133D01*
X22263Y45141D01*
X22250Y45151D01*
X22232Y45160D01*
X22210Y45172D01*
X22187Y45186D01*
X22161Y45200D01*
X22134Y45213D01*
X22105Y45227D01*
X22042Y45249D01*
X22010Y45259D01*
X21977Y45266D01*
X21944Y45270D01*
X21911Y45272D01*
X21908D01*
X21903D01*
X21893D01*
X21879Y45270D01*
X21863Y45268D01*
X21846Y45264D01*
X21824Y45261D01*
X21803Y45257D01*
X21754Y45241D01*
X21728Y45229D01*
X21703Y45217D01*
X21675Y45202D01*
X21650Y45184D01*
X21624Y45164D01*
X21601Y45141D01*
X21599Y45139D01*
X21595Y45135D01*
X21589Y45127D01*
X21581Y45117D01*
X21571Y45104D01*
X21560Y45088D01*
X21550Y45070D01*
X21536Y45049D01*
X21524Y45025D01*
X21515Y45000D01*
X21503Y44970D01*
X21493Y44941D01*
X21485Y44908D01*
X21479Y44874D01*
X21475Y44837D01*
X21473Y44798D01*
Y44776D01*
X21475Y44761D01*
X21477Y44743D01*
X21481Y44721D01*
X21485Y44696D01*
X21491Y44671D01*
X21497Y44643D01*
X21507Y44614D01*
X21517Y44584D01*
X21530Y44555D01*
X21546Y44524D01*
X21564Y44496D01*
X21585Y44467D01*
X21609Y44441D01*
X21611Y44439D01*
X21614Y44435D01*
X21622Y44429D01*
X21632Y44420D01*
X21646Y44410D01*
X21664Y44400D01*
X21683Y44386D01*
X21705Y44375D01*
X21730Y44363D01*
X21758Y44351D01*
X21789Y44339D01*
X21820Y44330D01*
X21858Y44320D01*
X21895Y44314D01*
X21936Y44310D01*
X21979Y44308D01*
X21946Y43990D01*
X21944D01*
X21942D01*
X21930Y43992D01*
X21912Y43994D01*
X21887Y43998D01*
X21858Y44004D01*
X21824Y44012D01*
X21785Y44022D01*
X21746Y44034D01*
X21703Y44047D01*
X21658Y44063D01*
X21613Y44082D01*
X21567Y44106D01*
X21524Y44131D01*
X21481Y44163D01*
X21442Y44196D01*
X21405Y44233D01*
X21403Y44235D01*
X21397Y44243D01*
X21387Y44255D01*
X21375Y44273D01*
X21362Y44294D01*
X21346Y44320D01*
X21328Y44351D01*
X21311Y44384D01*
X21295Y44424D01*
X21277Y44467D01*
X21262Y44514D01*
X21248Y44565D01*
X21236Y44620D01*
X21226Y44678D01*
X21221Y44741D01*
X21219Y44806D01*
Y44821D01*
X21221Y44841D01*
X21223Y44865D01*
X21225Y44896D01*
X21228Y44931D01*
X21236Y44970D01*
X21244Y45013D01*
X21254Y45057D01*
X21268Y45104D01*
X21283Y45151D01*
X21303Y45200D01*
X21326Y45247D01*
X21354Y45292D01*
X21385Y45337D01*
X21420Y45378D01*
X21422Y45380D01*
X21430Y45388D01*
X21440Y45398D01*
X21456Y45411D01*
X21475Y45427D01*
X21499Y45445D01*
X21526Y45464D01*
X21558Y45484D01*
X21591Y45504D01*
X21630Y45523D01*
X21669Y45541D01*
X21714Y45556D01*
X21761Y45570D01*
X21811Y45580D01*
X21861Y45588D01*
X21916Y45590D01*
X21918D01*
X21922D01*
X21932D01*
X21942D01*
X21956Y45588D01*
X21971Y45586D01*
X21991Y45584D01*
X22010Y45582D01*
X22055Y45574D01*
X22106Y45564D01*
X22159Y45549D01*
X22214Y45527D01*
X22216D01*
X22220Y45525D01*
X22228Y45521D01*
X22240Y45515D01*
X22253Y45509D01*
X22269Y45500D01*
X22287Y45490D01*
X22306Y45478D01*
X22353Y45451D01*
X22404Y45415D01*
X22461Y45372D01*
X22520Y45323D01*
X22522Y45321D01*
X22528Y45317D01*
X22536Y45307D01*
X22549Y45296D01*
X22565Y45280D01*
X22587Y45261D01*
X22608Y45237D01*
X22636Y45210D01*
X22665Y45178D01*
X22698Y45145D01*
X22736Y45106D01*
X22775Y45063D01*
X22818Y45015D01*
X22863Y44963D01*
X22912Y44908D01*
X22963Y44847D01*
X22965Y44843D01*
X22973Y44835D01*
X22985Y44821D01*
X23000Y44802D01*
X23020Y44780D01*
X23041Y44755D01*
X23065Y44727D01*
X23090Y44698D01*
X23143Y44637D01*
X23196Y44578D01*
X23220Y44553D01*
X23243Y44527D01*
X23263Y44508D01*
X23280Y44490D01*
X23284Y44486D01*
X23294Y44477D01*
X23310Y44463D01*
X23332Y44445D01*
X23357Y44424D01*
X23384Y44402D01*
X23414Y44380D01*
X23445Y44361D01*
Y45594D01*
X23741D01*
Y43932D01*
D02*
G37*
G36*
X21524Y42926D02*
X23741D01*
Y42593D01*
X21524D01*
Y41766D01*
X21228D01*
Y43757D01*
X21524D01*
Y42926D01*
D02*
G37*
G36*
X23043Y41495D02*
X23059D01*
X23079Y41493D01*
X23098Y41491D01*
X23122Y41488D01*
X23173Y41480D01*
X23228Y41466D01*
X23284Y41446D01*
X23343Y41421D01*
X23345D01*
X23349Y41417D01*
X23357Y41413D01*
X23369Y41407D01*
X23381Y41401D01*
X23396Y41391D01*
X23429Y41370D01*
X23467Y41342D01*
X23506Y41311D01*
X23543Y41276D01*
X23576Y41237D01*
Y41235D01*
X23580Y41233D01*
X23584Y41225D01*
X23590Y41217D01*
X23596Y41207D01*
X23604Y41194D01*
X23614Y41180D01*
X23623Y41162D01*
X23643Y41123D01*
X23663Y41076D01*
X23682Y41021D01*
X23700Y40962D01*
Y40960D01*
X23702Y40954D01*
X23704Y40945D01*
X23706Y40933D01*
X23710Y40917D01*
X23714Y40898D01*
X23718Y40876D01*
X23720Y40850D01*
X23723Y40821D01*
X23727Y40792D01*
X23731Y40758D01*
X23735Y40721D01*
X23737Y40684D01*
X23739Y40643D01*
X23741Y40602D01*
Y39600D01*
X21228D01*
Y40568D01*
X21230Y40588D01*
Y40613D01*
X21232Y40641D01*
X21234Y40672D01*
X21238Y40707D01*
X21242Y40743D01*
X21246Y40780D01*
X21260Y40858D01*
X21279Y40933D01*
X21291Y40970D01*
X21305Y41003D01*
Y41005D01*
X21309Y41011D01*
X21313Y41021D01*
X21319Y41033D01*
X21326Y41047D01*
X21338Y41064D01*
X21364Y41103D01*
X21395Y41146D01*
X21436Y41192D01*
X21485Y41237D01*
X21540Y41276D01*
X21542Y41278D01*
X21548Y41280D01*
X21556Y41286D01*
X21567Y41291D01*
X21581Y41299D01*
X21599Y41307D01*
X21618Y41317D01*
X21640Y41327D01*
X21666Y41335D01*
X21691Y41344D01*
X21746Y41360D01*
X21807Y41372D01*
X21840Y41374D01*
X21871Y41376D01*
X21873D01*
X21879D01*
X21887D01*
X21899Y41374D01*
X21912D01*
X21930Y41372D01*
X21950Y41368D01*
X21971Y41364D01*
X22018Y41354D01*
X22069Y41339D01*
X22122Y41317D01*
X22150Y41303D01*
X22177Y41288D01*
X22179D01*
X22183Y41284D01*
X22191Y41278D01*
X22201Y41272D01*
X22212Y41262D01*
X22226Y41250D01*
X22242Y41237D01*
X22257Y41221D01*
X22277Y41203D01*
X22295Y41184D01*
X22314Y41162D01*
X22332Y41139D01*
X22352Y41113D01*
X22369Y41086D01*
X22387Y41054D01*
X22404Y41023D01*
Y41025D01*
X22408Y41033D01*
X22412Y41045D01*
X22418Y41060D01*
X22426Y41080D01*
X22434Y41101D01*
X22446Y41127D01*
X22459Y41152D01*
X22491Y41209D01*
X22508Y41239D01*
X22530Y41268D01*
X22553Y41295D01*
X22577Y41325D01*
X22604Y41350D01*
X22634Y41374D01*
X22636Y41376D01*
X22642Y41380D01*
X22649Y41386D01*
X22663Y41393D01*
X22677Y41403D01*
X22696Y41413D01*
X22718Y41425D01*
X22741Y41436D01*
X22769Y41446D01*
X22796Y41458D01*
X22828Y41468D01*
X22861Y41478D01*
X22896Y41486D01*
X22934Y41491D01*
X22973Y41495D01*
X23014Y41497D01*
X23016D01*
X23022D01*
X23032D01*
X23043Y41495D01*
D02*
G37*
G36*
X66000Y21228D02*
X65032D01*
X65012Y21230D01*
X64987D01*
X64959Y21232D01*
X64928Y21234D01*
X64893Y21238D01*
X64857Y21242D01*
X64820Y21246D01*
X64742Y21260D01*
X64667Y21279D01*
X64630Y21291D01*
X64597Y21305D01*
X64595D01*
X64589Y21309D01*
X64579Y21313D01*
X64567Y21319D01*
X64553Y21326D01*
X64536Y21338D01*
X64497Y21364D01*
X64454Y21395D01*
X64408Y21436D01*
X64363Y21485D01*
X64324Y21540D01*
X64322Y21542D01*
X64320Y21548D01*
X64314Y21556D01*
X64309Y21567D01*
X64301Y21581D01*
X64293Y21599D01*
X64283Y21618D01*
X64273Y21640D01*
X64265Y21666D01*
X64256Y21691D01*
X64240Y21746D01*
X64228Y21807D01*
X64226Y21840D01*
X64224Y21871D01*
Y21873D01*
Y21879D01*
Y21887D01*
X64226Y21899D01*
Y21912D01*
X64228Y21930D01*
X64232Y21950D01*
X64236Y21971D01*
X64246Y22018D01*
X64262Y22069D01*
X64283Y22122D01*
X64297Y22150D01*
X64312Y22177D01*
Y22179D01*
X64316Y22183D01*
X64322Y22191D01*
X64328Y22201D01*
X64338Y22212D01*
X64350Y22226D01*
X64363Y22242D01*
X64379Y22257D01*
X64397Y22277D01*
X64416Y22295D01*
X64438Y22314D01*
X64461Y22332D01*
X64487Y22352D01*
X64514Y22369D01*
X64546Y22387D01*
X64577Y22404D01*
X64575D01*
X64567Y22408D01*
X64556Y22412D01*
X64540Y22418D01*
X64520Y22426D01*
X64499Y22434D01*
X64473Y22446D01*
X64448Y22459D01*
X64391Y22491D01*
X64361Y22508D01*
X64332Y22530D01*
X64305Y22553D01*
X64275Y22577D01*
X64250Y22604D01*
X64226Y22634D01*
X64224Y22636D01*
X64220Y22642D01*
X64214Y22649D01*
X64207Y22663D01*
X64197Y22677D01*
X64187Y22696D01*
X64175Y22718D01*
X64164Y22741D01*
X64154Y22769D01*
X64142Y22796D01*
X64132Y22828D01*
X64122Y22861D01*
X64114Y22896D01*
X64109Y22934D01*
X64105Y22973D01*
X64103Y23014D01*
Y23016D01*
Y23022D01*
Y23032D01*
X64105Y23043D01*
Y23059D01*
X64107Y23079D01*
X64109Y23098D01*
X64113Y23122D01*
X64120Y23173D01*
X64134Y23228D01*
X64154Y23284D01*
X64179Y23343D01*
Y23345D01*
X64183Y23349D01*
X64187Y23357D01*
X64193Y23369D01*
X64199Y23381D01*
X64209Y23396D01*
X64230Y23429D01*
X64258Y23467D01*
X64289Y23506D01*
X64324Y23543D01*
X64363Y23576D01*
X64365D01*
X64367Y23580D01*
X64375Y23584D01*
X64383Y23590D01*
X64393Y23596D01*
X64407Y23604D01*
X64420Y23614D01*
X64438Y23623D01*
X64477Y23643D01*
X64524Y23663D01*
X64579Y23682D01*
X64638Y23700D01*
X64640D01*
X64646Y23702D01*
X64655Y23704D01*
X64667Y23706D01*
X64683Y23710D01*
X64702Y23714D01*
X64724Y23718D01*
X64749Y23720D01*
X64779Y23723D01*
X64808Y23727D01*
X64842Y23731D01*
X64879Y23735D01*
X64916Y23737D01*
X64957Y23739D01*
X64998Y23741D01*
X66000D01*
Y21228D01*
D02*
G37*
G36*
X63007Y21524D02*
X63834D01*
Y21228D01*
X61843D01*
Y21524D01*
X62674D01*
Y23741D01*
X63007D01*
Y21524D01*
D02*
G37*
G36*
X60775Y21777D02*
X60777Y21779D01*
X60781Y21781D01*
X60786Y21787D01*
X60794Y21795D01*
X60806Y21805D01*
X60820Y21816D01*
X60835Y21828D01*
X60853Y21844D01*
X60873Y21859D01*
X60896Y21875D01*
X60920Y21893D01*
X60945Y21911D01*
X61004Y21950D01*
X61069Y21989D01*
X61071Y21991D01*
X61076Y21993D01*
X61086Y21999D01*
X61098Y22006D01*
X61116Y22014D01*
X61133Y22024D01*
X61155Y22036D01*
X61176Y22048D01*
X61227Y22073D01*
X61280Y22101D01*
X61337Y22126D01*
X61392Y22148D01*
Y21850D01*
X61388Y21848D01*
X61380Y21844D01*
X61367Y21838D01*
X61349Y21828D01*
X61325Y21816D01*
X61300Y21803D01*
X61270Y21785D01*
X61239Y21767D01*
X61204Y21748D01*
X61169Y21724D01*
X61092Y21675D01*
X61016Y21618D01*
X60941Y21556D01*
X60939Y21554D01*
X60933Y21548D01*
X60924Y21538D01*
X60910Y21526D01*
X60894Y21511D01*
X60875Y21493D01*
X60855Y21471D01*
X60833Y21448D01*
X60788Y21397D01*
X60743Y21340D01*
X60702Y21279D01*
X60682Y21250D01*
X60667Y21219D01*
X60467D01*
Y23741D01*
X60775D01*
Y21777D01*
D02*
G37*
G36*
X202809Y84200D02*
X202805D01*
X202798D01*
X202782Y84198D01*
X202762Y84196D01*
X202739Y84194D01*
X202713Y84192D01*
X202684Y84188D01*
X202653Y84183D01*
X202586Y84169D01*
X202521Y84151D01*
X202492Y84139D01*
X202462Y84126D01*
X202437Y84110D01*
X202415Y84094D01*
X202413Y84092D01*
X202411Y84090D01*
X202406Y84084D01*
X202400Y84077D01*
X202392Y84067D01*
X202382Y84055D01*
X202372Y84041D01*
X202362Y84026D01*
X202353Y84006D01*
X202343Y83987D01*
X202325Y83941D01*
X202313Y83889D01*
X202311Y83859D01*
X202309Y83828D01*
Y83806D01*
X202311Y83796D01*
X202313Y83785D01*
X202317Y83755D01*
X202323Y83722D01*
X202333Y83685D01*
X202347Y83649D01*
X202366Y83614D01*
Y83612D01*
X202368Y83610D01*
X202376Y83598D01*
X202390Y83583D01*
X202408Y83563D01*
X202429Y83544D01*
X202456Y83522D01*
X202486Y83504D01*
X202521Y83489D01*
X202523D01*
X202525Y83487D01*
X202531Y83485D01*
X202541Y83483D01*
X202551Y83481D01*
X202564Y83477D01*
X202580Y83475D01*
X202598Y83471D01*
X202619Y83467D01*
X202643Y83465D01*
X202668Y83461D01*
X202696Y83459D01*
X202727Y83457D01*
X202762Y83455D01*
X202798Y83453D01*
X202837D01*
X204569D01*
Y83120D01*
X202856D01*
X202852D01*
X202843D01*
X202827D01*
X202803Y83122D01*
X202778D01*
X202747Y83124D01*
X202713Y83126D01*
X202676Y83130D01*
X202639Y83134D01*
X202598Y83138D01*
X202517Y83152D01*
X202476Y83161D01*
X202437Y83171D01*
X202402Y83183D01*
X202366Y83197D01*
X202364D01*
X202359Y83201D01*
X202351Y83205D01*
X202339Y83210D01*
X202323Y83220D01*
X202308Y83230D01*
X202268Y83255D01*
X202249Y83271D01*
X202227Y83289D01*
X202204Y83310D01*
X202182Y83332D01*
X202161Y83355D01*
X202141Y83381D01*
X202121Y83410D01*
X202104Y83440D01*
Y83442D01*
X202100Y83447D01*
X202096Y83455D01*
X202090Y83469D01*
X202082Y83485D01*
X202074Y83504D01*
X202066Y83526D01*
X202059Y83549D01*
X202051Y83577D01*
X202043Y83606D01*
X202035Y83638D01*
X202027Y83673D01*
X202021Y83708D01*
X202017Y83745D01*
X202015Y83785D01*
X202014Y83826D01*
Y83839D01*
X202015Y83857D01*
X202017Y83881D01*
X202019Y83908D01*
X202023Y83939D01*
X202029Y83975D01*
X202037Y84014D01*
X202047Y84053D01*
X202059Y84094D01*
X202074Y84137D01*
X202094Y84181D01*
X202116Y84222D01*
X202139Y84261D01*
X202168Y84298D01*
X202202Y84333D01*
X202204Y84335D01*
X202211Y84341D01*
X202221Y84349D01*
X202237Y84361D01*
X202257Y84373D01*
X202282Y84388D01*
X202311Y84404D01*
X202345Y84420D01*
X202382Y84435D01*
X202423Y84451D01*
X202470Y84465D01*
X202521Y84477D01*
X202576Y84488D01*
X202635Y84494D01*
X202699Y84500D01*
X202768D01*
X202809Y84200D01*
D02*
G37*
G36*
X203280Y82714D02*
X203299D01*
X203323D01*
X203350Y82713D01*
X203380Y82711D01*
X203409Y82709D01*
X203444Y82705D01*
X203480Y82703D01*
X203554Y82693D01*
X203636Y82683D01*
X203723Y82669D01*
X203811Y82652D01*
X203899Y82628D01*
X203985Y82603D01*
X204070Y82571D01*
X204150Y82536D01*
X204224Y82495D01*
X204260Y82471D01*
X204291Y82448D01*
X204295Y82446D01*
X204303Y82436D01*
X204318Y82424D01*
X204336Y82405D01*
X204358Y82381D01*
X204383Y82352D01*
X204409Y82319D01*
X204436Y82281D01*
X204462Y82238D01*
X204489Y82189D01*
X204513Y82138D01*
X204534Y82081D01*
X204552Y82021D01*
X204567Y81956D01*
X204575Y81887D01*
X204579Y81815D01*
Y81801D01*
X204577Y81785D01*
Y81766D01*
X204573Y81740D01*
X204571Y81711D01*
X204566Y81678D01*
X204558Y81642D01*
X204550Y81605D01*
X204538Y81566D01*
X204524Y81525D01*
X204509Y81484D01*
X204489Y81444D01*
X204468Y81403D01*
X204442Y81366D01*
X204413Y81329D01*
X204411Y81327D01*
X204405Y81321D01*
X204395Y81311D01*
X204381Y81297D01*
X204366Y81284D01*
X204344Y81266D01*
X204321Y81248D01*
X204293Y81229D01*
X204262Y81209D01*
X204228Y81190D01*
X204189Y81170D01*
X204148Y81152D01*
X204105Y81135D01*
X204058Y81121D01*
X204007Y81109D01*
X203954Y81099D01*
X203930Y81405D01*
X203932D01*
X203938Y81407D01*
X203948Y81409D01*
X203960Y81413D01*
X203976Y81417D01*
X203991Y81423D01*
X204030Y81437D01*
X204074Y81452D01*
X204117Y81474D01*
X204158Y81495D01*
X204177Y81509D01*
X204193Y81523D01*
X204195Y81525D01*
X204199Y81529D01*
X204205Y81535D01*
X204215Y81544D01*
X204224Y81558D01*
X204236Y81572D01*
X204248Y81589D01*
X204260Y81609D01*
X204272Y81631D01*
X204285Y81654D01*
X204295Y81680D01*
X204305Y81707D01*
X204315Y81735D01*
X204321Y81766D01*
X204324Y81799D01*
X204326Y81832D01*
Y81846D01*
X204324Y81858D01*
Y81870D01*
X204322Y81885D01*
X204317Y81921D01*
X204307Y81962D01*
X204291Y82005D01*
X204270Y82050D01*
X204258Y82072D01*
X204242Y82093D01*
X204240Y82095D01*
X204238Y82099D01*
X204230Y82107D01*
X204222Y82117D01*
X204211Y82130D01*
X204197Y82144D01*
X204181Y82160D01*
X204164Y82177D01*
X204142Y82195D01*
X204119Y82215D01*
X204093Y82234D01*
X204066Y82252D01*
X204036Y82271D01*
X204003Y82291D01*
X203968Y82309D01*
X203930Y82324D01*
X203928D01*
X203921Y82328D01*
X203909Y82332D01*
X203893Y82338D01*
X203872Y82344D01*
X203846Y82352D01*
X203817Y82360D01*
X203782Y82368D01*
X203742Y82375D01*
X203699Y82383D01*
X203652Y82389D01*
X203599Y82397D01*
X203544Y82403D01*
X203484Y82407D01*
X203419Y82409D01*
X203350Y82411D01*
X203352Y82409D01*
X203358Y82405D01*
X203366Y82399D01*
X203378Y82391D01*
X203391Y82379D01*
X203409Y82368D01*
X203427Y82352D01*
X203446Y82334D01*
X203487Y82295D01*
X203529Y82248D01*
X203568Y82195D01*
X203587Y82168D01*
X203603Y82138D01*
X203605Y82136D01*
X203607Y82130D01*
X203611Y82123D01*
X203617Y82111D01*
X203623Y82095D01*
X203629Y82077D01*
X203636Y82058D01*
X203644Y82036D01*
X203652Y82011D01*
X203660Y81985D01*
X203672Y81927D01*
X203681Y81866D01*
X203685Y81799D01*
Y81785D01*
X203683Y81770D01*
X203681Y81748D01*
X203678Y81721D01*
X203674Y81689D01*
X203666Y81654D01*
X203658Y81617D01*
X203644Y81576D01*
X203630Y81535D01*
X203611Y81491D01*
X203589Y81446D01*
X203564Y81401D01*
X203533Y81356D01*
X203497Y81313D01*
X203458Y81272D01*
X203456Y81270D01*
X203448Y81262D01*
X203434Y81252D01*
X203417Y81239D01*
X203395Y81221D01*
X203368Y81203D01*
X203335Y81184D01*
X203299Y81162D01*
X203258Y81143D01*
X203215Y81123D01*
X203166Y81105D01*
X203115Y81088D01*
X203058Y81074D01*
X202999Y81064D01*
X202937Y81056D01*
X202870Y81054D01*
X202868D01*
X202860D01*
X202847D01*
X202831Y81056D01*
X202809Y81058D01*
X202786Y81060D01*
X202758Y81062D01*
X202727Y81068D01*
X202694Y81072D01*
X202660Y81080D01*
X202586Y81098D01*
X202547Y81109D01*
X202509Y81123D01*
X202470Y81141D01*
X202431Y81158D01*
X202429Y81160D01*
X202421Y81162D01*
X202411Y81168D01*
X202398Y81178D01*
X202380Y81188D01*
X202362Y81199D01*
X202341Y81215D01*
X202317Y81231D01*
X202292Y81250D01*
X202266Y81272D01*
X202241Y81293D01*
X202215Y81319D01*
X202166Y81376D01*
X202143Y81405D01*
X202121Y81438D01*
X202119Y81441D01*
X202117Y81446D01*
X202112Y81456D01*
X202104Y81470D01*
X202096Y81488D01*
X202088Y81507D01*
X202078Y81531D01*
X202068Y81556D01*
X202057Y81586D01*
X202047Y81615D01*
X202039Y81650D01*
X202031Y81686D01*
X202017Y81762D01*
X202015Y81803D01*
X202014Y81844D01*
Y81862D01*
X202015Y81881D01*
X202017Y81909D01*
X202021Y81940D01*
X202029Y81980D01*
X202037Y82021D01*
X202049Y82068D01*
X202064Y82117D01*
X202082Y82168D01*
X202106Y82221D01*
X202133Y82271D01*
X202165Y82324D01*
X202204Y82377D01*
X202247Y82426D01*
X202296Y82473D01*
X202300Y82475D01*
X202309Y82483D01*
X202327Y82495D01*
X202351Y82511D01*
X202382Y82530D01*
X202419Y82550D01*
X202466Y82571D01*
X202519Y82595D01*
X202580Y82618D01*
X202613Y82628D01*
X202649Y82640D01*
X202686Y82650D01*
X202725Y82660D01*
X202766Y82669D01*
X202809Y82679D01*
X202856Y82687D01*
X202903Y82695D01*
X202952Y82701D01*
X203003Y82707D01*
X203058Y82711D01*
X203113Y82714D01*
X203170Y82716D01*
X203231D01*
X203233D01*
X203239D01*
X203248D01*
X203262D01*
X203280Y82714D01*
D02*
G37*
G36*
X148880Y15343D02*
Y15339D01*
Y15329D01*
Y15313D01*
X148878Y15290D01*
Y15264D01*
X148876Y15233D01*
X148874Y15200D01*
X148870Y15162D01*
X148866Y15125D01*
X148862Y15084D01*
X148848Y15004D01*
X148839Y14963D01*
X148829Y14923D01*
X148817Y14888D01*
X148803Y14853D01*
Y14851D01*
X148799Y14845D01*
X148795Y14837D01*
X148790Y14825D01*
X148780Y14810D01*
X148770Y14794D01*
X148745Y14755D01*
X148729Y14735D01*
X148711Y14714D01*
X148690Y14690D01*
X148668Y14669D01*
X148645Y14647D01*
X148619Y14627D01*
X148590Y14608D01*
X148560Y14590D01*
X148558D01*
X148553Y14586D01*
X148545Y14582D01*
X148531Y14576D01*
X148515Y14569D01*
X148496Y14561D01*
X148474Y14553D01*
X148451Y14545D01*
X148423Y14537D01*
X148394Y14529D01*
X148362Y14522D01*
X148327Y14514D01*
X148292Y14508D01*
X148255Y14504D01*
X148215Y14502D01*
X148174Y14500D01*
X148161D01*
X148143Y14502D01*
X148119Y14504D01*
X148092Y14506D01*
X148061Y14510D01*
X148025Y14516D01*
X147986Y14524D01*
X147947Y14533D01*
X147906Y14545D01*
X147863Y14561D01*
X147819Y14580D01*
X147778Y14602D01*
X147739Y14625D01*
X147702Y14655D01*
X147667Y14688D01*
X147665Y14690D01*
X147659Y14698D01*
X147651Y14708D01*
X147639Y14723D01*
X147627Y14743D01*
X147612Y14769D01*
X147596Y14798D01*
X147580Y14831D01*
X147565Y14868D01*
X147549Y14910D01*
X147535Y14957D01*
X147523Y15008D01*
X147512Y15063D01*
X147506Y15121D01*
X147500Y15186D01*
Y15255D01*
X147800Y15296D01*
Y15292D01*
Y15284D01*
X147802Y15268D01*
X147804Y15249D01*
X147806Y15225D01*
X147808Y15200D01*
X147812Y15170D01*
X147818Y15139D01*
X147831Y15072D01*
X147849Y15008D01*
X147861Y14978D01*
X147874Y14949D01*
X147890Y14923D01*
X147906Y14902D01*
X147908Y14900D01*
X147910Y14898D01*
X147915Y14892D01*
X147923Y14886D01*
X147933Y14878D01*
X147945Y14868D01*
X147959Y14859D01*
X147974Y14849D01*
X147994Y14839D01*
X148013Y14829D01*
X148058Y14812D01*
X148111Y14800D01*
X148141Y14798D01*
X148172Y14796D01*
X148194D01*
X148204Y14798D01*
X148215Y14800D01*
X148245Y14804D01*
X148278Y14810D01*
X148315Y14819D01*
X148351Y14833D01*
X148386Y14853D01*
X148388D01*
X148390Y14855D01*
X148401Y14863D01*
X148417Y14876D01*
X148437Y14894D01*
X148456Y14916D01*
X148478Y14943D01*
X148496Y14972D01*
X148511Y15008D01*
Y15010D01*
X148513Y15011D01*
X148515Y15017D01*
X148517Y15027D01*
X148519Y15037D01*
X148523Y15051D01*
X148525Y15066D01*
X148529Y15084D01*
X148533Y15106D01*
X148535Y15129D01*
X148539Y15155D01*
X148541Y15182D01*
X148543Y15213D01*
X148545Y15249D01*
X148547Y15284D01*
Y15323D01*
Y17056D01*
X148880D01*
Y15343D01*
D02*
G37*
G36*
X150595Y15427D02*
X150934D01*
Y15145D01*
X150595D01*
Y14543D01*
X150287D01*
Y15145D01*
X149197D01*
Y15427D01*
X150344Y17054D01*
X150595D01*
Y15427D01*
D02*
G37*
G36*
X28048Y154700D02*
X28044D01*
X28036D01*
X28020Y154698D01*
X28001Y154696D01*
X27977Y154694D01*
X27952Y154692D01*
X27922Y154688D01*
X27891Y154683D01*
X27824Y154669D01*
X27760Y154651D01*
X27730Y154639D01*
X27701Y154626D01*
X27675Y154610D01*
X27654Y154594D01*
X27652Y154592D01*
X27650Y154590D01*
X27644Y154585D01*
X27638Y154577D01*
X27630Y154567D01*
X27620Y154555D01*
X27611Y154542D01*
X27601Y154526D01*
X27591Y154506D01*
X27581Y154487D01*
X27564Y154441D01*
X27552Y154389D01*
X27550Y154359D01*
X27548Y154328D01*
Y154306D01*
X27550Y154297D01*
X27552Y154285D01*
X27556Y154255D01*
X27562Y154222D01*
X27571Y154185D01*
X27585Y154149D01*
X27605Y154114D01*
Y154112D01*
X27607Y154110D01*
X27615Y154098D01*
X27628Y154083D01*
X27646Y154063D01*
X27667Y154044D01*
X27695Y154022D01*
X27724Y154004D01*
X27760Y153989D01*
X27762D01*
X27764Y153987D01*
X27769Y153985D01*
X27779Y153983D01*
X27789Y153981D01*
X27803Y153977D01*
X27818Y153975D01*
X27836Y153971D01*
X27858Y153967D01*
X27881Y153965D01*
X27907Y153961D01*
X27934Y153959D01*
X27965Y153957D01*
X28001Y153955D01*
X28036Y153953D01*
X28075D01*
X29808D01*
Y153620D01*
X28095D01*
X28091D01*
X28081D01*
X28065D01*
X28042Y153622D01*
X28016D01*
X27985Y153624D01*
X27952Y153626D01*
X27914Y153630D01*
X27877Y153634D01*
X27836Y153638D01*
X27756Y153652D01*
X27714Y153661D01*
X27675Y153671D01*
X27640Y153683D01*
X27605Y153697D01*
X27603D01*
X27597Y153701D01*
X27589Y153705D01*
X27577Y153710D01*
X27562Y153720D01*
X27546Y153730D01*
X27507Y153755D01*
X27487Y153771D01*
X27466Y153789D01*
X27442Y153810D01*
X27420Y153832D01*
X27399Y153855D01*
X27379Y153881D01*
X27360Y153910D01*
X27342Y153940D01*
Y153942D01*
X27338Y153948D01*
X27334Y153955D01*
X27328Y153969D01*
X27321Y153985D01*
X27313Y154004D01*
X27305Y154026D01*
X27297Y154050D01*
X27289Y154077D01*
X27281Y154106D01*
X27273Y154138D01*
X27266Y154173D01*
X27260Y154208D01*
X27256Y154245D01*
X27254Y154285D01*
X27252Y154326D01*
Y154340D01*
X27254Y154357D01*
X27256Y154381D01*
X27258Y154408D01*
X27262Y154439D01*
X27268Y154475D01*
X27275Y154514D01*
X27285Y154553D01*
X27297Y154594D01*
X27313Y154638D01*
X27332Y154681D01*
X27354Y154722D01*
X27377Y154761D01*
X27407Y154798D01*
X27440Y154833D01*
X27442Y154835D01*
X27450Y154841D01*
X27460Y154849D01*
X27475Y154861D01*
X27495Y154873D01*
X27520Y154888D01*
X27550Y154904D01*
X27583Y154920D01*
X27620Y154935D01*
X27662Y154951D01*
X27709Y154965D01*
X27760Y154977D01*
X27814Y154988D01*
X27873Y154994D01*
X27938Y155000D01*
X28007D01*
X28048Y154700D01*
D02*
G37*
G36*
X29188Y152962D02*
X29192Y152954D01*
X29198Y152940D01*
X29208Y152922D01*
X29220Y152899D01*
X29234Y152874D01*
X29251Y152844D01*
X29269Y152813D01*
X29288Y152777D01*
X29312Y152742D01*
X29361Y152666D01*
X29418Y152589D01*
X29480Y152515D01*
X29482Y152513D01*
X29488Y152507D01*
X29498Y152497D01*
X29510Y152483D01*
X29526Y152468D01*
X29543Y152448D01*
X29565Y152429D01*
X29588Y152407D01*
X29639Y152362D01*
X29696Y152317D01*
X29757Y152276D01*
X29786Y152256D01*
X29818Y152240D01*
Y152041D01*
X27295D01*
Y152348D01*
X29259D01*
X29257Y152350D01*
X29255Y152354D01*
X29249Y152360D01*
X29241Y152368D01*
X29232Y152380D01*
X29220Y152393D01*
X29208Y152409D01*
X29192Y152427D01*
X29177Y152446D01*
X29161Y152470D01*
X29143Y152493D01*
X29126Y152519D01*
X29087Y152577D01*
X29047Y152642D01*
X29045Y152644D01*
X29043Y152650D01*
X29037Y152660D01*
X29030Y152672D01*
X29022Y152689D01*
X29012Y152707D01*
X29000Y152728D01*
X28989Y152750D01*
X28963Y152801D01*
X28936Y152854D01*
X28910Y152911D01*
X28888Y152966D01*
X29186D01*
X29188Y152962D01*
D02*
G37*
G36*
X225346Y43003D02*
X223382D01*
X223384Y43001D01*
X223386Y42997D01*
X223392Y42991D01*
X223399Y42983D01*
X223409Y42972D01*
X223421Y42958D01*
X223433Y42942D01*
X223448Y42924D01*
X223464Y42905D01*
X223480Y42881D01*
X223498Y42858D01*
X223515Y42832D01*
X223554Y42774D01*
X223594Y42709D01*
X223595Y42707D01*
X223598Y42701D01*
X223603Y42691D01*
X223611Y42680D01*
X223619Y42662D01*
X223629Y42644D01*
X223641Y42623D01*
X223652Y42601D01*
X223678Y42550D01*
X223705Y42497D01*
X223731Y42440D01*
X223752Y42386D01*
X223454D01*
X223452Y42389D01*
X223448Y42397D01*
X223443Y42411D01*
X223433Y42429D01*
X223421Y42452D01*
X223407Y42478D01*
X223390Y42507D01*
X223372Y42538D01*
X223353Y42574D01*
X223329Y42609D01*
X223280Y42685D01*
X223223Y42762D01*
X223160Y42836D01*
X223159Y42838D01*
X223153Y42844D01*
X223143Y42854D01*
X223131Y42868D01*
X223115Y42883D01*
X223098Y42903D01*
X223076Y42922D01*
X223053Y42944D01*
X223002Y42989D01*
X222945Y43034D01*
X222884Y43075D01*
X222855Y43095D01*
X222823Y43111D01*
Y43311D01*
X225346D01*
Y43003D01*
D02*
G37*
G36*
X225540Y41776D02*
X225538Y41772D01*
X225536Y41764D01*
X225530Y41748D01*
X225522Y41729D01*
X225511Y41705D01*
X225499Y41676D01*
X225483Y41643D01*
X225465Y41607D01*
X225446Y41568D01*
X225422Y41525D01*
X225399Y41482D01*
X225369Y41435D01*
X225340Y41386D01*
X225307Y41337D01*
X225271Y41288D01*
X225234Y41237D01*
X225236Y41233D01*
X225240Y41225D01*
X225248Y41210D01*
X225258Y41188D01*
X225269Y41162D01*
X225283Y41131D01*
X225297Y41094D01*
X225310Y41055D01*
X225326Y41012D01*
X225340Y40962D01*
X225354Y40912D01*
X225365Y40859D01*
X225375Y40802D01*
X225383Y40743D01*
X225387Y40682D01*
X225389Y40620D01*
Y40604D01*
X225387Y40586D01*
Y40563D01*
X225383Y40531D01*
X225381Y40496D01*
X225375Y40457D01*
X225369Y40414D01*
X225360Y40369D01*
X225350Y40318D01*
X225336Y40267D01*
X225320Y40214D01*
X225301Y40161D01*
X225279Y40106D01*
X225256Y40053D01*
X225226Y40000D01*
X225224Y39996D01*
X225218Y39988D01*
X225209Y39975D01*
X225195Y39955D01*
X225179Y39932D01*
X225158Y39904D01*
X225134Y39875D01*
X225107Y39843D01*
X225075Y39810D01*
X225040Y39775D01*
X225003Y39740D01*
X224962Y39704D01*
X224917Y39669D01*
X224869Y39636D01*
X224819Y39604D01*
X224764Y39575D01*
X224760Y39573D01*
X224750Y39569D01*
X224734Y39561D01*
X224711Y39551D01*
X224683Y39540D01*
X224650Y39528D01*
X224611Y39514D01*
X224568Y39500D01*
X224519Y39487D01*
X224468Y39473D01*
X224413Y39461D01*
X224354Y39449D01*
X224291Y39440D01*
X224227Y39432D01*
X224160Y39428D01*
X224091Y39426D01*
X224090D01*
X224088D01*
X224082D01*
X224076D01*
X224054Y39428D01*
X224029D01*
X223995Y39430D01*
X223958Y39434D01*
X223915Y39438D01*
X223868Y39445D01*
X223817Y39453D01*
X223762Y39463D01*
X223707Y39475D01*
X223649Y39489D01*
X223590Y39506D01*
X223531Y39526D01*
X223472Y39549D01*
X223415Y39575D01*
X223411Y39577D01*
X223401Y39583D01*
X223386Y39590D01*
X223364Y39602D01*
X223339Y39618D01*
X223309Y39638D01*
X223278Y39659D01*
X223243Y39685D01*
X223205Y39714D01*
X223168Y39745D01*
X223129Y39781D01*
X223090Y39820D01*
X223053Y39861D01*
X223015Y39906D01*
X222982Y39953D01*
X222951Y40004D01*
X222949Y40008D01*
X222943Y40016D01*
X222935Y40031D01*
X222925Y40053D01*
X222914Y40079D01*
X222900Y40110D01*
X222886Y40147D01*
X222870Y40186D01*
X222855Y40231D01*
X222841Y40279D01*
X222827Y40329D01*
X222815Y40384D01*
X222806Y40441D01*
X222796Y40502D01*
X222792Y40563D01*
X222790Y40627D01*
Y40643D01*
X222792Y40661D01*
Y40686D01*
X222796Y40716D01*
X222798Y40753D01*
X222804Y40792D01*
X222812Y40835D01*
X222819Y40882D01*
X222831Y40933D01*
X222845Y40984D01*
X222861Y41037D01*
X222880Y41092D01*
X222902Y41147D01*
X222927Y41200D01*
X222957Y41253D01*
X222958Y41256D01*
X222964Y41264D01*
X222974Y41280D01*
X222986Y41300D01*
X223004Y41321D01*
X223025Y41349D01*
X223049Y41378D01*
X223076Y41411D01*
X223108Y41445D01*
X223141Y41480D01*
X223180Y41515D01*
X223221Y41550D01*
X223266Y41586D01*
X223313Y41619D01*
X223364Y41651D01*
X223419Y41680D01*
X223423Y41682D01*
X223433Y41686D01*
X223448Y41694D01*
X223472Y41703D01*
X223499Y41713D01*
X223533Y41727D01*
X223572Y41741D01*
X223615Y41754D01*
X223662Y41768D01*
X223713Y41780D01*
X223768Y41794D01*
X223827Y41803D01*
X223889Y41813D01*
X223954Y41821D01*
X224021Y41825D01*
X224090Y41827D01*
X224093D01*
X224103D01*
X224119D01*
X224142Y41825D01*
X224168D01*
X224201Y41821D01*
X224236Y41819D01*
X224276Y41815D01*
X224317Y41809D01*
X224362Y41803D01*
X224456Y41786D01*
X224505Y41776D01*
X224552Y41762D01*
X224601Y41748D01*
X224648Y41731D01*
X224650Y41729D01*
X224660Y41727D01*
X224672Y41721D01*
X224689Y41713D01*
X224711Y41703D01*
X224736Y41692D01*
X224764Y41676D01*
X224795Y41660D01*
X224826Y41641D01*
X224862Y41621D01*
X224897Y41598D01*
X224934Y41572D01*
X224972Y41543D01*
X225009Y41513D01*
X225044Y41482D01*
X225079Y41447D01*
X225081Y41449D01*
X225087Y41456D01*
X225095Y41470D01*
X225105Y41486D01*
X225118Y41505D01*
X225134Y41531D01*
X225150Y41556D01*
X225167Y41588D01*
X225187Y41619D01*
X225205Y41652D01*
X225244Y41725D01*
X225279Y41799D01*
X225297Y41837D01*
X225310Y41874D01*
X225540Y41776D01*
D02*
G37*
G36*
X144931Y182998D02*
X144954Y182996D01*
X144983Y182994D01*
X145017Y182990D01*
X145054Y182984D01*
X145095Y182976D01*
X145140Y182967D01*
X145185Y182953D01*
X145230Y182937D01*
X145277Y182920D01*
X145324Y182898D01*
X145371Y182873D01*
X145415Y182843D01*
X145458Y182810D01*
X145460Y182808D01*
X145467Y182800D01*
X145477Y182790D01*
X145491Y182775D01*
X145509Y182755D01*
X145528Y182731D01*
X145548Y182706D01*
X145569Y182675D01*
X145591Y182639D01*
X145613Y182600D01*
X145632Y182559D01*
X145652Y182514D01*
X145669Y182465D01*
X145683Y182414D01*
X145695Y182359D01*
X145703Y182300D01*
X145379Y182273D01*
Y182275D01*
X145377Y182283D01*
X145375Y182296D01*
X145371Y182312D01*
X145368Y182332D01*
X145362Y182353D01*
X145354Y182379D01*
X145346Y182406D01*
X145324Y182465D01*
X145295Y182524D01*
X145277Y182553D01*
X145260Y182581D01*
X145238Y182606D01*
X145215Y182630D01*
X145213Y182632D01*
X145209Y182635D01*
X145201Y182641D01*
X145191Y182647D01*
X145179Y182657D01*
X145164Y182667D01*
X145146Y182677D01*
X145126Y182688D01*
X145103Y182700D01*
X145079Y182710D01*
X145025Y182729D01*
X144995Y182735D01*
X144964Y182741D01*
X144931Y182745D01*
X144897Y182747D01*
X144887D01*
X144876Y182745D01*
X144860D01*
X144840Y182741D01*
X144817Y182737D01*
X144793Y182734D01*
X144766Y182726D01*
X144736Y182718D01*
X144705Y182706D01*
X144674Y182692D01*
X144642Y182677D01*
X144611Y182657D01*
X144580Y182635D01*
X144548Y182610D01*
X144519Y182581D01*
X144517Y182579D01*
X144513Y182573D01*
X144505Y182563D01*
X144495Y182549D01*
X144484Y182534D01*
X144470Y182512D01*
X144456Y182489D01*
X144440Y182461D01*
X144427Y182432D01*
X144413Y182398D01*
X144399Y182361D01*
X144388Y182320D01*
X144378Y182279D01*
X144370Y182234D01*
X144366Y182185D01*
X144364Y182134D01*
Y182130D01*
Y182122D01*
Y182108D01*
X144366Y182091D01*
X144368Y182067D01*
X144372Y182042D01*
X144376Y182014D01*
X144382Y181983D01*
X144389Y181949D01*
X144401Y181916D01*
X144413Y181881D01*
X144427Y181846D01*
X144444Y181812D01*
X144464Y181779D01*
X144488Y181746D01*
X144513Y181716D01*
X144515Y181714D01*
X144519Y181710D01*
X144529Y181702D01*
X144540Y181693D01*
X144554Y181681D01*
X144572Y181667D01*
X144593Y181653D01*
X144617Y181640D01*
X144642Y181626D01*
X144672Y181612D01*
X144705Y181599D01*
X144738Y181587D01*
X144776Y181577D01*
X144815Y181569D01*
X144856Y181565D01*
X144901Y181563D01*
X144915D01*
X144927Y181565D01*
X144940D01*
X144956Y181567D01*
X144991Y181571D01*
X145032Y181581D01*
X145079Y181593D01*
X145126Y181608D01*
X145172Y181632D01*
X145174D01*
X145177Y181636D01*
X145183Y181638D01*
X145191Y181644D01*
X145213Y181659D01*
X145240Y181679D01*
X145270Y181704D01*
X145301Y181734D01*
X145330Y181767D01*
X145358Y181806D01*
X145648Y181769D01*
X145405Y180477D01*
X144154D01*
Y180772D01*
X145160D01*
X145295Y181450D01*
X145293Y181448D01*
X145285Y181442D01*
X145272Y181434D01*
X145256Y181424D01*
X145234Y181412D01*
X145211Y181399D01*
X145181Y181385D01*
X145150Y181369D01*
X145117Y181356D01*
X145079Y181342D01*
X145040Y181328D01*
X144999Y181316D01*
X144956Y181305D01*
X144911Y181297D01*
X144866Y181293D01*
X144819Y181291D01*
X144805D01*
X144787Y181293D01*
X144764Y181295D01*
X144735Y181299D01*
X144703Y181303D01*
X144666Y181310D01*
X144627Y181320D01*
X144583Y181332D01*
X144538Y181348D01*
X144493Y181365D01*
X144446Y181387D01*
X144399Y181414D01*
X144352Y181444D01*
X144307Y181479D01*
X144264Y181520D01*
X144262Y181522D01*
X144254Y181530D01*
X144243Y181544D01*
X144229Y181561D01*
X144211Y181583D01*
X144192Y181610D01*
X144172Y181642D01*
X144150Y181679D01*
X144129Y181718D01*
X144109Y181763D01*
X144090Y181812D01*
X144072Y181863D01*
X144058Y181918D01*
X144046Y181979D01*
X144039Y182040D01*
X144037Y182106D01*
Y182110D01*
Y182122D01*
X144039Y182140D01*
X144041Y182163D01*
X144043Y182193D01*
X144046Y182228D01*
X144054Y182265D01*
X144062Y182308D01*
X144072Y182353D01*
X144086Y182400D01*
X144101Y182449D01*
X144121Y182498D01*
X144144Y182549D01*
X144170Y182600D01*
X144201Y182649D01*
X144237Y182696D01*
X144239Y182700D01*
X144248Y182710D01*
X144262Y182724D01*
X144282Y182743D01*
X144305Y182767D01*
X144335Y182792D01*
X144370Y182820D01*
X144409Y182847D01*
X144454Y182877D01*
X144503Y182904D01*
X144558Y182930D01*
X144617Y182953D01*
X144680Y182973D01*
X144748Y182986D01*
X144821Y182996D01*
X144897Y183000D01*
X144913D01*
X144931Y182998D01*
D02*
G37*
G36*
X146857D02*
X146881Y182996D01*
X146908Y182994D01*
X146940Y182990D01*
X146975Y182984D01*
X147014Y182976D01*
X147053Y182967D01*
X147094Y182955D01*
X147137Y182939D01*
X147180Y182920D01*
X147222Y182898D01*
X147261Y182875D01*
X147298Y182845D01*
X147333Y182812D01*
X147335Y182810D01*
X147341Y182802D01*
X147349Y182792D01*
X147361Y182777D01*
X147373Y182757D01*
X147388Y182731D01*
X147404Y182702D01*
X147420Y182669D01*
X147435Y182632D01*
X147451Y182590D01*
X147465Y182543D01*
X147476Y182492D01*
X147488Y182438D01*
X147494Y182379D01*
X147500Y182314D01*
Y182245D01*
X147200Y182204D01*
Y182208D01*
Y182216D01*
X147198Y182232D01*
X147196Y182251D01*
X147194Y182275D01*
X147192Y182300D01*
X147188Y182330D01*
X147183Y182361D01*
X147169Y182428D01*
X147151Y182492D01*
X147139Y182522D01*
X147126Y182551D01*
X147110Y182577D01*
X147094Y182598D01*
X147092Y182600D01*
X147090Y182602D01*
X147084Y182608D01*
X147077Y182614D01*
X147067Y182622D01*
X147055Y182632D01*
X147041Y182641D01*
X147026Y182651D01*
X147006Y182661D01*
X146986Y182671D01*
X146941Y182688D01*
X146888Y182700D01*
X146859Y182702D01*
X146828Y182704D01*
X146806D01*
X146796Y182702D01*
X146785Y182700D01*
X146755Y182696D01*
X146722Y182690D01*
X146685Y182680D01*
X146649Y182667D01*
X146614Y182647D01*
X146612D01*
X146610Y182645D01*
X146598Y182637D01*
X146583Y182624D01*
X146563Y182606D01*
X146544Y182585D01*
X146522Y182557D01*
X146504Y182528D01*
X146489Y182492D01*
Y182490D01*
X146487Y182489D01*
X146485Y182483D01*
X146483Y182473D01*
X146481Y182463D01*
X146477Y182449D01*
X146475Y182434D01*
X146471Y182416D01*
X146467Y182394D01*
X146465Y182371D01*
X146461Y182345D01*
X146459Y182318D01*
X146457Y182287D01*
X146455Y182251D01*
X146453Y182216D01*
Y182177D01*
Y180444D01*
X146120D01*
Y182157D01*
Y182161D01*
Y182171D01*
Y182187D01*
X146122Y182210D01*
Y182236D01*
X146124Y182267D01*
X146126Y182300D01*
X146130Y182338D01*
X146134Y182375D01*
X146138Y182416D01*
X146151Y182496D01*
X146161Y182537D01*
X146171Y182577D01*
X146183Y182612D01*
X146197Y182647D01*
Y182649D01*
X146201Y182655D01*
X146204Y182663D01*
X146210Y182675D01*
X146220Y182690D01*
X146230Y182706D01*
X146255Y182745D01*
X146271Y182765D01*
X146289Y182786D01*
X146310Y182810D01*
X146332Y182832D01*
X146355Y182853D01*
X146381Y182873D01*
X146410Y182892D01*
X146440Y182910D01*
X146442D01*
X146448Y182914D01*
X146455Y182918D01*
X146469Y182924D01*
X146485Y182931D01*
X146504Y182939D01*
X146526Y182947D01*
X146549Y182955D01*
X146577Y182963D01*
X146606Y182971D01*
X146638Y182978D01*
X146673Y182986D01*
X146708Y182992D01*
X146745Y182996D01*
X146785Y182998D01*
X146826Y183000D01*
X146839D01*
X146857Y182998D01*
D02*
G37*
G36*
X172294Y46850D02*
X171986D01*
Y48814D01*
X171984Y48812D01*
X171980Y48810D01*
X171975Y48805D01*
X171967Y48797D01*
X171955Y48787D01*
X171941Y48775D01*
X171925Y48763D01*
X171908Y48748D01*
X171888Y48732D01*
X171865Y48716D01*
X171841Y48699D01*
X171816Y48681D01*
X171757Y48642D01*
X171692Y48603D01*
X171690Y48601D01*
X171685Y48599D01*
X171675Y48593D01*
X171663Y48585D01*
X171645Y48577D01*
X171628Y48567D01*
X171606Y48555D01*
X171584Y48544D01*
X171534Y48518D01*
X171481Y48491D01*
X171424Y48465D01*
X171369Y48444D01*
Y48742D01*
X171373Y48744D01*
X171381Y48748D01*
X171394Y48753D01*
X171412Y48763D01*
X171435Y48775D01*
X171461Y48789D01*
X171490Y48806D01*
X171522Y48824D01*
X171557Y48844D01*
X171592Y48867D01*
X171669Y48916D01*
X171745Y48973D01*
X171820Y49036D01*
X171822Y49038D01*
X171827Y49044D01*
X171837Y49053D01*
X171851Y49065D01*
X171867Y49081D01*
X171886Y49099D01*
X171906Y49120D01*
X171927Y49143D01*
X171973Y49194D01*
X172018Y49251D01*
X172059Y49312D01*
X172078Y49341D01*
X172094Y49373D01*
X172294D01*
Y46850D01*
D02*
G37*
G36*
X169624Y47146D02*
X170861D01*
Y46850D01*
X169291D01*
Y49363D01*
X169624D01*
Y47146D01*
D02*
G37*
%LPC*%
G36*
X248939Y82560D02*
X248937D01*
X248932D01*
X248922D01*
X248910Y82559D01*
X248894Y82557D01*
X248877Y82555D01*
X248857Y82551D01*
X248835Y82547D01*
X248790Y82533D01*
X248765Y82523D01*
X248741Y82512D01*
X248716Y82500D01*
X248692Y82484D01*
X248669Y82466D01*
X248647Y82447D01*
X248645Y82445D01*
X248643Y82441D01*
X248638Y82435D01*
X248630Y82425D01*
X248622Y82415D01*
X248612Y82402D01*
X248602Y82386D01*
X248592Y82367D01*
X248581Y82347D01*
X248571Y82325D01*
X248561Y82300D01*
X248553Y82274D01*
X248545Y82245D01*
X248540Y82215D01*
X248538Y82184D01*
X248536Y82151D01*
Y82133D01*
X248538Y82121D01*
X248540Y82106D01*
X248541Y82088D01*
X248545Y82069D01*
X248549Y82047D01*
X248563Y82002D01*
X248573Y81976D01*
X248583Y81953D01*
X248596Y81927D01*
X248610Y81904D01*
X248628Y81880D01*
X248647Y81859D01*
X248649Y81857D01*
X248653Y81853D01*
X248659Y81849D01*
X248667Y81841D01*
X248679Y81833D01*
X248691Y81824D01*
X248706Y81812D01*
X248724Y81802D01*
X248765Y81780D01*
X248812Y81763D01*
X248837Y81755D01*
X248865Y81749D01*
X248894Y81747D01*
X248924Y81745D01*
X248926D01*
X248932D01*
X248939D01*
X248951Y81747D01*
X248967Y81749D01*
X248983Y81751D01*
X249002Y81755D01*
X249022Y81759D01*
X249067Y81774D01*
X249090Y81782D01*
X249114Y81794D01*
X249139Y81808D01*
X249163Y81824D01*
X249186Y81841D01*
X249208Y81863D01*
X249210Y81865D01*
X249214Y81869D01*
X249220Y81875D01*
X249226Y81884D01*
X249235Y81894D01*
X249245Y81908D01*
X249255Y81924D01*
X249267Y81943D01*
X249278Y81963D01*
X249288Y81984D01*
X249308Y82033D01*
X249314Y82061D01*
X249320Y82090D01*
X249324Y82121D01*
X249325Y82153D01*
Y82170D01*
X249324Y82182D01*
X249322Y82198D01*
X249320Y82215D01*
X249316Y82235D01*
X249312Y82257D01*
X249298Y82304D01*
X249288Y82327D01*
X249278Y82353D01*
X249265Y82376D01*
X249249Y82402D01*
X249231Y82425D01*
X249212Y82447D01*
X249210Y82449D01*
X249206Y82451D01*
X249200Y82457D01*
X249192Y82464D01*
X249181Y82472D01*
X249167Y82482D01*
X249153Y82494D01*
X249135Y82504D01*
X249096Y82525D01*
X249049Y82543D01*
X249024Y82551D01*
X248996Y82555D01*
X248969Y82559D01*
X248939Y82560D01*
D02*
G37*
G36*
X247779Y82662D02*
X247777D01*
X247773D01*
X247765D01*
X247758Y82661D01*
X247746D01*
X247732Y82658D01*
X247699Y82655D01*
X247659Y82647D01*
X247616Y82637D01*
X247571Y82621D01*
X247524Y82602D01*
X247522D01*
X247518Y82598D01*
X247513Y82596D01*
X247505Y82590D01*
X247481Y82576D01*
X247454Y82555D01*
X247422Y82529D01*
X247391Y82496D01*
X247360Y82459D01*
X247332Y82415D01*
Y82414D01*
X247330Y82410D01*
X247326Y82404D01*
X247322Y82394D01*
X247317Y82382D01*
X247311Y82368D01*
X247305Y82353D01*
X247299Y82335D01*
X247287Y82296D01*
X247275Y82251D01*
X247268Y82202D01*
X247266Y82151D01*
Y82141D01*
X247268Y82129D01*
Y82114D01*
X247270Y82096D01*
X247273Y82073D01*
X247277Y82049D01*
X247283Y82021D01*
X247291Y81994D01*
X247301Y81965D01*
X247311Y81933D01*
X247324Y81904D01*
X247342Y81873D01*
X247360Y81843D01*
X247381Y81814D01*
X247407Y81786D01*
X247409Y81784D01*
X247413Y81780D01*
X247422Y81773D01*
X247432Y81765D01*
X247446Y81753D01*
X247463Y81741D01*
X247483Y81727D01*
X247507Y81714D01*
X247530Y81702D01*
X247558Y81688D01*
X247587Y81677D01*
X247620Y81665D01*
X247654Y81657D01*
X247691Y81649D01*
X247728Y81645D01*
X247769Y81643D01*
X247771D01*
X247779D01*
X247791D01*
X247807Y81645D01*
X247826Y81647D01*
X247848Y81651D01*
X247873Y81655D01*
X247899Y81661D01*
X247928Y81669D01*
X247957Y81681D01*
X247989Y81692D01*
X248018Y81706D01*
X248049Y81724D01*
X248081Y81743D01*
X248110Y81767D01*
X248138Y81792D01*
X248140Y81794D01*
X248144Y81798D01*
X248151Y81808D01*
X248161Y81818D01*
X248171Y81833D01*
X248185Y81851D01*
X248199Y81871D01*
X248212Y81894D01*
X248226Y81920D01*
X248238Y81947D01*
X248251Y81976D01*
X248261Y82010D01*
X248271Y82045D01*
X248279Y82080D01*
X248283Y82120D01*
X248285Y82161D01*
Y82182D01*
X248283Y82198D01*
X248281Y82215D01*
X248277Y82237D01*
X248273Y82263D01*
X248267Y82288D01*
X248259Y82315D01*
X248250Y82345D01*
X248238Y82374D01*
X248224Y82406D01*
X248206Y82435D01*
X248187Y82464D01*
X248165Y82494D01*
X248140Y82521D01*
X248138Y82523D01*
X248134Y82527D01*
X248124Y82535D01*
X248114Y82543D01*
X248100Y82555D01*
X248083Y82566D01*
X248063Y82578D01*
X248040Y82592D01*
X248016Y82606D01*
X247989Y82617D01*
X247957Y82629D01*
X247926Y82641D01*
X247893Y82649D01*
X247857Y82657D01*
X247818Y82661D01*
X247779Y82662D01*
D02*
G37*
G36*
X22971Y101254D02*
X22969D01*
X22965D01*
X22957D01*
X22947Y101252D01*
X22936D01*
X22920Y101250D01*
X22887Y101244D01*
X22849Y101237D01*
X22808Y101223D01*
X22767Y101205D01*
X22726Y101180D01*
X22724D01*
X22722Y101176D01*
X22708Y101166D01*
X22691Y101150D01*
X22669Y101127D01*
X22646Y101099D01*
X22620Y101064D01*
X22598Y101025D01*
X22581Y100980D01*
Y100978D01*
X22579Y100974D01*
X22577Y100966D01*
X22575Y100956D01*
X22571Y100943D01*
X22567Y100927D01*
X22563Y100907D01*
X22559Y100886D01*
X22555Y100862D01*
X22551Y100835D01*
X22547Y100803D01*
X22544Y100772D01*
X22542Y100737D01*
X22540Y100698D01*
X22538Y100656D01*
Y100033D01*
X23402D01*
Y100713D01*
X23400Y100747D01*
Y100784D01*
X23396Y100821D01*
X23394Y100856D01*
X23392Y100870D01*
X23390Y100884D01*
Y100886D01*
X23388Y100890D01*
Y100896D01*
X23386Y100903D01*
X23382Y100925D01*
X23375Y100951D01*
X23365Y100982D01*
X23353Y101013D01*
X23339Y101047D01*
X23324Y101076D01*
X23322Y101080D01*
X23314Y101090D01*
X23304Y101103D01*
X23288Y101121D01*
X23267Y101141D01*
X23243Y101162D01*
X23216Y101184D01*
X23182Y101203D01*
X23181D01*
X23179Y101205D01*
X23173Y101207D01*
X23167Y101211D01*
X23147Y101219D01*
X23122Y101229D01*
X23090Y101239D01*
X23055Y101246D01*
X23014Y101252D01*
X22971Y101254D01*
D02*
G37*
G36*
X21869Y101148D02*
X21867D01*
X21863D01*
X21858D01*
X21848D01*
X21838Y101146D01*
X21824Y101145D01*
X21795Y101141D01*
X21760Y101133D01*
X21722Y101123D01*
X21685Y101107D01*
X21648Y101088D01*
X21646D01*
X21644Y101086D01*
X21632Y101076D01*
X21617Y101062D01*
X21595Y101043D01*
X21573Y101019D01*
X21552Y100990D01*
X21532Y100954D01*
X21517Y100915D01*
Y100913D01*
X21515Y100909D01*
X21513Y100903D01*
X21511Y100894D01*
X21509Y100882D01*
X21505Y100866D01*
X21503Y100849D01*
X21499Y100827D01*
X21495Y100802D01*
X21493Y100774D01*
X21489Y100743D01*
X21487Y100709D01*
X21485Y100670D01*
X21483Y100629D01*
X21481Y100584D01*
Y100033D01*
X22242D01*
Y100631D01*
X22240Y100651D01*
Y100674D01*
X22238Y100698D01*
X22236Y100751D01*
X22230Y100802D01*
X22224Y100850D01*
X22218Y100872D01*
X22214Y100892D01*
Y100894D01*
X22212Y100898D01*
X22210Y100903D01*
X22206Y100913D01*
X22197Y100935D01*
X22183Y100964D01*
X22167Y100996D01*
X22146Y101027D01*
X22118Y101056D01*
X22089Y101084D01*
X22087D01*
X22085Y101086D01*
X22073Y101094D01*
X22054Y101103D01*
X22028Y101117D01*
X21997Y101129D01*
X21960Y101139D01*
X21916Y101146D01*
X21869Y101148D01*
D02*
G37*
G36*
X63705Y100385D02*
X63703D01*
X63695D01*
X63682Y100383D01*
X63666D01*
X63644Y100381D01*
X63621Y100377D01*
X63595Y100373D01*
X63566Y100368D01*
X63537Y100360D01*
X63505Y100350D01*
X63472Y100338D01*
X63441Y100324D01*
X63407Y100309D01*
X63376Y100289D01*
X63345Y100268D01*
X63315Y100242D01*
X63313Y100240D01*
X63309Y100236D01*
X63301Y100226D01*
X63292Y100217D01*
X63280Y100201D01*
X63268Y100185D01*
X63254Y100166D01*
X63241Y100142D01*
X63227Y100119D01*
X63213Y100091D01*
X63201Y100062D01*
X63190Y100030D01*
X63180Y99995D01*
X63172Y99960D01*
X63168Y99923D01*
X63166Y99883D01*
Y99874D01*
X63168Y99862D01*
Y99848D01*
X63170Y99831D01*
X63174Y99809D01*
X63178Y99785D01*
X63186Y99760D01*
X63194Y99733D01*
X63203Y99703D01*
X63215Y99676D01*
X63229Y99644D01*
X63247Y99615D01*
X63266Y99588D01*
X63290Y99560D01*
X63315Y99533D01*
X63317Y99531D01*
X63323Y99527D01*
X63331Y99519D01*
X63343Y99511D01*
X63358Y99501D01*
X63378Y99489D01*
X63399Y99476D01*
X63423Y99462D01*
X63452Y99450D01*
X63484Y99436D01*
X63517Y99425D01*
X63554Y99415D01*
X63593Y99407D01*
X63636Y99399D01*
X63682Y99395D01*
X63731Y99393D01*
X63735D01*
X63742D01*
X63756D01*
X63776Y99395D01*
X63797Y99397D01*
X63823Y99401D01*
X63852Y99405D01*
X63884Y99411D01*
X63917Y99419D01*
X63952Y99429D01*
X63985Y99439D01*
X64023Y99452D01*
X64056Y99470D01*
X64091Y99488D01*
X64123Y99509D01*
X64154Y99535D01*
X64156Y99537D01*
X64160Y99540D01*
X64168Y99548D01*
X64179Y99560D01*
X64191Y99574D01*
X64203Y99589D01*
X64219Y99609D01*
X64232Y99631D01*
X64246Y99654D01*
X64262Y99680D01*
X64274Y99707D01*
X64287Y99738D01*
X64297Y99770D01*
X64305Y99803D01*
X64309Y99838D01*
X64311Y99876D01*
Y99885D01*
X64309Y99895D01*
Y99911D01*
X64305Y99928D01*
X64301Y99948D01*
X64297Y99972D01*
X64289Y99997D01*
X64281Y100024D01*
X64270Y100054D01*
X64256Y100083D01*
X64240Y100113D01*
X64221Y100144D01*
X64197Y100175D01*
X64172Y100205D01*
X64142Y100234D01*
X64140Y100236D01*
X64134Y100240D01*
X64125Y100248D01*
X64111Y100258D01*
X64095Y100270D01*
X64076Y100281D01*
X64052Y100295D01*
X64025Y100309D01*
X63995Y100324D01*
X63962Y100338D01*
X63925Y100350D01*
X63887Y100362D01*
X63844Y100372D01*
X63801Y100379D01*
X63754Y100383D01*
X63705Y100385D01*
D02*
G37*
G36*
X23014Y41154D02*
X23012D01*
X23008D01*
X23000D01*
X22990Y41152D01*
X22979D01*
X22963Y41150D01*
X22930Y41144D01*
X22892Y41137D01*
X22851Y41123D01*
X22810Y41105D01*
X22769Y41080D01*
X22767D01*
X22765Y41076D01*
X22751Y41066D01*
X22734Y41050D01*
X22712Y41027D01*
X22689Y40999D01*
X22663Y40964D01*
X22642Y40925D01*
X22624Y40880D01*
Y40878D01*
X22622Y40874D01*
X22620Y40866D01*
X22618Y40856D01*
X22614Y40843D01*
X22610Y40827D01*
X22606Y40807D01*
X22602Y40786D01*
X22598Y40762D01*
X22594Y40735D01*
X22591Y40703D01*
X22587Y40672D01*
X22585Y40637D01*
X22583Y40598D01*
X22581Y40556D01*
Y39933D01*
X23445D01*
Y40613D01*
X23443Y40647D01*
Y40684D01*
X23439Y40721D01*
X23437Y40756D01*
X23435Y40770D01*
X23433Y40784D01*
Y40786D01*
X23431Y40790D01*
Y40796D01*
X23429Y40803D01*
X23426Y40825D01*
X23418Y40850D01*
X23408Y40882D01*
X23396Y40913D01*
X23382Y40946D01*
X23367Y40976D01*
X23365Y40980D01*
X23357Y40990D01*
X23347Y41003D01*
X23332Y41021D01*
X23310Y41041D01*
X23286Y41062D01*
X23259Y41084D01*
X23226Y41103D01*
X23224D01*
X23222Y41105D01*
X23216Y41107D01*
X23210Y41111D01*
X23190Y41119D01*
X23165Y41129D01*
X23133Y41139D01*
X23098Y41146D01*
X23057Y41152D01*
X23014Y41154D01*
D02*
G37*
G36*
X21912Y41048D02*
X21911D01*
X21907D01*
X21901D01*
X21891D01*
X21881Y41047D01*
X21867Y41045D01*
X21838Y41041D01*
X21803Y41033D01*
X21765Y41023D01*
X21728Y41007D01*
X21691Y40988D01*
X21689D01*
X21687Y40986D01*
X21675Y40976D01*
X21660Y40962D01*
X21638Y40943D01*
X21617Y40919D01*
X21595Y40890D01*
X21575Y40854D01*
X21560Y40815D01*
Y40813D01*
X21558Y40809D01*
X21556Y40803D01*
X21554Y40794D01*
X21552Y40782D01*
X21548Y40766D01*
X21546Y40749D01*
X21542Y40727D01*
X21538Y40701D01*
X21536Y40674D01*
X21532Y40643D01*
X21530Y40609D01*
X21528Y40570D01*
X21526Y40529D01*
X21524Y40484D01*
Y39933D01*
X22285D01*
Y40531D01*
X22283Y40551D01*
Y40574D01*
X22281Y40598D01*
X22279Y40651D01*
X22273Y40701D01*
X22267Y40751D01*
X22261Y40772D01*
X22257Y40792D01*
Y40794D01*
X22255Y40798D01*
X22253Y40803D01*
X22250Y40813D01*
X22240Y40835D01*
X22226Y40864D01*
X22210Y40896D01*
X22189Y40927D01*
X22161Y40956D01*
X22132Y40984D01*
X22130D01*
X22128Y40986D01*
X22116Y40994D01*
X22097Y41003D01*
X22071Y41017D01*
X22040Y41029D01*
X22003Y41039D01*
X21960Y41047D01*
X21912Y41048D01*
D02*
G37*
G36*
X65667Y23445D02*
X64987D01*
X64953Y23443D01*
X64916D01*
X64879Y23439D01*
X64844Y23437D01*
X64830Y23435D01*
X64816Y23433D01*
X64814D01*
X64810Y23431D01*
X64804D01*
X64797Y23429D01*
X64775Y23426D01*
X64749Y23418D01*
X64718Y23408D01*
X64687Y23396D01*
X64653Y23382D01*
X64624Y23367D01*
X64620Y23365D01*
X64610Y23357D01*
X64597Y23347D01*
X64579Y23332D01*
X64559Y23310D01*
X64538Y23286D01*
X64516Y23259D01*
X64497Y23226D01*
Y23224D01*
X64495Y23222D01*
X64493Y23216D01*
X64489Y23210D01*
X64481Y23190D01*
X64471Y23165D01*
X64461Y23133D01*
X64454Y23098D01*
X64448Y23057D01*
X64446Y23014D01*
Y23012D01*
Y23008D01*
Y23000D01*
X64448Y22990D01*
Y22979D01*
X64450Y22963D01*
X64455Y22930D01*
X64463Y22892D01*
X64477Y22851D01*
X64495Y22810D01*
X64520Y22769D01*
Y22767D01*
X64524Y22765D01*
X64534Y22751D01*
X64550Y22734D01*
X64573Y22712D01*
X64601Y22689D01*
X64636Y22663D01*
X64675Y22642D01*
X64720Y22624D01*
X64722D01*
X64726Y22622D01*
X64734Y22620D01*
X64744Y22618D01*
X64757Y22614D01*
X64773Y22610D01*
X64793Y22606D01*
X64814Y22602D01*
X64838Y22598D01*
X64865Y22594D01*
X64897Y22591D01*
X64928Y22587D01*
X64963Y22585D01*
X65002Y22583D01*
X65043Y22581D01*
X65667D01*
Y23445D01*
D02*
G37*
G36*
Y22285D02*
X65069D01*
X65049Y22283D01*
X65026D01*
X65002Y22281D01*
X64949Y22279D01*
X64899Y22273D01*
X64850Y22267D01*
X64828Y22261D01*
X64808Y22257D01*
X64806D01*
X64802Y22255D01*
X64797Y22253D01*
X64787Y22250D01*
X64765Y22240D01*
X64736Y22226D01*
X64704Y22210D01*
X64673Y22189D01*
X64644Y22161D01*
X64616Y22132D01*
Y22130D01*
X64614Y22128D01*
X64606Y22116D01*
X64597Y22097D01*
X64583Y22071D01*
X64571Y22040D01*
X64561Y22003D01*
X64553Y21960D01*
X64552Y21912D01*
Y21911D01*
Y21907D01*
Y21901D01*
Y21891D01*
X64553Y21881D01*
X64556Y21867D01*
X64559Y21838D01*
X64567Y21803D01*
X64577Y21765D01*
X64593Y21728D01*
X64612Y21691D01*
Y21689D01*
X64614Y21687D01*
X64624Y21675D01*
X64638Y21660D01*
X64657Y21638D01*
X64681Y21617D01*
X64710Y21595D01*
X64746Y21575D01*
X64785Y21560D01*
X64787D01*
X64791Y21558D01*
X64797Y21556D01*
X64806Y21554D01*
X64818Y21552D01*
X64834Y21548D01*
X64851Y21546D01*
X64873Y21542D01*
X64899Y21538D01*
X64926Y21536D01*
X64957Y21532D01*
X64991Y21530D01*
X65030Y21528D01*
X65071Y21526D01*
X65116Y21524D01*
X65667D01*
Y22285D01*
D02*
G37*
G36*
X202868Y82362D02*
X202866D01*
X202860D01*
X202852D01*
X202841Y82360D01*
X202827D01*
X202809Y82358D01*
X202792Y82356D01*
X202770Y82354D01*
X202723Y82346D01*
X202672Y82334D01*
X202617Y82317D01*
X202562Y82295D01*
X202560D01*
X202556Y82291D01*
X202549Y82287D01*
X202539Y82283D01*
X202527Y82275D01*
X202513Y82268D01*
X202480Y82246D01*
X202445Y82219D01*
X202408Y82187D01*
X202372Y82150D01*
X202341Y82107D01*
Y82105D01*
X202337Y82101D01*
X202335Y82095D01*
X202329Y82085D01*
X202323Y82074D01*
X202317Y82062D01*
X202304Y82029D01*
X202290Y81991D01*
X202278Y81948D01*
X202270Y81899D01*
X202266Y81850D01*
Y81842D01*
X202268Y81831D01*
Y81817D01*
X202270Y81801D01*
X202274Y81782D01*
X202280Y81758D01*
X202286Y81735D01*
X202294Y81709D01*
X202306Y81682D01*
X202317Y81654D01*
X202333Y81625D01*
X202351Y81597D01*
X202372Y81568D01*
X202396Y81540D01*
X202423Y81513D01*
X202425Y81511D01*
X202431Y81507D01*
X202439Y81499D01*
X202453Y81491D01*
X202468Y81480D01*
X202488Y81468D01*
X202509Y81456D01*
X202535Y81442D01*
X202564Y81429D01*
X202598Y81417D01*
X202633Y81405D01*
X202670Y81393D01*
X202711Y81386D01*
X202756Y81378D01*
X202803Y81374D01*
X202852Y81372D01*
X202856D01*
X202864D01*
X202878D01*
X202896Y81374D01*
X202917Y81376D01*
X202943Y81380D01*
X202970Y81384D01*
X203001Y81389D01*
X203033Y81397D01*
X203066Y81405D01*
X203099Y81417D01*
X203135Y81431D01*
X203168Y81446D01*
X203201Y81466D01*
X203233Y81486D01*
X203262Y81511D01*
X203264Y81513D01*
X203268Y81517D01*
X203276Y81525D01*
X203286Y81537D01*
X203297Y81550D01*
X203309Y81566D01*
X203323Y81586D01*
X203339Y81607D01*
X203352Y81631D01*
X203366Y81658D01*
X203378Y81687D01*
X203390Y81717D01*
X203399Y81750D01*
X203407Y81785D01*
X203411Y81823D01*
X203413Y81862D01*
Y81881D01*
X203411Y81897D01*
X203409Y81915D01*
X203405Y81936D01*
X203401Y81960D01*
X203393Y81985D01*
X203385Y82013D01*
X203376Y82040D01*
X203364Y82070D01*
X203350Y82099D01*
X203333Y82130D01*
X203311Y82160D01*
X203290Y82189D01*
X203262Y82217D01*
X203260Y82219D01*
X203254Y82222D01*
X203246Y82230D01*
X203235Y82240D01*
X203219Y82250D01*
X203201Y82262D01*
X203180Y82275D01*
X203156Y82289D01*
X203129Y82303D01*
X203099Y82317D01*
X203068Y82328D01*
X203033Y82338D01*
X202995Y82348D01*
X202954Y82356D01*
X202913Y82360D01*
X202868Y82362D01*
D02*
G37*
G36*
X150287Y16558D02*
X149499Y15427D01*
X150287D01*
Y16558D01*
D02*
G37*
G36*
X224090Y41484D02*
X224085D01*
X224076D01*
X224060D01*
X224039Y41482D01*
X224011Y41480D01*
X223982Y41478D01*
X223946Y41476D01*
X223909Y41470D01*
X223868Y41466D01*
X223827Y41458D01*
X223737Y41441D01*
X223692Y41429D01*
X223646Y41415D01*
X223601Y41398D01*
X223558Y41380D01*
X223556Y41378D01*
X223549Y41376D01*
X223537Y41368D01*
X223521Y41360D01*
X223501Y41351D01*
X223480Y41337D01*
X223454Y41321D01*
X223427Y41304D01*
X223399Y41282D01*
X223370Y41260D01*
X223341Y41235D01*
X223311Y41208D01*
X223282Y41178D01*
X223254Y41147D01*
X223229Y41113D01*
X223203Y41076D01*
X223202Y41074D01*
X223198Y41066D01*
X223192Y41057D01*
X223184Y41041D01*
X223174Y41023D01*
X223162Y41000D01*
X223153Y40974D01*
X223139Y40945D01*
X223127Y40914D01*
X223117Y40880D01*
X223106Y40843D01*
X223096Y40804D01*
X223088Y40763D01*
X223082Y40720D01*
X223078Y40674D01*
X223076Y40629D01*
Y40614D01*
X223078Y40594D01*
X223080Y40567D01*
X223084Y40535D01*
X223090Y40498D01*
X223098Y40457D01*
X223108Y40412D01*
X223121Y40365D01*
X223139Y40316D01*
X223159Y40263D01*
X223184Y40212D01*
X223213Y40161D01*
X223247Y40108D01*
X223286Y40059D01*
X223331Y40012D01*
X223333Y40010D01*
X223343Y40002D01*
X223358Y39990D01*
X223378Y39975D01*
X223405Y39955D01*
X223439Y39935D01*
X223476Y39914D01*
X223521Y39890D01*
X223572Y39867D01*
X223629Y39845D01*
X223692Y39826D01*
X223758Y39806D01*
X223833Y39790D01*
X223913Y39779D01*
X223999Y39771D01*
X224091Y39769D01*
X224093D01*
X224097D01*
X224103D01*
X224113D01*
X224125Y39771D01*
X224138D01*
X224154D01*
X224172Y39773D01*
X224213Y39777D01*
X224260Y39783D01*
X224313Y39788D01*
X224370Y39798D01*
X224429Y39812D01*
X224491Y39828D01*
X224554Y39847D01*
X224615Y39871D01*
X224677Y39898D01*
X224736Y39930D01*
X224793Y39967D01*
X224844Y40010D01*
X224846Y40012D01*
X224856Y40022D01*
X224868Y40035D01*
X224885Y40053D01*
X224905Y40079D01*
X224926Y40106D01*
X224950Y40141D01*
X224973Y40178D01*
X224999Y40222D01*
X225022Y40269D01*
X225044Y40320D01*
X225064Y40374D01*
X225081Y40433D01*
X225093Y40494D01*
X225101Y40561D01*
X225105Y40629D01*
Y40647D01*
X225103Y40661D01*
Y40676D01*
X225101Y40694D01*
X225099Y40716D01*
X225097Y40739D01*
X225089Y40790D01*
X225077Y40847D01*
X225060Y40906D01*
X225038Y40964D01*
X225036Y40962D01*
X225034Y40957D01*
X225028Y40949D01*
X225022Y40937D01*
X225013Y40923D01*
X225005Y40906D01*
X224993Y40886D01*
X224983Y40865D01*
X224972Y40841D01*
X224960Y40815D01*
X224936Y40759D01*
X224913Y40700D01*
X224895Y40635D01*
X224654Y40716D01*
Y40720D01*
X224658Y40729D01*
X224662Y40743D01*
X224670Y40763D01*
X224677Y40788D01*
X224687Y40817D01*
X224699Y40849D01*
X224715Y40882D01*
X224730Y40919D01*
X224748Y40959D01*
X224789Y41037D01*
X224836Y41115D01*
X224864Y41155D01*
X224893Y41190D01*
X224889Y41194D01*
X224881Y41202D01*
X224866Y41217D01*
X224842Y41235D01*
X224815Y41258D01*
X224779Y41282D01*
X224740Y41309D01*
X224693Y41337D01*
X224640Y41364D01*
X224580Y41392D01*
X224513Y41415D01*
X224442Y41439D01*
X224364Y41456D01*
X224278Y41472D01*
X224187Y41480D01*
X224090Y41484D01*
D02*
G37*
%LPD*%
D12*
X252662Y73634D02*
Y95917D01*
X241363Y73634D02*
X252662D01*
X241363D02*
Y95917D01*
X252662D01*
X7856Y73007D02*
X38144D01*
Y126393D01*
X7856D02*
X38144D01*
X7856Y73007D02*
Y126393D01*
X56350Y119358D02*
Y141642D01*
X67650D01*
Y119358D02*
Y141642D01*
X56350Y119358D02*
X67650D01*
Y91358D02*
Y113642D01*
X56350Y91358D02*
X67650D01*
X56350D02*
Y113642D01*
X67650D01*
X7856Y12907D02*
X38144D01*
Y66293D01*
X7856D02*
X38144D01*
X7856Y12907D02*
Y66293D01*
X92693Y7856D02*
Y38144D01*
X39307D02*
X92693D01*
X39307Y7856D02*
Y38144D01*
Y7856D02*
X92693D01*
X196364Y95642D02*
X207663D01*
X196364Y73358D02*
Y95642D01*
Y73358D02*
X207663D01*
Y95642D01*
X96122Y8909D02*
Y20090D01*
Y8909D02*
X198878D01*
Y20090D01*
X96122D02*
X198878D01*
X2941Y179626D02*
X51563D01*
X2941Y130374D02*
Y179626D01*
Y130374D02*
X51563D01*
Y179626D01*
X220074Y34111D02*
Y44741D01*
X229523D01*
Y34111D02*
Y44741D01*
X220074Y34111D02*
X229523D01*
X198878Y177409D02*
Y188591D01*
X96122D02*
X198878D01*
X96122Y177409D02*
Y188591D01*
Y177409D02*
X198878D01*
X164567Y43602D02*
Y50098D01*
Y43602D02*
X174016D01*
Y50098D01*
X164567D02*
X174016D01*
M02*
