G04*
G04 #@! TF.GenerationSoftware,Altium Limited,Altium Designer,21.7.2 (23)*
G04*
G04 Layer_Color=8388736*
%FSLAX25Y25*%
%MOIN*%
G70*
G04*
G04 #@! TF.SameCoordinates,CEDA9658-653E-4C37-85A5-3546ED317D05*
G04*
G04*
G04 #@! TF.FilePolarity,Positive*
G04*
G01*
G75*
%ADD12C,0.00787*%
D12*
X252269Y74027D02*
Y95523D01*
X241757Y74027D02*
X252269D01*
X241757D02*
Y95523D01*
X252269D01*
X8250Y82944D02*
X37750D01*
Y116456D01*
X8250D02*
X37750D01*
X8250Y82944D02*
Y116456D01*
X56744Y119752D02*
Y141248D01*
X67256D01*
Y119752D02*
Y141248D01*
X56744Y119752D02*
X67256D01*
Y91752D02*
Y113248D01*
X56744Y91752D02*
X67256D01*
X56744D02*
Y113248D01*
X67256D01*
X8250Y22844D02*
X37750D01*
Y56356D01*
X8250D02*
X37750D01*
X8250Y22844D02*
Y56356D01*
X82756Y8250D02*
Y37750D01*
X49244D02*
X82756D01*
X49244Y8250D02*
Y37750D01*
Y8250D02*
X82756D01*
X196758Y95248D02*
X207270D01*
X196758Y73752D02*
Y95248D01*
Y73752D02*
X207270D01*
Y95248D01*
X96516Y9303D02*
Y19697D01*
Y9303D02*
X198484D01*
Y19697D01*
X96516D02*
X198484D01*
X3335Y179232D02*
X51169D01*
X3335Y130768D02*
Y179232D01*
Y130768D02*
X51169D01*
Y179232D01*
X220468Y36768D02*
Y42083D01*
X229129D01*
Y36768D02*
Y42083D01*
X220468Y36768D02*
X229129D01*
X198484Y177803D02*
Y188197D01*
X96516D02*
X198484D01*
X96516Y177803D02*
Y188197D01*
Y177803D02*
X198484D01*
X164961Y43996D02*
Y49705D01*
Y43996D02*
X173622D01*
Y49705D01*
X164961D02*
X173622D01*
M02*
