G04*
G04 #@! TF.GenerationSoftware,Altium Limited,Altium Designer,21.7.2 (23)*
G04*
G04 Layer_Color=8388736*
%FSLAX25Y25*%
%MOIN*%
G70*
G04*
G04 #@! TF.SameCoordinates,CEDA9658-653E-4C37-85A5-3546ED317D05*
G04*
G04*
G04 #@! TF.FilePolarity,Negative*
G04*
G01*
G75*
%ADD21R,0.12520X0.07992*%
%ADD22R,0.07992X0.12520*%
%ADD28R,0.01850X0.02362*%
%ADD33R,0.02362X0.05709*%
%ADD34R,0.01102X0.01102*%
%ADD35R,0.12480X0.12480*%
%ADD36R,0.12480X0.12480*%
%ADD37R,0.06181X0.06181*%
%ADD38C,0.06181*%
%ADD39R,0.06181X0.06181*%
%ADD40C,0.08465*%
%ADD41R,0.08465X0.08465*%
D21*
X24994Y122003D02*
D03*
Y77397D02*
D03*
Y61903D02*
D03*
Y17297D02*
D03*
D22*
X43697Y24994D02*
D03*
X88303D02*
D03*
D28*
X222240Y35686D02*
D03*
X227358D02*
D03*
X224799Y43166D02*
D03*
D33*
X172441Y46850D02*
D03*
X166142D02*
D03*
D34*
X228686Y85518D02*
D03*
X230339D02*
D03*
Y83865D02*
D03*
X228686D02*
D03*
D35*
X24994Y99700D02*
D03*
Y39600D02*
D03*
D36*
X66000Y24994D02*
D03*
D37*
X247013Y89775D02*
D03*
X62000Y125500D02*
D03*
Y107500D02*
D03*
X202014Y89500D02*
D03*
D38*
X247013Y79775D02*
D03*
X62000Y135500D02*
D03*
Y97500D02*
D03*
X202014Y79500D02*
D03*
X192500Y14500D02*
D03*
X182500D02*
D03*
X172500D02*
D03*
X162500D02*
D03*
X152500D02*
D03*
X142500D02*
D03*
X132500D02*
D03*
X122500D02*
D03*
X112500D02*
D03*
X102500Y183000D02*
D03*
X112500D02*
D03*
X122500D02*
D03*
X132500D02*
D03*
X142500D02*
D03*
X152500D02*
D03*
X162500D02*
D03*
X172500D02*
D03*
X182500D02*
D03*
D39*
X102500Y14500D02*
D03*
X192500Y183000D02*
D03*
D40*
X43000Y145000D02*
D03*
D41*
Y165000D02*
D03*
M02*
