G04*
G04 #@! TF.GenerationSoftware,Altium Limited,Altium Designer,21.7.2 (23)*
G04*
G04 Layer_Color=255*
%FSLAX25Y25*%
%MOIN*%
G70*
G04*
G04 #@! TF.SameCoordinates,CEDA9658-653E-4C37-85A5-3546ED317D05*
G04*
G04*
G04 #@! TF.FilePolarity,Positive*
G04*
G01*
G75*
%ADD37R,0.06181X0.06181*%
%ADD38C,0.06181*%
%ADD39R,0.06181X0.06181*%
%ADD40C,0.08465*%
%ADD41R,0.08465X0.08465*%
%ADD42C,0.05512*%
%ADD43R,0.05512X0.05512*%
D37*
X247013Y89775D02*
D03*
X62000Y125500D02*
D03*
Y107500D02*
D03*
X202014Y89500D02*
D03*
D38*
X247013Y79775D02*
D03*
X62000Y135500D02*
D03*
Y97500D02*
D03*
X202014Y79500D02*
D03*
X192500Y14500D02*
D03*
X182500D02*
D03*
X172500D02*
D03*
X162500D02*
D03*
X152500D02*
D03*
X142500D02*
D03*
X132500D02*
D03*
X122500D02*
D03*
X112500D02*
D03*
X102500Y183000D02*
D03*
X112500D02*
D03*
X122500D02*
D03*
X132500D02*
D03*
X142500D02*
D03*
X152500D02*
D03*
X162500D02*
D03*
X172500D02*
D03*
X182500D02*
D03*
D39*
X102500Y14500D02*
D03*
X192500Y183000D02*
D03*
D40*
X43000Y145000D02*
D03*
D41*
Y165000D02*
D03*
D42*
X6500Y190000D02*
D03*
X289000Y6500D02*
D03*
X16000D02*
D03*
X278500Y190000D02*
D03*
D43*
X16500Y190000D02*
D03*
X279000Y6500D02*
D03*
X6000D02*
D03*
X288500Y190000D02*
D03*
M02*
