G04*
G04 #@! TF.GenerationSoftware,Altium Limited,Altium Designer,21.7.2 (23)*
G04*
G04 Layer_Color=32896*
%FSLAX25Y25*%
%MOIN*%
G70*
G04*
G04 #@! TF.SameCoordinates,CEDA9658-653E-4C37-85A5-3546ED317D05*
G04*
G04*
G04 #@! TF.FilePolarity,Positive*
G04*
G01*
G75*
%ADD12C,0.00787*%
D12*
X252662Y73634D02*
Y95917D01*
X241363Y73634D02*
X252662D01*
X241363D02*
Y95917D01*
X252662D01*
X7856Y73007D02*
X38144D01*
Y126393D01*
X7856D02*
X38144D01*
X7856Y73007D02*
Y126393D01*
X56350Y119358D02*
Y141642D01*
X67650D01*
Y119358D02*
Y141642D01*
X56350Y119358D02*
X67650D01*
Y91358D02*
Y113642D01*
X56350Y91358D02*
X67650D01*
X56350D02*
Y113642D01*
X67650D01*
X7856Y12907D02*
X38144D01*
Y66293D01*
X7856D02*
X38144D01*
X7856Y12907D02*
Y66293D01*
X92693Y7856D02*
Y38144D01*
X39307D02*
X92693D01*
X39307Y7856D02*
Y38144D01*
Y7856D02*
X92693D01*
X196364Y95642D02*
X207663D01*
X196364Y73358D02*
Y95642D01*
Y73358D02*
X207663D01*
Y95642D01*
X96122Y8909D02*
Y20090D01*
Y8909D02*
X198878D01*
Y20090D01*
X96122D02*
X198878D01*
X2941Y179626D02*
X51563D01*
X2941Y130374D02*
Y179626D01*
Y130374D02*
X51563D01*
Y179626D01*
X220074Y34111D02*
Y44741D01*
X229523D01*
Y34111D02*
Y44741D01*
X220074Y34111D02*
X229523D01*
X198878Y177409D02*
Y188591D01*
X96122D02*
X198878D01*
X96122Y177409D02*
Y188591D01*
Y177409D02*
X198878D01*
X164567Y43602D02*
Y50098D01*
Y43602D02*
X174016D01*
Y50098D01*
X164567D02*
X174016D01*
M02*
