G04*
G04 #@! TF.GenerationSoftware,Altium Limited,Altium Designer,21.7.2 (23)*
G04*
G04 Layer_Physical_Order=1*
G04 Layer_Color=255*
%FSLAX25Y25*%
%MOIN*%
G70*
G04*
G04 #@! TF.SameCoordinates,CEDA9658-653E-4C37-85A5-3546ED317D05*
G04*
G04*
G04 #@! TF.FilePolarity,Positive*
G04*
G01*
G75*
%ADD15C,0.01000*%
%ADD16R,0.03937X0.04134*%
%ADD17C,0.00945*%
%ADD18O,0.02362X0.07677*%
%ADD19O,0.07677X0.02362*%
%ADD20R,0.02756X0.01968*%
%ADD21R,0.12520X0.07992*%
%ADD22R,0.07992X0.12520*%
%ADD23R,0.04134X0.03937*%
%ADD24R,0.10984X0.02913*%
%ADD25R,0.01575X0.01968*%
%ADD26R,0.04331X0.03937*%
%ADD27R,0.03937X0.04331*%
%ADD28R,0.01850X0.02362*%
%ADD29R,0.04724X0.04724*%
%ADD30R,0.04134X0.08661*%
%ADD31R,0.01575X0.02559*%
%ADD32O,0.01772X0.05512*%
%ADD33R,0.02362X0.05709*%
%ADD35R,0.12480X0.12480*%
%ADD36R,0.12480X0.12480*%
%ADD37R,0.06181X0.06181*%
%ADD38C,0.06181*%
%ADD39R,0.06181X0.06181*%
%ADD40C,0.08465*%
%ADD41R,0.08465X0.08465*%
%ADD42C,0.05512*%
%ADD43R,0.05512X0.05512*%
%ADD44C,0.05000*%
G36*
X134347Y180473D02*
X133815Y179865D01*
X133599Y179579D01*
X133416Y179303D01*
X133266Y179039D01*
X133150Y178787D01*
X133066Y178545D01*
X133017Y178315D01*
X133000Y178096D01*
X132000D01*
X131983Y178315D01*
X131933Y178545D01*
X131850Y178787D01*
X131734Y179039D01*
X131584Y179303D01*
X131401Y179579D01*
X131185Y179865D01*
X130653Y180473D01*
X130337Y180793D01*
X134663D01*
X134347Y180473D01*
D02*
G37*
G36*
X124347D02*
X123815Y179865D01*
X123599Y179579D01*
X123416Y179303D01*
X123266Y179039D01*
X123150Y178787D01*
X123066Y178545D01*
X123017Y178315D01*
X123000Y178096D01*
X122000D01*
X121983Y178315D01*
X121933Y178545D01*
X121850Y178787D01*
X121734Y179039D01*
X121584Y179303D01*
X121401Y179579D01*
X121185Y179865D01*
X120653Y180473D01*
X120337Y180793D01*
X124663D01*
X124347Y180473D01*
D02*
G37*
G36*
X114347D02*
X113815Y179865D01*
X113599Y179579D01*
X113416Y179303D01*
X113266Y179039D01*
X113150Y178787D01*
X113066Y178545D01*
X113017Y178315D01*
X113000Y178096D01*
X112000D01*
X111983Y178315D01*
X111934Y178545D01*
X111850Y178787D01*
X111734Y179039D01*
X111584Y179303D01*
X111401Y179579D01*
X111185Y179865D01*
X110653Y180473D01*
X110337Y180793D01*
X114663D01*
X114347Y180473D01*
D02*
G37*
G36*
X104347D02*
X103815Y179865D01*
X103599Y179579D01*
X103416Y179303D01*
X103266Y179039D01*
X103150Y178787D01*
X103067Y178545D01*
X103017Y178315D01*
X103000Y178096D01*
X102000D01*
X101983Y178315D01*
X101934Y178545D01*
X101850Y178787D01*
X101734Y179039D01*
X101584Y179303D01*
X101401Y179579D01*
X101185Y179865D01*
X100653Y180473D01*
X100337Y180793D01*
X104663D01*
X104347Y180473D01*
D02*
G37*
G36*
X225498Y168793D02*
X225299Y168587D01*
X224986Y168217D01*
X224871Y168054D01*
X224785Y167906D01*
X224728Y167772D01*
X224698Y167652D01*
X224697Y167546D01*
X224724Y167455D01*
X224779Y167378D01*
X223377Y168781D01*
X223454Y168725D01*
X223545Y168698D01*
X223650Y168699D01*
X223770Y168729D01*
X223904Y168787D01*
X224053Y168873D01*
X224216Y168987D01*
X224393Y169130D01*
X224791Y169500D01*
X225498Y168793D01*
D02*
G37*
G36*
X227857Y170465D02*
X230500D01*
X230262Y170222D01*
X229862Y169755D01*
X229700Y169530D01*
X229562Y169311D01*
X229450Y169097D01*
X229363Y168890D01*
X229300Y168687D01*
X229262Y168491D01*
X229250Y168300D01*
X228250D01*
X228238Y168491D01*
X228200Y168687D01*
X228137Y168890D01*
X228050Y169097D01*
X227938Y169311D01*
X227800Y169530D01*
X227638Y169755D01*
X227567Y169843D01*
X227473Y169843D01*
X227211Y169826D01*
X226967Y169790D01*
X226742Y169735D01*
X226536Y169660D01*
X226348Y169567D01*
X226178Y169454D01*
X226027Y169322D01*
X225424Y170132D01*
X225541Y170265D01*
X225651Y170423D01*
X225753Y170606D01*
X225849Y170813D01*
X225937Y171045D01*
X226018Y171303D01*
X226159Y171891D01*
X226219Y172223D01*
X226272Y172580D01*
X227857Y170465D01*
D02*
G37*
G36*
X229255Y165860D02*
X229270Y165688D01*
X229295Y165536D01*
X229330Y165405D01*
X229375Y165293D01*
X229430Y165202D01*
X229495Y165131D01*
X229570Y165081D01*
X229655Y165051D01*
X229750Y165040D01*
X227750D01*
X227845Y165051D01*
X227930Y165081D01*
X228005Y165131D01*
X228070Y165202D01*
X228125Y165293D01*
X228170Y165405D01*
X228205Y165536D01*
X228230Y165688D01*
X228245Y165860D01*
X228250Y166052D01*
X229250D01*
X229255Y165860D01*
D02*
G37*
G36*
X205321Y164555D02*
X205122Y164349D01*
X204808Y163980D01*
X204694Y163817D01*
X204608Y163668D01*
X204550Y163534D01*
X204521Y163414D01*
X204520Y163309D01*
X204547Y163217D01*
X204602Y163141D01*
X203200Y164543D01*
X203276Y164488D01*
X203368Y164461D01*
X203473Y164462D01*
X203593Y164491D01*
X203727Y164549D01*
X203876Y164635D01*
X204039Y164749D01*
X204216Y164892D01*
X204614Y165262D01*
X205321Y164555D01*
D02*
G37*
G36*
X215119Y165614D02*
X215772Y165039D01*
X215789Y165040D01*
X214985Y164236D01*
X214986Y164253D01*
X214971Y164284D01*
X214940Y164330D01*
X214893Y164390D01*
X214749Y164553D01*
X214265Y165052D01*
X214973Y165760D01*
X215119Y165614D01*
D02*
G37*
G36*
X209370Y160644D02*
X209285Y160613D01*
X209210Y160563D01*
X209145Y160492D01*
X209090Y160401D01*
X209045Y160290D01*
X209010Y160158D01*
X208985Y160006D01*
X208970Y159834D01*
X208965Y159642D01*
X207965D01*
X207960Y159834D01*
X207945Y160006D01*
X207920Y160158D01*
X207885Y160290D01*
X207840Y160401D01*
X207785Y160492D01*
X207720Y160563D01*
X207645Y160613D01*
X207560Y160644D01*
X207465Y160654D01*
X209465D01*
X209370Y160644D01*
D02*
G37*
G36*
X203464D02*
X203379Y160613D01*
X203304Y160563D01*
X203239Y160492D01*
X203184Y160401D01*
X203139Y160290D01*
X203104Y160158D01*
X203079Y160006D01*
X203064Y159834D01*
X203059Y159642D01*
X202059D01*
X202054Y159834D01*
X202039Y160006D01*
X202014Y160158D01*
X201979Y160290D01*
X201934Y160401D01*
X201879Y160492D01*
X201814Y160563D01*
X201739Y160613D01*
X201654Y160644D01*
X201559Y160654D01*
X203559D01*
X203464Y160644D01*
D02*
G37*
G36*
X88512Y160473D02*
X88112Y160005D01*
X87950Y159780D01*
X87813Y159561D01*
X87700Y159347D01*
X87612Y159140D01*
X87605Y159116D01*
X87625Y159067D01*
X87680Y158976D01*
X87745Y158906D01*
X87820Y158855D01*
X87905Y158825D01*
X88000Y158815D01*
X87527D01*
X87512Y158741D01*
X87500Y158551D01*
X86500D01*
X86488Y158741D01*
X86474Y158815D01*
X86000D01*
X86095Y158825D01*
X86180Y158855D01*
X86255Y158906D01*
X86320Y158976D01*
X86375Y159067D01*
X86395Y159116D01*
X86387Y159140D01*
X86300Y159347D01*
X86187Y159561D01*
X86050Y159780D01*
X85887Y160005D01*
X85700Y160236D01*
X85250Y160715D01*
X88750D01*
X88512Y160473D01*
D02*
G37*
G36*
X82512D02*
X82112Y160005D01*
X81950Y159780D01*
X81813Y159561D01*
X81700Y159347D01*
X81612Y159140D01*
X81605Y159116D01*
X81625Y159067D01*
X81680Y158976D01*
X81745Y158906D01*
X81820Y158855D01*
X81905Y158825D01*
X82000Y158815D01*
X81526D01*
X81512Y158741D01*
X81500Y158551D01*
X80500D01*
X80488Y158741D01*
X80474Y158815D01*
X80000D01*
X80095Y158825D01*
X80180Y158855D01*
X80255Y158906D01*
X80320Y158976D01*
X80375Y159067D01*
X80395Y159116D01*
X80388Y159140D01*
X80300Y159347D01*
X80187Y159561D01*
X80050Y159780D01*
X79887Y160005D01*
X79700Y160236D01*
X79250Y160715D01*
X82750D01*
X82512Y160473D01*
D02*
G37*
G36*
X208970Y158670D02*
X208985Y158498D01*
X209010Y158346D01*
X209045Y158214D01*
X209090Y158103D01*
X209145Y158012D01*
X209210Y157941D01*
X209285Y157890D01*
X209370Y157860D01*
X209465Y157850D01*
X207465D01*
X207560Y157860D01*
X207645Y157890D01*
X207720Y157941D01*
X207785Y158012D01*
X207840Y158103D01*
X207885Y158214D01*
X207920Y158346D01*
X207945Y158498D01*
X207960Y158670D01*
X207965Y158862D01*
X208965D01*
X208970Y158670D01*
D02*
G37*
G36*
X203064D02*
X203079Y158498D01*
X203104Y158346D01*
X203139Y158214D01*
X203184Y158103D01*
X203239Y158012D01*
X203304Y157941D01*
X203379Y157890D01*
X203464Y157860D01*
X203559Y157850D01*
X201559D01*
X201654Y157860D01*
X201739Y157890D01*
X201814Y157941D01*
X201879Y158012D01*
X201934Y158103D01*
X201979Y158214D01*
X202014Y158346D01*
X202039Y158498D01*
X202054Y158670D01*
X202059Y158862D01*
X203059D01*
X203064Y158670D01*
D02*
G37*
G36*
X82420Y154915D02*
X82335Y154885D01*
X82260Y154834D01*
X82195Y154764D01*
X82140Y154673D01*
X82095Y154561D01*
X82060Y154430D01*
X82035Y154278D01*
X82020Y154106D01*
X82016Y153968D01*
X82018Y153877D01*
X82040Y153557D01*
X82059Y153427D01*
X82084Y153317D01*
X82114Y153227D01*
X82150Y153157D01*
X82192Y153107D01*
X82239Y153077D01*
X82291Y153067D01*
X80740D01*
X80792Y153077D01*
X80839Y153107D01*
X80880Y153157D01*
X80916Y153227D01*
X80946Y153317D01*
X80971Y153427D01*
X80990Y153557D01*
X81004Y153707D01*
X81013Y153996D01*
X81010Y154106D01*
X80995Y154278D01*
X80970Y154430D01*
X80935Y154561D01*
X80890Y154673D01*
X80835Y154764D01*
X80770Y154834D01*
X80695Y154885D01*
X80610Y154915D01*
X80515Y154926D01*
X82515D01*
X82420Y154915D01*
D02*
G37*
G36*
X209370Y153951D02*
X209285Y153920D01*
X209210Y153870D01*
X209145Y153799D01*
X209090Y153708D01*
X209045Y153597D01*
X209010Y153465D01*
X208985Y153313D01*
X208970Y153141D01*
X208965Y152949D01*
X207965D01*
X207960Y153141D01*
X207945Y153313D01*
X207920Y153465D01*
X207885Y153597D01*
X207840Y153708D01*
X207785Y153799D01*
X207720Y153870D01*
X207645Y153920D01*
X207560Y153951D01*
X207465Y153961D01*
X209465D01*
X209370Y153951D01*
D02*
G37*
G36*
X203464D02*
X203379Y153920D01*
X203304Y153870D01*
X203239Y153799D01*
X203184Y153708D01*
X203139Y153597D01*
X203104Y153465D01*
X203079Y153313D01*
X203064Y153141D01*
X203059Y152949D01*
X202059D01*
X202054Y153141D01*
X202039Y153313D01*
X202014Y153465D01*
X201979Y153597D01*
X201934Y153708D01*
X201879Y153799D01*
X201814Y153870D01*
X201739Y153920D01*
X201654Y153951D01*
X201559Y153961D01*
X203559D01*
X203464Y153951D01*
D02*
G37*
G36*
X208970Y151977D02*
X208985Y151805D01*
X209010Y151653D01*
X209045Y151521D01*
X209090Y151410D01*
X209145Y151319D01*
X209210Y151248D01*
X209285Y151198D01*
X209370Y151167D01*
X209465Y151157D01*
X207465D01*
X207560Y151167D01*
X207645Y151198D01*
X207720Y151248D01*
X207785Y151319D01*
X207840Y151410D01*
X207885Y151521D01*
X207920Y151653D01*
X207945Y151805D01*
X207960Y151977D01*
X207965Y152169D01*
X208965D01*
X208970Y151977D01*
D02*
G37*
G36*
X203064D02*
X203079Y151805D01*
X203104Y151653D01*
X203139Y151521D01*
X203184Y151410D01*
X203239Y151319D01*
X203304Y151248D01*
X203379Y151198D01*
X203464Y151167D01*
X203559Y151157D01*
X201559D01*
X201654Y151167D01*
X201739Y151198D01*
X201814Y151248D01*
X201879Y151319D01*
X201934Y151410D01*
X201979Y151521D01*
X202014Y151653D01*
X202039Y151805D01*
X202054Y151977D01*
X202059Y152169D01*
X203059D01*
X203064Y151977D01*
D02*
G37*
G36*
X212782Y147069D02*
X212539Y147306D01*
X212072Y147706D01*
X211847Y147869D01*
X211628Y148006D01*
X211414Y148119D01*
X211207Y148206D01*
X211004Y148269D01*
X210993Y148271D01*
X210872Y148239D01*
X210760Y148194D01*
X210669Y148139D01*
X210599Y148074D01*
X210548Y147999D01*
X210518Y147914D01*
X210507Y147819D01*
Y149819D01*
X210518Y149724D01*
X210548Y149639D01*
X210599Y149564D01*
X210669Y149499D01*
X210760Y149444D01*
X210872Y149399D01*
X210993Y149367D01*
X211004Y149369D01*
X211207Y149431D01*
X211414Y149519D01*
X211628Y149631D01*
X211847Y149769D01*
X212072Y149931D01*
X212303Y150119D01*
X212782Y150569D01*
Y147069D01*
D02*
G37*
G36*
X203464Y147258D02*
X203379Y147228D01*
X203304Y147177D01*
X203239Y147106D01*
X203184Y147015D01*
X203139Y146904D01*
X203104Y146772D01*
X203079Y146620D01*
X203064Y146448D01*
X203059Y146256D01*
X202059D01*
X202054Y146448D01*
X202039Y146620D01*
X202014Y146772D01*
X201979Y146904D01*
X201934Y147015D01*
X201879Y147106D01*
X201814Y147177D01*
X201739Y147228D01*
X201654Y147258D01*
X201559Y147268D01*
X203559D01*
X203464Y147258D01*
D02*
G37*
G36*
X188520Y146791D02*
X188120Y146324D01*
X187958Y146099D01*
X187820Y145880D01*
X187708Y145666D01*
X187620Y145458D01*
X187592Y145368D01*
X187607Y145325D01*
X187643Y145255D01*
X187684Y145205D01*
X187731Y145175D01*
X187783Y145165D01*
X187540D01*
X187520Y145060D01*
X187508Y144869D01*
X186508Y144869D01*
X186495Y145060D01*
X186475Y145165D01*
X186232D01*
X186285Y145175D01*
X186332Y145205D01*
X186373Y145255D01*
X186409Y145325D01*
X186423Y145368D01*
X186395Y145458D01*
X186308Y145666D01*
X186195Y145880D01*
X186058Y146099D01*
X185895Y146324D01*
X185708Y146555D01*
X185258Y147034D01*
X188758Y147034D01*
X188520Y146791D01*
D02*
G37*
G36*
X89808Y142557D02*
X89567Y142795D01*
X89102Y143196D01*
X88878Y143359D01*
X88659Y143496D01*
X88446Y143609D01*
X88238Y143697D01*
X88036Y143759D01*
X87955Y143775D01*
X87893Y143764D01*
X87761Y143729D01*
X87650Y143684D01*
X87559Y143630D01*
X87488Y143564D01*
X87438Y143490D01*
X87407Y143404D01*
X87397Y143309D01*
Y145309D01*
X87407Y145214D01*
X87438Y145130D01*
X87488Y145054D01*
X87559Y144990D01*
X87650Y144934D01*
X87761Y144889D01*
X87893Y144854D01*
X87958Y144844D01*
X88039Y144859D01*
X88241Y144922D01*
X88449Y145009D01*
X88663Y145121D01*
X88883Y145258D01*
X89109Y145421D01*
X89340Y145608D01*
X89821Y146057D01*
X89808Y142557D01*
D02*
G37*
G36*
X208582Y147258D02*
X208497Y147228D01*
X208422Y147177D01*
X208357Y147106D01*
X208302Y147015D01*
X208257Y146904D01*
X208222Y146772D01*
X208197Y146620D01*
X208189Y146526D01*
X208200Y146416D01*
X208228Y146266D01*
X208268Y146136D01*
X208320Y146026D01*
X208383Y145936D01*
X208457Y145866D01*
X208542Y145816D01*
X208639Y145786D01*
X208748Y145776D01*
X207677Y144776D01*
X206606Y145776D01*
X206715Y145786D01*
X206812Y145816D01*
X206897Y145866D01*
X206972Y145936D01*
X207034Y146026D01*
X207086Y146136D01*
X207126Y146266D01*
X207154Y146416D01*
X207165Y146526D01*
X207157Y146620D01*
X207132Y146772D01*
X207097Y146904D01*
X207052Y147015D01*
X206997Y147106D01*
X206932Y147177D01*
X206857Y147228D01*
X206772Y147258D01*
X206677Y147268D01*
X208677D01*
X208582Y147258D01*
D02*
G37*
G36*
X203062Y145538D02*
X203088Y145214D01*
X203111Y145064D01*
X203140Y144923D01*
X203175Y144789D01*
X203218Y144664D01*
X203266Y144547D01*
X203321Y144438D01*
X203382Y144337D01*
X201736D01*
X201797Y144438D01*
X201852Y144547D01*
X201901Y144664D01*
X201943Y144789D01*
X201978Y144923D01*
X202007Y145064D01*
X202030Y145214D01*
X202056Y145538D01*
X202059Y145713D01*
X203059D01*
X203062Y145538D01*
D02*
G37*
G36*
X209313Y145424D02*
X209431Y145326D01*
X209554Y145236D01*
X209683Y145154D01*
X209818Y145079D01*
X209958Y145012D01*
X210104Y144952D01*
X210256Y144901D01*
X210414Y144856D01*
X210577Y144819D01*
X209357Y143264D01*
X209405Y143348D01*
X209426Y143445D01*
X209421Y143555D01*
X209389Y143677D01*
X209330Y143812D01*
X209245Y143960D01*
X209133Y144121D01*
X208995Y144294D01*
X208638Y144678D01*
X209202Y145529D01*
X209313Y145424D01*
D02*
G37*
G36*
X206716Y144678D02*
X206524Y144480D01*
X206221Y144121D01*
X206109Y143960D01*
X206024Y143812D01*
X205965Y143677D01*
X205933Y143555D01*
X205928Y143445D01*
X205949Y143348D01*
X205997Y143264D01*
X204777Y144819D01*
X204941Y144856D01*
X205098Y144901D01*
X205250Y144952D01*
X205396Y145012D01*
X205537Y145079D01*
X205671Y145154D01*
X205800Y145236D01*
X205924Y145326D01*
X206041Y145424D01*
X206153Y145529D01*
X206716Y144678D01*
D02*
G37*
G36*
X84798Y143042D02*
X84751Y143011D01*
X84710Y142962D01*
X84674Y142892D01*
X84644Y142801D01*
X84619Y142692D01*
X84600Y142561D01*
X84586Y142411D01*
X84575Y142051D01*
X83575D01*
X83572Y142242D01*
X83550Y142561D01*
X83531Y142692D01*
X83506Y142801D01*
X83476Y142892D01*
X83440Y142962D01*
X83398Y143011D01*
X83352Y143042D01*
X83299Y143052D01*
X84850D01*
X84798Y143042D01*
D02*
G37*
G36*
X82239D02*
X82192Y143011D01*
X82151Y142962D01*
X82115Y142892D01*
X82085Y142801D01*
X82060Y142692D01*
X82041Y142561D01*
X82027Y142411D01*
X82016Y142051D01*
X81016D01*
X81013Y142242D01*
X80991Y142561D01*
X80972Y142692D01*
X80947Y142801D01*
X80917Y142892D01*
X80881Y142962D01*
X80840Y143011D01*
X80793Y143042D01*
X80740Y143052D01*
X82291D01*
X82239Y143042D01*
D02*
G37*
G36*
X84580Y141588D02*
X84595Y141416D01*
X84620Y141265D01*
X84655Y141133D01*
X84700Y141022D01*
X84755Y140931D01*
X84820Y140860D01*
X84895Y140809D01*
X84980Y140778D01*
X85075Y140767D01*
X83201Y140779D01*
X83272Y140789D01*
X83336Y140819D01*
X83392Y140869D01*
X83440Y140939D01*
X83481Y141029D01*
X83515Y141139D01*
X83541Y141269D01*
X83560Y141419D01*
X83571Y141589D01*
X83575Y141779D01*
X84575D01*
X84580Y141588D01*
D02*
G37*
G36*
X81869Y140891D02*
X81753Y140772D01*
X81439Y140408D01*
X81399Y140345D01*
X81375Y140293D01*
X81366Y140252D01*
X81372Y140223D01*
X81393Y140204D01*
X80121Y140767D01*
X80157Y140763D01*
X80205Y140775D01*
X80266Y140805D01*
X80340Y140851D01*
X80427Y140915D01*
X80638Y141093D01*
X80901Y141338D01*
X81051Y141486D01*
X81869Y140891D01*
D02*
G37*
G36*
X75028Y140513D02*
X75495Y140112D01*
X75720Y139950D01*
X75939Y139813D01*
X76153Y139700D01*
X76360Y139612D01*
X76562Y139550D01*
X76690Y139526D01*
X76806Y139545D01*
X76935Y139580D01*
X77046Y139625D01*
X77135Y139680D01*
X77205Y139745D01*
X77255Y139820D01*
X77285Y139905D01*
X77296Y140000D01*
Y138000D01*
X77285Y138095D01*
X77255Y138180D01*
X77205Y138255D01*
X77135Y138320D01*
X77046Y138375D01*
X76935Y138420D01*
X76806Y138455D01*
X76690Y138474D01*
X76562Y138450D01*
X76360Y138388D01*
X76153Y138300D01*
X75939Y138188D01*
X75720Y138050D01*
X75495Y137888D01*
X75264Y137700D01*
X74785Y137250D01*
Y140750D01*
X75028Y140513D01*
D02*
G37*
G36*
X225498Y136405D02*
X225299Y136199D01*
X224986Y135830D01*
X224871Y135667D01*
X224785Y135519D01*
X224727Y135384D01*
X224698Y135264D01*
X224697Y135159D01*
X224724Y135068D01*
X224779Y134991D01*
X223377Y136393D01*
X223454Y136338D01*
X223545Y136311D01*
X223650Y136312D01*
X223770Y136342D01*
X223904Y136399D01*
X224053Y136485D01*
X224216Y136600D01*
X224393Y136742D01*
X224791Y137112D01*
X225498Y136405D01*
D02*
G37*
G36*
X227818Y137978D02*
X230490D01*
X230253Y137736D01*
X229853Y137269D01*
X229690Y137044D01*
X229553Y136825D01*
X229440Y136611D01*
X229353Y136403D01*
X229290Y136201D01*
X229253Y136005D01*
X229240Y135814D01*
X228240D01*
X228228Y136005D01*
X228190Y136201D01*
X228128Y136403D01*
X228040Y136611D01*
X227928Y136825D01*
X227790Y137044D01*
X227628Y137269D01*
X227535Y137383D01*
X227411Y137387D01*
X227152Y137374D01*
X226910Y137342D01*
X226686Y137289D01*
X226481Y137217D01*
X226293Y137124D01*
X226123Y137011D01*
X225971Y136878D01*
X225386Y137708D01*
X225501Y137838D01*
X225610Y137994D01*
X225713Y138175D01*
X225811Y138382D01*
X225902Y138614D01*
X225988Y138872D01*
X226141Y139463D01*
X226209Y139797D01*
X226271Y140157D01*
X227818Y137978D01*
D02*
G37*
G36*
X85505Y136878D02*
X86000D01*
X85905Y136868D01*
X85820Y136838D01*
X85745Y136787D01*
X85680Y136716D01*
X85625Y136625D01*
X85580Y136514D01*
X85573Y136488D01*
X85612Y136360D01*
X85700Y136153D01*
X85812Y135939D01*
X85950Y135720D01*
X86112Y135495D01*
X86300Y135264D01*
X86750Y134785D01*
X83250D01*
X83487Y135028D01*
X83887Y135495D01*
X84050Y135720D01*
X84188Y135939D01*
X84300Y136153D01*
X84387Y136360D01*
X84427Y136488D01*
X84420Y136514D01*
X84375Y136625D01*
X84320Y136716D01*
X84255Y136787D01*
X84180Y136838D01*
X84095Y136868D01*
X84000Y136878D01*
X84495D01*
X84500Y136950D01*
X85500D01*
X85505Y136878D01*
D02*
G37*
G36*
X190290Y135140D02*
X190243Y135110D01*
X190202Y135060D01*
X190166Y134990D01*
X190136Y134900D01*
X190111Y134790D01*
X190092Y134660D01*
X190078Y134510D01*
X190067Y134150D01*
X189067D01*
X189064Y134340D01*
X189042Y134660D01*
X189023Y134790D01*
X188998Y134900D01*
X188968Y134990D01*
X188932Y135060D01*
X188891Y135110D01*
X188844Y135140D01*
X188792Y135150D01*
X190342D01*
X190290Y135140D01*
D02*
G37*
G36*
X185172D02*
X185125Y135110D01*
X185084Y135060D01*
X185048Y134990D01*
X185018Y134900D01*
X184993Y134790D01*
X184974Y134660D01*
X184960Y134510D01*
X184949Y134150D01*
X183949D01*
X183946Y134340D01*
X183924Y134660D01*
X183905Y134790D01*
X183880Y134900D01*
X183850Y134990D01*
X183814Y135060D01*
X183773Y135110D01*
X183726Y135140D01*
X183673Y135150D01*
X185224D01*
X185172Y135140D01*
D02*
G37*
G36*
X184954Y133867D02*
X184969Y133695D01*
X184994Y133543D01*
X185029Y133411D01*
X185074Y133300D01*
X185129Y133209D01*
X185194Y133138D01*
X185269Y133087D01*
X185354Y133057D01*
X185449Y133047D01*
X183449D01*
X183544Y133057D01*
X183629Y133087D01*
X183704Y133138D01*
X183769Y133209D01*
X183824Y133300D01*
X183869Y133411D01*
X183904Y133543D01*
X183929Y133695D01*
X183944Y133867D01*
X183949Y134059D01*
X184949D01*
X184954Y133867D01*
D02*
G37*
G36*
X179465Y135374D02*
X179065Y134907D01*
X178903Y134682D01*
X178765Y134463D01*
X178653Y134249D01*
X178565Y134041D01*
X178503Y133839D01*
X178474Y133688D01*
X178498Y133543D01*
X178533Y133411D01*
X178578Y133300D01*
X178633Y133209D01*
X178698Y133138D01*
X178773Y133087D01*
X178858Y133057D01*
X178953Y133047D01*
X176953D01*
X177048Y133057D01*
X177133Y133087D01*
X177208Y133138D01*
X177273Y133209D01*
X177328Y133300D01*
X177373Y133411D01*
X177408Y133543D01*
X177432Y133688D01*
X177403Y133839D01*
X177340Y134041D01*
X177253Y134249D01*
X177140Y134463D01*
X177003Y134682D01*
X176840Y134907D01*
X176653Y135138D01*
X176203Y135616D01*
X179703D01*
X179465Y135374D01*
D02*
G37*
G36*
X196394Y134980D02*
X195994Y134513D01*
X195832Y134288D01*
X195694Y134069D01*
X195582Y133855D01*
X195494Y133648D01*
X195443Y133482D01*
X195462Y133411D01*
X195507Y133300D01*
X195562Y133209D01*
X195627Y133138D01*
X195702Y133087D01*
X195787Y133057D01*
X195882Y133047D01*
X193882D01*
X193977Y133057D01*
X194062Y133087D01*
X194137Y133138D01*
X194202Y133209D01*
X194257Y133300D01*
X194302Y133411D01*
X194321Y133482D01*
X194269Y133648D01*
X194182Y133855D01*
X194069Y134069D01*
X193932Y134288D01*
X193769Y134513D01*
X193582Y134744D01*
X193132Y135222D01*
X196632D01*
X196394Y134980D01*
D02*
G37*
G36*
X190072Y133867D02*
X190087Y133695D01*
X190112Y133543D01*
X190147Y133411D01*
X190192Y133300D01*
X190247Y133209D01*
X190312Y133138D01*
X190387Y133087D01*
X190472Y133057D01*
X190567Y133047D01*
X188567D01*
X188662Y133057D01*
X188747Y133087D01*
X188822Y133138D01*
X188887Y133209D01*
X188942Y133300D01*
X188987Y133411D01*
X189022Y133543D01*
X189047Y133695D01*
X189062Y133867D01*
X189067Y134059D01*
X190067D01*
X190072Y133867D01*
D02*
G37*
G36*
X229245Y133473D02*
X229260Y133301D01*
X229285Y133149D01*
X229320Y133018D01*
X229365Y132906D01*
X229420Y132815D01*
X229485Y132744D01*
X229560Y132694D01*
X229645Y132663D01*
X229740Y132653D01*
X227740D01*
X227835Y132663D01*
X227920Y132694D01*
X227995Y132744D01*
X228060Y132815D01*
X228115Y132906D01*
X228160Y133018D01*
X228195Y133149D01*
X228220Y133301D01*
X228235Y133473D01*
X228240Y133665D01*
X229240D01*
X229245Y133473D01*
D02*
G37*
G36*
X117332Y131524D02*
X117195Y131371D01*
X117075Y131202D01*
X116971Y131015D01*
X116883Y130812D01*
X116811Y130592D01*
X116756Y130355D01*
X116717Y130101D01*
X116694Y129831D01*
X116687Y129543D01*
X116696Y129239D01*
X114339Y131596D01*
X114643Y131587D01*
X114931Y131594D01*
X115201Y131617D01*
X115455Y131656D01*
X115692Y131711D01*
X115912Y131783D01*
X116115Y131871D01*
X116302Y131975D01*
X116472Y132095D01*
X116624Y132231D01*
X117332Y131524D01*
D02*
G37*
G36*
X144133Y132727D02*
X144106Y132636D01*
X144107Y132531D01*
X144137Y132411D01*
X144194Y132277D01*
X144281Y132128D01*
X144395Y131965D01*
X144538Y131788D01*
X144908Y131390D01*
X144201Y130683D01*
X143994Y130882D01*
X143625Y131195D01*
X143462Y131310D01*
X143314Y131396D01*
X143179Y131454D01*
X143060Y131483D01*
X142954Y131484D01*
X142863Y131457D01*
X142786Y131402D01*
X144188Y132804D01*
X144133Y132727D01*
D02*
G37*
G36*
X191948Y130483D02*
X191921Y130392D01*
X191922Y130287D01*
X191952Y130167D01*
X192010Y130033D01*
X192096Y129884D01*
X192210Y129721D01*
X192353Y129544D01*
X192723Y129146D01*
X192016Y128439D01*
X191809Y128638D01*
X191440Y128951D01*
X191277Y129066D01*
X191129Y129152D01*
X190995Y129209D01*
X190875Y129239D01*
X190769Y129240D01*
X190678Y129213D01*
X190601Y129158D01*
X192004Y130560D01*
X191948Y130483D01*
D02*
G37*
G36*
X206631Y129862D02*
X206231Y129395D01*
X206068Y129170D01*
X205931Y128951D01*
X205818Y128737D01*
X205755Y128587D01*
X205777Y128522D01*
X205825Y128405D01*
X205880Y128296D01*
X205941Y128195D01*
X205643D01*
X205631Y128131D01*
X205618Y127940D01*
X204618D01*
X204606Y128131D01*
X204593Y128195D01*
X204295D01*
X204356Y128296D01*
X204411Y128405D01*
X204460Y128522D01*
X204481Y128587D01*
X204418Y128737D01*
X204306Y128951D01*
X204168Y129170D01*
X204006Y129395D01*
X203818Y129626D01*
X203368Y130104D01*
X206868D01*
X206631Y129862D01*
D02*
G37*
G36*
X184370Y129148D02*
X184285Y129117D01*
X184210Y129067D01*
X184145Y128996D01*
X184090Y128905D01*
X184045Y128794D01*
X184026Y128723D01*
X184077Y128557D01*
X184165Y128349D01*
X184277Y128136D01*
X184415Y127917D01*
X184577Y127692D01*
X184765Y127461D01*
X185215Y126982D01*
X181715D01*
X181952Y127224D01*
X182352Y127692D01*
X182515Y127917D01*
X182652Y128136D01*
X182765Y128349D01*
X182852Y128557D01*
X182903Y128723D01*
X182885Y128794D01*
X182840Y128905D01*
X182785Y128996D01*
X182720Y129067D01*
X182645Y129117D01*
X182560Y129148D01*
X182465Y129158D01*
X184465D01*
X184370Y129148D01*
D02*
G37*
G36*
X121533Y126392D02*
X121448Y126361D01*
X121373Y126311D01*
X121308Y126240D01*
X121253Y126149D01*
X121208Y126038D01*
X121173Y125906D01*
X121148Y125754D01*
X121133Y125582D01*
X121128Y125390D01*
X120128D01*
X120123Y125582D01*
X120108Y125754D01*
X120083Y125906D01*
X120048Y126038D01*
X120003Y126149D01*
X119948Y126240D01*
X119883Y126311D01*
X119808Y126361D01*
X119723Y126392D01*
X119628Y126402D01*
X121628D01*
X121533Y126392D01*
D02*
G37*
G36*
X214985Y124984D02*
X214974Y125079D01*
X214944Y125164D01*
X214894Y125239D01*
X214823Y125304D01*
X214732Y125359D01*
X214620Y125404D01*
X214489Y125439D01*
X214337Y125464D01*
X214165Y125479D01*
X213973Y125484D01*
Y126484D01*
X214165Y126489D01*
X214337Y126504D01*
X214489Y126529D01*
X214620Y126564D01*
X214732Y126609D01*
X214823Y126664D01*
X214894Y126729D01*
X214944Y126804D01*
X214974Y126889D01*
X214985Y126984D01*
Y124984D01*
D02*
G37*
G36*
X211125Y126889D02*
X211156Y126804D01*
X211206Y126729D01*
X211277Y126664D01*
X211368Y126609D01*
X211479Y126564D01*
X211611Y126529D01*
X211763Y126504D01*
X211935Y126489D01*
X212127Y126484D01*
Y125484D01*
X211935Y125479D01*
X211763Y125464D01*
X211611Y125439D01*
X211479Y125404D01*
X211368Y125359D01*
X211277Y125304D01*
X211206Y125239D01*
X211156Y125164D01*
X211125Y125079D01*
X211115Y124984D01*
Y126984D01*
X211125Y126889D01*
D02*
G37*
G36*
X121133Y125087D02*
X121148Y124915D01*
X121173Y124763D01*
X121208Y124632D01*
X121253Y124520D01*
X121308Y124429D01*
X121373Y124358D01*
X121448Y124308D01*
X121533Y124277D01*
X121628Y124267D01*
X119628D01*
X119723Y124277D01*
X119808Y124308D01*
X119883Y124358D01*
X119948Y124429D01*
X120003Y124520D01*
X120048Y124632D01*
X120083Y124763D01*
X120108Y124915D01*
X120123Y125087D01*
X120128Y125279D01*
X121128D01*
X121133Y125087D01*
D02*
G37*
G36*
X208439Y123672D02*
X208384Y123564D01*
X208335Y123446D01*
X208293Y123321D01*
X208258Y123188D01*
X208229Y123046D01*
X208206Y122896D01*
X208180Y122572D01*
X208177Y122397D01*
X207177D01*
X207174Y122572D01*
X207148Y122896D01*
X207125Y123046D01*
X207096Y123188D01*
X207061Y123321D01*
X207019Y123446D01*
X206970Y123564D01*
X206915Y123672D01*
X206854Y123773D01*
X208500D01*
X208439Y123672D01*
D02*
G37*
G36*
X203321D02*
X203266Y123564D01*
X203218Y123446D01*
X203175Y123321D01*
X203140Y123188D01*
X203111Y123046D01*
X203088Y122896D01*
X203062Y122572D01*
X203059Y122397D01*
X202059D01*
X202056Y122572D01*
X202030Y122896D01*
X202007Y123046D01*
X201978Y123188D01*
X201943Y123321D01*
X201901Y123446D01*
X201852Y123564D01*
X201797Y123672D01*
X201736Y123773D01*
X203382D01*
X203321Y123672D01*
D02*
G37*
G36*
X116249Y124435D02*
X116701Y124029D01*
X116920Y123864D01*
X117136Y123724D01*
X117165Y123708D01*
X117177Y123727D01*
X117207Y123812D01*
X117217Y123907D01*
Y123680D01*
X117346Y123610D01*
X117552Y123521D01*
X117754Y123458D01*
X117951Y123419D01*
X118144Y123407D01*
X118115Y122407D01*
X117926Y122394D01*
X117731Y122357D01*
X117529Y122296D01*
X117319Y122210D01*
X117217Y122158D01*
Y121907D01*
X117207Y122002D01*
X117177Y122087D01*
X117152Y122124D01*
X117103Y122099D01*
X116879Y121964D01*
X116649Y121805D01*
X116411Y121620D01*
X115921Y121183D01*
X115693Y120951D01*
X115294Y120484D01*
X115131Y120259D01*
X114994Y120040D01*
X114881Y119826D01*
X114794Y119618D01*
X114731Y119416D01*
X114693Y119220D01*
X114681Y119029D01*
X113681D01*
X113669Y119220D01*
X113631Y119416D01*
X113568Y119618D01*
X113481Y119826D01*
X113368Y120040D01*
X113231Y120259D01*
X113068Y120484D01*
X112881Y120715D01*
X112431Y121193D01*
X115916D01*
X116016Y124677D01*
X116249Y124435D01*
D02*
G37*
G36*
X208182Y122056D02*
X208197Y121883D01*
X208222Y121732D01*
X208257Y121600D01*
X208302Y121489D01*
X208357Y121398D01*
X208422Y121327D01*
X208497Y121276D01*
X208582Y121246D01*
X208677Y121236D01*
X206677D01*
X206772Y121246D01*
X206857Y121276D01*
X206932Y121327D01*
X206997Y121398D01*
X207052Y121489D01*
X207097Y121600D01*
X207132Y121732D01*
X207157Y121883D01*
X207172Y122056D01*
X207177Y122248D01*
X208177D01*
X208182Y122056D01*
D02*
G37*
G36*
X203064D02*
X203079Y121883D01*
X203104Y121732D01*
X203139Y121600D01*
X203184Y121489D01*
X203239Y121398D01*
X203304Y121327D01*
X203379Y121276D01*
X203464Y121246D01*
X203559Y121236D01*
X201559D01*
X201654Y121246D01*
X201739Y121276D01*
X201814Y121327D01*
X201879Y121398D01*
X201934Y121489D01*
X201979Y121600D01*
X202014Y121732D01*
X202039Y121883D01*
X202054Y122056D01*
X202059Y122248D01*
X203059D01*
X203064Y122056D01*
D02*
G37*
G36*
X17527Y123512D02*
X17995Y123112D01*
X18220Y122950D01*
X18439Y122812D01*
X18631Y122712D01*
X18667Y122745D01*
X18718Y122820D01*
X18748Y122905D01*
X18758Y123000D01*
Y122655D01*
X18860Y122613D01*
X19062Y122550D01*
X19259Y122512D01*
X19450Y122500D01*
Y121500D01*
X19259Y121487D01*
X19062Y121450D01*
X18860Y121388D01*
X18758Y121344D01*
Y121000D01*
X18748Y121095D01*
X18718Y121180D01*
X18667Y121255D01*
X18631Y121289D01*
X18439Y121187D01*
X18220Y121050D01*
X17995Y120887D01*
X17764Y120700D01*
X17285Y120250D01*
Y123750D01*
X17527Y123512D01*
D02*
G37*
G36*
X212388Y117541D02*
X212146Y117779D01*
X211679Y118179D01*
X211454Y118341D01*
X211234Y118479D01*
X211021Y118591D01*
X210813Y118679D01*
X210801Y118683D01*
X210760Y118666D01*
X210669Y118611D01*
X210599Y118546D01*
X210548Y118471D01*
X210518Y118386D01*
X210507Y118291D01*
Y118761D01*
X210414Y118779D01*
X210224Y118791D01*
Y119791D01*
X210414Y119804D01*
X210507Y119822D01*
Y120291D01*
X210518Y120196D01*
X210548Y120111D01*
X210599Y120036D01*
X210669Y119971D01*
X210760Y119916D01*
X210801Y119900D01*
X210813Y119904D01*
X211021Y119991D01*
X211234Y120104D01*
X211454Y120241D01*
X211679Y120404D01*
X211909Y120591D01*
X212388Y121041D01*
Y117541D01*
D02*
G37*
G36*
X193245Y116083D02*
X192845Y115615D01*
X192682Y115391D01*
X192545Y115171D01*
X192432Y114958D01*
X192345Y114750D01*
X192294Y114584D01*
X192312Y114514D01*
X192357Y114402D01*
X192412Y114311D01*
X192477Y114240D01*
X192552Y114190D01*
X192637Y114159D01*
X192732Y114149D01*
X190732D01*
X190827Y114159D01*
X190912Y114190D01*
X190987Y114240D01*
X191052Y114311D01*
X191107Y114402D01*
X191152Y114514D01*
X191171Y114584D01*
X191120Y114750D01*
X191032Y114958D01*
X190920Y115171D01*
X190782Y115391D01*
X190620Y115615D01*
X190432Y115846D01*
X189982Y116325D01*
X193482D01*
X193245Y116083D01*
D02*
G37*
G36*
X187339D02*
X186939Y115615D01*
X186777Y115391D01*
X186639Y115171D01*
X186527Y114958D01*
X186439Y114750D01*
X186388Y114584D01*
X186407Y114514D01*
X186452Y114402D01*
X186507Y114311D01*
X186572Y114240D01*
X186647Y114190D01*
X186732Y114159D01*
X186827Y114149D01*
X184827D01*
X184922Y114159D01*
X185007Y114190D01*
X185082Y114240D01*
X185147Y114311D01*
X185202Y114402D01*
X185247Y114514D01*
X185266Y114584D01*
X185214Y114750D01*
X185127Y114958D01*
X185014Y115171D01*
X184877Y115391D01*
X184714Y115615D01*
X184527Y115846D01*
X184077Y116325D01*
X187577D01*
X187339Y116083D01*
D02*
G37*
G36*
X117422Y114788D02*
X117789Y114477D01*
X117952Y114364D01*
X118101Y114279D01*
X118235Y114223D01*
X118355Y114195D01*
X118461D01*
X118553Y114223D01*
X118631Y114279D01*
X117217Y112865D01*
X117273Y112943D01*
X117301Y113035D01*
Y113141D01*
X117273Y113261D01*
X117217Y113395D01*
X117132Y113544D01*
X117019Y113707D01*
X116877Y113883D01*
X116510Y114279D01*
X117217Y114986D01*
X117422Y114788D01*
D02*
G37*
G36*
X151881Y110186D02*
X151639Y110424D01*
X151171Y110824D01*
X150946Y110986D01*
X150727Y111124D01*
X150514Y111236D01*
X150473Y111253D01*
X150405Y111191D01*
X150354Y111116D01*
X150324Y111031D01*
X150314Y110936D01*
Y111320D01*
X150306Y111324D01*
X150104Y111386D01*
X149907Y111424D01*
X149717Y111436D01*
X149717Y112436D01*
X149907Y112449D01*
X150104Y112486D01*
X150306Y112549D01*
X150314Y112552D01*
Y112936D01*
X150324Y112841D01*
X150354Y112756D01*
X150405Y112681D01*
X150473Y112619D01*
X150514Y112636D01*
X150727Y112749D01*
X150946Y112886D01*
X151171Y113049D01*
X151402Y113236D01*
X151881Y113686D01*
X151881Y110186D01*
D02*
G37*
G36*
X146425Y111835D02*
X146415Y111930D01*
X146384Y112015D01*
X146334Y112090D01*
X146263Y112155D01*
X146172Y112210D01*
X146060Y112255D01*
X145929Y112290D01*
X145777Y112315D01*
X145605Y112330D01*
X145413Y112335D01*
Y113335D01*
X145605Y113340D01*
X145777Y113355D01*
X145929Y113380D01*
X146060Y113415D01*
X146172Y113460D01*
X146263Y113515D01*
X146334Y113580D01*
X146384Y113655D01*
X146415Y113740D01*
X146425Y113835D01*
Y111835D01*
D02*
G37*
G36*
X144199Y113740D02*
X144229Y113655D01*
X144280Y113580D01*
X144351Y113515D01*
X144441Y113460D01*
X144553Y113415D01*
X144684Y113380D01*
X144836Y113355D01*
X145008Y113340D01*
X145201Y113335D01*
Y112335D01*
X145008Y112330D01*
X144836Y112315D01*
X144684Y112290D01*
X144553Y112255D01*
X144441Y112210D01*
X144351Y112155D01*
X144280Y112090D01*
X144229Y112015D01*
X144199Y111930D01*
X144188Y111835D01*
Y113835D01*
X144199Y113740D01*
D02*
G37*
G36*
X128110Y112727D02*
X128083Y112636D01*
X128084Y112531D01*
X128113Y112411D01*
X128171Y112277D01*
X128257Y112128D01*
X128371Y111965D01*
X128514Y111788D01*
X128884Y111390D01*
X128177Y110683D01*
X127971Y110882D01*
X127602Y111196D01*
X127439Y111310D01*
X127290Y111396D01*
X127156Y111454D01*
X127036Y111483D01*
X126930Y111484D01*
X126839Y111457D01*
X126763Y111402D01*
X128165Y112804D01*
X128110Y112727D01*
D02*
G37*
G36*
X192637Y110250D02*
X192552Y110220D01*
X192477Y110169D01*
X192412Y110098D01*
X192357Y110007D01*
X192312Y109896D01*
X192277Y109764D01*
X192252Y109613D01*
X192237Y109441D01*
X192232Y109248D01*
X191232D01*
X191227Y109441D01*
X191212Y109613D01*
X191187Y109764D01*
X191152Y109896D01*
X191107Y110007D01*
X191052Y110098D01*
X190987Y110169D01*
X190912Y110220D01*
X190827Y110250D01*
X190732Y110260D01*
X192732D01*
X192637Y110250D01*
D02*
G37*
G36*
X186535D02*
X186450Y110220D01*
X186375Y110169D01*
X186310Y110098D01*
X186255Y110007D01*
X186210Y109896D01*
X186175Y109764D01*
X186150Y109613D01*
X186135Y109441D01*
X186130Y109248D01*
X185130D01*
X185125Y109441D01*
X185110Y109613D01*
X185085Y109764D01*
X185050Y109896D01*
X185005Y110007D01*
X184950Y110098D01*
X184885Y110169D01*
X184810Y110220D01*
X184725Y110250D01*
X184630Y110260D01*
X186630D01*
X186535Y110250D01*
D02*
G37*
G36*
X182788Y107295D02*
X182828Y106831D01*
X182862Y106643D01*
X182906Y106484D01*
X182960Y106353D01*
X183024Y106252D01*
X183097Y106180D01*
X183181Y106136D01*
X183274Y106122D01*
X181293D01*
X181386Y106136D01*
X181470Y106180D01*
X181543Y106252D01*
X181607Y106353D01*
X181661Y106484D01*
X181705Y106643D01*
X181739Y106831D01*
X181764Y107049D01*
X181779Y107295D01*
X181783Y107570D01*
X182783D01*
X182788Y107295D01*
D02*
G37*
G36*
X179639D02*
X179678Y106831D01*
X179712Y106643D01*
X179756Y106484D01*
X179810Y106353D01*
X179874Y106252D01*
X179948Y106180D01*
X180031Y106136D01*
X180124Y106122D01*
X178143D01*
X178237Y106136D01*
X178320Y106180D01*
X178393Y106252D01*
X178457Y106353D01*
X178511Y106484D01*
X178555Y106643D01*
X178590Y106831D01*
X178614Y107049D01*
X178629Y107295D01*
X178634Y107570D01*
X179634D01*
X179639Y107295D01*
D02*
G37*
G36*
X176489D02*
X176528Y106831D01*
X176563Y106643D01*
X176607Y106484D01*
X176661Y106353D01*
X176725Y106252D01*
X176798Y106180D01*
X176882Y106136D01*
X176975Y106122D01*
X174994D01*
X175087Y106136D01*
X175170Y106180D01*
X175244Y106252D01*
X175308Y106353D01*
X175362Y106484D01*
X175406Y106643D01*
X175440Y106831D01*
X175465Y107049D01*
X175479Y107295D01*
X175484Y107570D01*
X176484D01*
X176489Y107295D01*
D02*
G37*
G36*
X173339D02*
X173379Y106831D01*
X173413Y106643D01*
X173457Y106484D01*
X173511Y106353D01*
X173575Y106252D01*
X173649Y106180D01*
X173732Y106136D01*
X173825Y106122D01*
X171844D01*
X171937Y106136D01*
X172021Y106180D01*
X172094Y106252D01*
X172158Y106353D01*
X172212Y106484D01*
X172256Y106643D01*
X172291Y106831D01*
X172315Y107049D01*
X172330Y107295D01*
X172335Y107570D01*
X173335D01*
X173339Y107295D01*
D02*
G37*
G36*
X170190D02*
X170229Y106831D01*
X170264Y106643D01*
X170308Y106484D01*
X170362Y106353D01*
X170425Y106252D01*
X170499Y106180D01*
X170582Y106136D01*
X170676Y106122D01*
X168695D01*
X168788Y106136D01*
X168871Y106180D01*
X168945Y106252D01*
X169009Y106353D01*
X169062Y106484D01*
X169106Y106643D01*
X169141Y106831D01*
X169165Y107049D01*
X169180Y107295D01*
X169185Y107570D01*
X170185D01*
X170190Y107295D01*
D02*
G37*
G36*
X167040D02*
X167080Y106831D01*
X167114Y106643D01*
X167158Y106484D01*
X167212Y106353D01*
X167276Y106252D01*
X167349Y106180D01*
X167433Y106136D01*
X167526Y106122D01*
X165545D01*
X165638Y106136D01*
X165721Y106180D01*
X165795Y106252D01*
X165859Y106353D01*
X165913Y106484D01*
X165957Y106643D01*
X165991Y106831D01*
X166016Y107049D01*
X166031Y107295D01*
X166035Y107570D01*
X167035D01*
X167040Y107295D01*
D02*
G37*
G36*
X163891D02*
X163930Y106831D01*
X163964Y106643D01*
X164008Y106484D01*
X164062Y106353D01*
X164126Y106252D01*
X164200Y106180D01*
X164283Y106136D01*
X164376Y106122D01*
X162395D01*
X162488Y106136D01*
X162572Y106180D01*
X162645Y106252D01*
X162709Y106353D01*
X162763Y106484D01*
X162807Y106643D01*
X162842Y106831D01*
X162866Y107049D01*
X162881Y107295D01*
X162886Y107570D01*
X163886D01*
X163891Y107295D01*
D02*
G37*
G36*
X186130Y107451D02*
X186133Y107271D01*
X186159Y106940D01*
X186182Y106790D01*
X186211Y106650D01*
X186247Y106520D01*
X186289Y106400D01*
X186337Y106291D01*
X186393Y106191D01*
X186454Y106101D01*
X184637Y106360D01*
X184731Y106360D01*
X184815Y106389D01*
X184888Y106446D01*
X184952Y106533D01*
X185007Y106647D01*
X185051Y106791D01*
X185085Y106963D01*
X185110Y107164D01*
X185125Y107393D01*
X185130Y107651D01*
X186130Y107451D01*
D02*
G37*
G36*
X146425Y105031D02*
X146415Y105126D01*
X146384Y105211D01*
X146334Y105286D01*
X146263Y105351D01*
X146172Y105406D01*
X146060Y105451D01*
X145929Y105486D01*
X145777Y105511D01*
X145605Y105526D01*
X145413Y105531D01*
Y106531D01*
X145605Y106536D01*
X145777Y106551D01*
X145929Y106576D01*
X146060Y106611D01*
X146172Y106656D01*
X146263Y106711D01*
X146334Y106776D01*
X146384Y106851D01*
X146415Y106936D01*
X146425Y107031D01*
Y105031D01*
D02*
G37*
G36*
X32715Y97750D02*
X32473Y97988D01*
X32005Y98387D01*
X31780Y98550D01*
X31561Y98687D01*
X31356Y98795D01*
X31312Y98755D01*
X31262Y98680D01*
X31232Y98595D01*
X31222Y98500D01*
Y98853D01*
X31140Y98887D01*
X30937Y98950D01*
X30741Y98988D01*
X30551Y99000D01*
Y100000D01*
X30741Y100013D01*
X30937Y100050D01*
X31140Y100112D01*
X31222Y100147D01*
Y100500D01*
X31232Y100405D01*
X31262Y100320D01*
X31312Y100245D01*
X31356Y100205D01*
X31561Y100312D01*
X31780Y100450D01*
X32005Y100612D01*
X32236Y100800D01*
X32715Y101250D01*
Y97750D01*
D02*
G37*
G36*
X198012Y102073D02*
X197613Y101605D01*
X197450Y101380D01*
X197312Y101161D01*
X197200Y100947D01*
X197113Y100740D01*
X197050Y100538D01*
X197012Y100341D01*
X197000Y100151D01*
X196000D01*
X195987Y100341D01*
X195950Y100538D01*
X195887Y100740D01*
X195800Y100947D01*
X195687Y101161D01*
X195550Y101380D01*
X195387Y101605D01*
X195200Y101836D01*
X194750Y102315D01*
X198250D01*
X198012Y102073D01*
D02*
G37*
G36*
X192237Y99231D02*
X192252Y99059D01*
X192277Y98907D01*
X192312Y98776D01*
X192357Y98664D01*
X192412Y98573D01*
X192477Y98502D01*
X192552Y98452D01*
X192637Y98421D01*
X192732Y98411D01*
X190732D01*
X190827Y98421D01*
X190912Y98452D01*
X190987Y98502D01*
X191052Y98573D01*
X191107Y98664D01*
X191152Y98776D01*
X191187Y98907D01*
X191212Y99059D01*
X191227Y99231D01*
X191232Y99423D01*
X192232D01*
X192237Y99231D01*
D02*
G37*
G36*
X154508Y96254D02*
X154494Y96347D01*
X154450Y96430D01*
X154378Y96504D01*
X154276Y96567D01*
X154146Y96622D01*
X153987Y96666D01*
X153798Y96700D01*
X153581Y96724D01*
X153335Y96739D01*
X153060Y96744D01*
Y97744D01*
X153335Y97749D01*
X153798Y97788D01*
X153987Y97823D01*
X154146Y97867D01*
X154276Y97921D01*
X154378Y97984D01*
X154450Y98058D01*
X154494Y98141D01*
X154508Y98235D01*
Y96254D01*
D02*
G37*
G36*
X231439Y97189D02*
X231039Y96720D01*
X230877Y96495D01*
X230740Y96275D01*
X230627Y96061D01*
X230540Y95853D01*
X230478Y95651D01*
X230440Y95455D01*
X230428Y95265D01*
X229428Y95262D01*
X229415Y95453D01*
X229378Y95649D01*
X229315Y95851D01*
X229227Y96059D01*
X229115Y96272D01*
X228977Y96491D01*
X228814Y96715D01*
X228627Y96946D01*
X228176Y97423D01*
X231676Y97432D01*
X231439Y97189D01*
D02*
G37*
G36*
X211455Y97215D02*
X212131Y96643D01*
X212318Y96519D01*
X212485Y96429D01*
X212632Y96371D01*
X212760Y96348D01*
X212869Y96357D01*
X212958Y96400D01*
X211359Y95195D01*
X211423Y95263D01*
X211457Y95347D01*
X211460Y95448D01*
X211434Y95565D01*
X211377Y95698D01*
X211290Y95847D01*
X211173Y96013D01*
X211025Y96196D01*
X210640Y96609D01*
X211190Y97473D01*
X211455Y97215D01*
D02*
G37*
G36*
X195510Y95196D02*
X195320Y95000D01*
X195022Y94647D01*
X194914Y94490D01*
X194833Y94346D01*
X194779Y94215D01*
X194751Y94098D01*
X194751Y93994D01*
X194778Y93903D01*
X194832Y93825D01*
X193466Y95262D01*
X193540Y95204D01*
X193628Y95173D01*
X193728Y95170D01*
X193842Y95193D01*
X193970Y95244D01*
X194110Y95322D01*
X194263Y95427D01*
X194430Y95559D01*
X194610Y95717D01*
X194803Y95903D01*
X195510Y95196D01*
D02*
G37*
G36*
X230433Y94818D02*
X230448Y94646D01*
X230473Y94494D01*
X230508Y94363D01*
X230553Y94251D01*
X230608Y94160D01*
X230673Y94089D01*
X230748Y94039D01*
X230833Y94008D01*
X230928Y93998D01*
X228928D01*
X229023Y94008D01*
X229108Y94039D01*
X229183Y94089D01*
X229248Y94160D01*
X229303Y94251D01*
X229348Y94363D01*
X229383Y94494D01*
X229408Y94646D01*
X229423Y94818D01*
X229428Y95010D01*
X230428D01*
X230433Y94818D01*
D02*
G37*
G36*
X222755Y95558D02*
X222785Y95473D01*
X222836Y95398D01*
X222906Y95333D01*
X222997Y95278D01*
X223109Y95233D01*
X223240Y95198D01*
X223392Y95173D01*
X223564Y95158D01*
X223757Y95153D01*
Y94153D01*
X223564Y94148D01*
X223392Y94133D01*
X223240Y94108D01*
X223109Y94073D01*
X222997Y94028D01*
X222906Y93973D01*
X222836Y93908D01*
X222785Y93833D01*
X222755Y93748D01*
X222744Y93653D01*
Y95653D01*
X222755Y95558D01*
D02*
G37*
G36*
X218856Y93653D02*
X218845Y93748D01*
X218815Y93833D01*
X218764Y93908D01*
X218694Y93973D01*
X218602Y94028D01*
X218491Y94073D01*
X218360Y94108D01*
X218208Y94133D01*
X218036Y94148D01*
X217844Y94153D01*
Y95153D01*
X218036Y95158D01*
X218208Y95173D01*
X218360Y95198D01*
X218491Y95233D01*
X218602Y95278D01*
X218694Y95333D01*
X218764Y95398D01*
X218815Y95473D01*
X218845Y95558D01*
X218856Y95653D01*
Y93653D01*
D02*
G37*
G36*
X215651Y95558D02*
X215682Y95473D01*
X215732Y95398D01*
X215803Y95333D01*
X215894Y95278D01*
X216006Y95233D01*
X216137Y95198D01*
X216289Y95173D01*
X216461Y95158D01*
X216653Y95153D01*
Y94153D01*
X216461Y94148D01*
X216289Y94133D01*
X216137Y94108D01*
X216006Y94073D01*
X215894Y94028D01*
X215803Y93973D01*
X215732Y93908D01*
X215682Y93833D01*
X215651Y93748D01*
X215641Y93653D01*
Y95653D01*
X215651Y95558D01*
D02*
G37*
G36*
X154508Y93104D02*
X154494Y93197D01*
X154450Y93281D01*
X154378Y93354D01*
X154276Y93418D01*
X154146Y93472D01*
X153987Y93516D01*
X153798Y93550D01*
X153581Y93575D01*
X153335Y93590D01*
X153060Y93594D01*
Y94595D01*
X153335Y94599D01*
X153798Y94639D01*
X153987Y94673D01*
X154146Y94717D01*
X154276Y94771D01*
X154378Y94835D01*
X154450Y94908D01*
X154494Y94992D01*
X154508Y95085D01*
Y93104D01*
D02*
G37*
G36*
X225612Y94530D02*
X225955Y94232D01*
X226105Y94121D01*
X226241Y94037D01*
X226362Y93977D01*
X226469Y93944D01*
X226562Y93937D01*
X226640Y93955D01*
X226704Y93998D01*
X225431Y92725D01*
X225475Y92789D01*
X225493Y92867D01*
X225485Y92960D01*
X225452Y93067D01*
X225393Y93188D01*
X225308Y93324D01*
X225197Y93474D01*
X225061Y93638D01*
X224712Y94010D01*
X225419Y94717D01*
X225612Y94530D01*
D02*
G37*
G36*
X186602Y92447D02*
X187078Y92051D01*
X187307Y91890D01*
X187529Y91754D01*
X187651Y91691D01*
X187718Y91759D01*
X187761Y91842D01*
X187776Y91935D01*
Y91629D01*
X187953Y91556D01*
X188155Y91494D01*
X188351Y91457D01*
X188540Y91445D01*
X188558Y90445D01*
X188366Y90432D01*
X188169Y90394D01*
X187967Y90331D01*
X187776Y90249D01*
Y89954D01*
X187761Y90048D01*
X187718Y90131D01*
X187661Y90189D01*
X187549Y90129D01*
X187332Y89990D01*
X187111Y89826D01*
X186884Y89637D01*
X186416Y89182D01*
X186394Y90444D01*
X186328Y90445D01*
Y91445D01*
X186376Y91446D01*
X186354Y92682D01*
X186602Y92447D01*
D02*
G37*
G36*
X154508Y89954D02*
X154494Y90048D01*
X154450Y90131D01*
X154378Y90205D01*
X154276Y90268D01*
X154146Y90322D01*
X153987Y90366D01*
X153798Y90401D01*
X153581Y90425D01*
X153335Y90440D01*
X153060Y90445D01*
Y91445D01*
X153335Y91450D01*
X153798Y91489D01*
X153987Y91523D01*
X154146Y91567D01*
X154276Y91622D01*
X154378Y91685D01*
X154450Y91759D01*
X154494Y91842D01*
X154508Y91935D01*
Y89954D01*
D02*
G37*
G36*
X237384Y91715D02*
X236984Y91248D01*
X236822Y91023D01*
X236684Y90803D01*
X236572Y90590D01*
X236484Y90382D01*
X236422Y90180D01*
X236421Y90174D01*
X236452Y90059D01*
X236497Y89949D01*
X236552Y89859D01*
X236617Y89789D01*
X236692Y89739D01*
X236777Y89709D01*
X236872Y89699D01*
X234872D01*
X234967Y89709D01*
X235052Y89739D01*
X235127Y89789D01*
X235192Y89859D01*
X235247Y89949D01*
X235292Y90059D01*
X235323Y90174D01*
X235322Y90180D01*
X235259Y90382D01*
X235172Y90590D01*
X235059Y90803D01*
X234922Y91023D01*
X234759Y91248D01*
X234572Y91478D01*
X234122Y91957D01*
X237622D01*
X237384Y91715D01*
D02*
G37*
G36*
X198947Y88256D02*
X198937Y88351D01*
X198907Y88436D01*
X198856Y88511D01*
X198785Y88576D01*
X198694Y88631D01*
X198583Y88676D01*
X198451Y88711D01*
X198299Y88736D01*
X198127Y88751D01*
X197935Y88756D01*
Y89756D01*
X198127Y89761D01*
X198299Y89776D01*
X198451Y89801D01*
X198583Y89836D01*
X198694Y89881D01*
X198785Y89936D01*
X198856Y90001D01*
X198907Y90076D01*
X198937Y90161D01*
X198947Y90256D01*
Y88256D01*
D02*
G37*
G36*
X211359Y87944D02*
X211349Y88039D01*
X211318Y88124D01*
X211268Y88199D01*
X211197Y88264D01*
X211106Y88319D01*
X210994Y88364D01*
X210863Y88399D01*
X210711Y88424D01*
X210539Y88439D01*
X210347Y88444D01*
Y89444D01*
X210539Y89449D01*
X210711Y89464D01*
X210863Y89489D01*
X210994Y89524D01*
X211106Y89569D01*
X211197Y89624D01*
X211268Y89689D01*
X211318Y89764D01*
X211349Y89849D01*
X211359Y89944D01*
Y87944D01*
D02*
G37*
G36*
X205090Y89849D02*
X205121Y89764D01*
X205171Y89689D01*
X205242Y89624D01*
X205333Y89569D01*
X205445Y89524D01*
X205576Y89489D01*
X205728Y89464D01*
X205900Y89449D01*
X206092Y89444D01*
Y88444D01*
X205900Y88439D01*
X205728Y88424D01*
X205576Y88399D01*
X205445Y88364D01*
X205333Y88319D01*
X205242Y88264D01*
X205171Y88199D01*
X205121Y88124D01*
X205090Y88039D01*
X205080Y87944D01*
Y89944D01*
X205090Y89849D01*
D02*
G37*
G36*
X218856Y87747D02*
X218845Y87842D01*
X218815Y87927D01*
X218764Y88002D01*
X218694Y88067D01*
X218602Y88122D01*
X218491Y88167D01*
X218360Y88202D01*
X218208Y88227D01*
X218036Y88242D01*
X217844Y88247D01*
Y89247D01*
X218036Y89252D01*
X218208Y89267D01*
X218360Y89292D01*
X218491Y89327D01*
X218602Y89372D01*
X218694Y89427D01*
X218764Y89492D01*
X218815Y89567D01*
X218845Y89652D01*
X218856Y89747D01*
Y87747D01*
D02*
G37*
G36*
X215651Y89652D02*
X215682Y89567D01*
X215732Y89492D01*
X215803Y89427D01*
X215894Y89372D01*
X216006Y89327D01*
X216137Y89292D01*
X216289Y89267D01*
X216461Y89252D01*
X216653Y89247D01*
Y88247D01*
X216461Y88242D01*
X216289Y88227D01*
X216137Y88202D01*
X216006Y88167D01*
X215894Y88122D01*
X215803Y88067D01*
X215732Y88002D01*
X215682Y87927D01*
X215651Y87842D01*
X215641Y87747D01*
Y89747D01*
X215651Y89652D01*
D02*
G37*
G36*
X194325Y88693D02*
X194369Y88609D01*
X194441Y88536D01*
X194543Y88472D01*
X194673Y88418D01*
X194832Y88374D01*
X195020Y88339D01*
X195238Y88315D01*
X195484Y88300D01*
X195759Y88295D01*
Y87295D01*
X195484Y87290D01*
X195020Y87251D01*
X194832Y87217D01*
X194673Y87173D01*
X194543Y87119D01*
X194441Y87055D01*
X194369Y86981D01*
X194325Y86898D01*
X194311Y86805D01*
Y88786D01*
X194325Y88693D01*
D02*
G37*
G36*
X154508Y86805D02*
X154494Y86898D01*
X154450Y86981D01*
X154378Y87055D01*
X154276Y87119D01*
X154146Y87173D01*
X153987Y87217D01*
X153798Y87251D01*
X153581Y87276D01*
X153335Y87290D01*
X153060Y87295D01*
Y88295D01*
X153335Y88300D01*
X153798Y88339D01*
X153987Y88374D01*
X154146Y88418D01*
X154276Y88472D01*
X154378Y88536D01*
X154450Y88609D01*
X154494Y88693D01*
X154508Y88786D01*
Y86805D01*
D02*
G37*
G36*
X222700Y88029D02*
X222672Y87937D01*
Y87831D01*
X222700Y87710D01*
X222757Y87576D01*
X222841Y87428D01*
X222955Y87265D01*
X223096Y87088D01*
X223464Y86692D01*
X222757Y85985D01*
X222551Y86183D01*
X222184Y86494D01*
X222021Y86607D01*
X221873Y86692D01*
X221738Y86749D01*
X221618Y86777D01*
X221512D01*
X221420Y86749D01*
X221342Y86692D01*
X222757Y88107D01*
X222700Y88029D01*
D02*
G37*
G36*
X233933Y85589D02*
X233924Y85619D01*
X233893Y85646D01*
X233843Y85669D01*
X233773Y85690D01*
X233683Y85707D01*
X233574Y85721D01*
X233294Y85740D01*
X232933Y85746D01*
Y86746D01*
X233125Y86751D01*
X233297Y86766D01*
X233448Y86791D01*
X233579Y86826D01*
X233691Y86871D01*
X233782Y86926D01*
X233853Y86991D01*
X233904Y87066D01*
X233935Y87151D01*
X233945Y87246D01*
X233933Y85589D01*
D02*
G37*
G36*
X186401Y86147D02*
X186878Y85752D01*
X187106Y85591D01*
X187328Y85455D01*
X187544Y85343D01*
X187564Y85335D01*
X187645Y85386D01*
X187718Y85460D01*
X187761Y85543D01*
X187776Y85636D01*
Y85250D01*
X187955Y85195D01*
X188151Y85158D01*
X188340Y85146D01*
X188358Y84146D01*
X188166Y84133D01*
X187969Y84095D01*
X187776Y84035D01*
Y83655D01*
X187761Y83748D01*
X187718Y83832D01*
X187645Y83905D01*
X187575Y83950D01*
X187561Y83944D01*
X187349Y83830D01*
X187132Y83691D01*
X186911Y83527D01*
X186685Y83337D01*
X186217Y82883D01*
X186153Y86382D01*
X186401Y86147D01*
D02*
G37*
G36*
X154508Y83655D02*
X154494Y83748D01*
X154450Y83832D01*
X154378Y83905D01*
X154276Y83969D01*
X154146Y84023D01*
X153987Y84067D01*
X153798Y84101D01*
X153581Y84126D01*
X153335Y84141D01*
X153060Y84146D01*
Y85146D01*
X153335Y85151D01*
X153798Y85190D01*
X153987Y85224D01*
X154146Y85268D01*
X154276Y85322D01*
X154378Y85386D01*
X154450Y85460D01*
X154494Y85543D01*
X154508Y85636D01*
Y83655D01*
D02*
G37*
G36*
X223464Y83008D02*
X223266Y82803D01*
X222955Y82435D01*
X222841Y82272D01*
X222757Y82124D01*
X222700Y81990D01*
X222672Y81869D01*
Y81763D01*
X222700Y81671D01*
X222757Y81594D01*
X221342Y83008D01*
X221420Y82951D01*
X221512Y82923D01*
X221618D01*
X221738Y82951D01*
X221873Y83008D01*
X222021Y83093D01*
X222184Y83206D01*
X222361Y83347D01*
X222757Y83715D01*
X223464Y83008D01*
D02*
G37*
G36*
X233945Y82135D02*
X233935Y82230D01*
X233904Y82315D01*
X233853Y82390D01*
X233782Y82455D01*
X233691Y82510D01*
X233579Y82555D01*
X233448Y82590D01*
X233297Y82615D01*
X233125Y82630D01*
X232933Y82635D01*
Y83635D01*
X233123Y83637D01*
X233683Y83675D01*
X233773Y83692D01*
X233843Y83713D01*
X233893Y83736D01*
X233924Y83763D01*
X233933Y83793D01*
X233945Y82135D01*
D02*
G37*
G36*
X194325Y82393D02*
X194369Y82310D01*
X194441Y82236D01*
X194543Y82173D01*
X194673Y82119D01*
X194832Y82074D01*
X195020Y82040D01*
X195238Y82016D01*
X195484Y82001D01*
X195759Y81996D01*
Y80996D01*
X195484Y80991D01*
X195020Y80952D01*
X194832Y80918D01*
X194673Y80873D01*
X194543Y80819D01*
X194441Y80756D01*
X194369Y80682D01*
X194325Y80599D01*
X194311Y80506D01*
Y82486D01*
X194325Y82393D01*
D02*
G37*
G36*
X154508Y80506D02*
X154494Y80599D01*
X154450Y80682D01*
X154378Y80756D01*
X154276Y80819D01*
X154146Y80873D01*
X153987Y80918D01*
X153798Y80952D01*
X153581Y80976D01*
X153335Y80991D01*
X153060Y80996D01*
Y81996D01*
X153335Y82001D01*
X153798Y82040D01*
X153987Y82074D01*
X154146Y82119D01*
X154276Y82173D01*
X154378Y82236D01*
X154450Y82310D01*
X154494Y82393D01*
X154508Y82486D01*
Y80506D01*
D02*
G37*
G36*
X199270Y81775D02*
X199344Y81713D01*
X199415Y81663D01*
X199482Y81625D01*
X199545Y81599D01*
X199604Y81586D01*
X199659Y81585D01*
X199710Y81597D01*
X199757Y81620D01*
X199800Y81656D01*
X199020Y80270D01*
X199027Y80326D01*
X199021Y80390D01*
X199001Y80461D01*
X198968Y80538D01*
X198921Y80622D01*
X198860Y80712D01*
X198786Y80810D01*
X198598Y81025D01*
X198484Y81142D01*
X199191Y81850D01*
X199270Y81775D01*
D02*
G37*
G36*
X180050Y81555D02*
X180025Y81479D01*
X180015Y81400D01*
X180019Y81318D01*
X180038Y81233D01*
X180071Y81146D01*
X180120Y81055D01*
X180183Y80962D01*
X180261Y80866D01*
X180353Y80768D01*
X179647Y80061D01*
X179525Y80177D01*
X179293Y80368D01*
X179183Y80441D01*
X179078Y80500D01*
X178977Y80544D01*
X178880Y80574D01*
X178787Y80589D01*
X178698Y80590D01*
X178613Y80576D01*
X180090Y81629D01*
X180050Y81555D01*
D02*
G37*
G36*
X168026Y81983D02*
X167628Y81512D01*
X167466Y81285D01*
X167329Y81065D01*
X167217Y80851D01*
X167130Y80643D01*
X167068Y80440D01*
X167030Y80244D01*
X167018Y80054D01*
X166018Y80047D01*
X166005Y80238D01*
X165968Y80435D01*
X165905Y80637D01*
X165817Y80844D01*
X165704Y81057D01*
X165566Y81275D01*
X165403Y81499D01*
X165215Y81728D01*
X164763Y82202D01*
X168263Y82227D01*
X168026Y81983D01*
D02*
G37*
G36*
X218856Y79953D02*
X218845Y80048D01*
X218815Y80133D01*
X218764Y80208D01*
X218694Y80273D01*
X218602Y80328D01*
X218491Y80373D01*
X218360Y80408D01*
X218208Y80433D01*
X218036Y80448D01*
X217844Y80453D01*
Y81453D01*
X218036Y81458D01*
X218208Y81473D01*
X218360Y81498D01*
X218491Y81533D01*
X218602Y81578D01*
X218694Y81633D01*
X218764Y81698D01*
X218815Y81773D01*
X218845Y81858D01*
X218856Y81953D01*
Y79953D01*
D02*
G37*
G36*
X215651Y81858D02*
X215682Y81773D01*
X215732Y81698D01*
X215803Y81633D01*
X215894Y81578D01*
X216006Y81533D01*
X216137Y81498D01*
X216289Y81473D01*
X216461Y81458D01*
X216653Y81453D01*
Y80453D01*
X216461Y80448D01*
X216289Y80433D01*
X216137Y80408D01*
X216006Y80373D01*
X215894Y80328D01*
X215803Y80273D01*
X215732Y80208D01*
X215682Y80133D01*
X215651Y80048D01*
X215641Y79953D01*
Y81953D01*
X215651Y81858D01*
D02*
G37*
G36*
X211359Y79756D02*
X211349Y79851D01*
X211318Y79936D01*
X211268Y80011D01*
X211197Y80076D01*
X211106Y80131D01*
X210994Y80176D01*
X210863Y80211D01*
X210711Y80236D01*
X210539Y80251D01*
X210347Y80256D01*
Y81256D01*
X210539Y81261D01*
X210711Y81276D01*
X210863Y81301D01*
X210994Y81336D01*
X211106Y81381D01*
X211197Y81436D01*
X211268Y81501D01*
X211318Y81576D01*
X211349Y81661D01*
X211359Y81756D01*
Y79756D01*
D02*
G37*
G36*
X32715Y75750D02*
X32473Y75987D01*
X32005Y76388D01*
X31780Y76550D01*
X31561Y76688D01*
X31368Y76789D01*
X31332Y76755D01*
X31282Y76680D01*
X31252Y76595D01*
X31242Y76500D01*
Y76844D01*
X31140Y76888D01*
X30937Y76950D01*
X30741Y76987D01*
X30551Y77000D01*
Y78000D01*
X30741Y78013D01*
X30937Y78050D01*
X31140Y78113D01*
X31242Y78156D01*
Y78500D01*
X31252Y78405D01*
X31282Y78320D01*
X31332Y78245D01*
X31368Y78211D01*
X31561Y78312D01*
X31780Y78450D01*
X32005Y78613D01*
X32236Y78800D01*
X32715Y79250D01*
Y75750D01*
D02*
G37*
G36*
X236403Y79761D02*
X236415Y79696D01*
X236890D01*
X236795Y79685D01*
X236710Y79655D01*
X236635Y79605D01*
X236570Y79534D01*
X236515Y79443D01*
X236494Y79390D01*
X236503Y79362D01*
X236590Y79154D01*
X236702Y78941D01*
X236840Y78722D01*
X237002Y78497D01*
X237190Y78266D01*
X237640Y77787D01*
X234140D01*
X234378Y78029D01*
X234777Y78497D01*
X234940Y78722D01*
X235078Y78941D01*
X235190Y79154D01*
X235278Y79362D01*
X235286Y79390D01*
X235265Y79443D01*
X235210Y79534D01*
X235145Y79605D01*
X235070Y79655D01*
X234985Y79685D01*
X234890Y79696D01*
X235365D01*
X235378Y79761D01*
X235390Y79951D01*
X236390D01*
X236403Y79761D01*
D02*
G37*
G36*
X186612Y79892D02*
X187047Y79479D01*
X187260Y79311D01*
X187470Y79169D01*
X187632Y79078D01*
X187645Y79087D01*
X187718Y79160D01*
X187761Y79244D01*
X187776Y79337D01*
Y79009D01*
X187881Y78963D01*
X188083Y78898D01*
X188281Y78859D01*
X188476Y78847D01*
X188413Y77846D01*
X188228Y77834D01*
X188034Y77798D01*
X187831Y77738D01*
X187776Y77716D01*
Y77356D01*
X187761Y77449D01*
X187718Y77533D01*
X187645Y77606D01*
X187592Y77640D01*
X187401Y77546D01*
X187173Y77413D01*
X186936Y77257D01*
X186437Y76872D01*
X186174Y76644D01*
X186390Y80137D01*
X186612Y79892D01*
D02*
G37*
G36*
X154819Y77219D02*
X154770Y77302D01*
X154706Y77357D01*
X154627Y77382D01*
X154533Y77379D01*
X154424Y77346D01*
X154300Y77285D01*
X154160Y77194D01*
X154006Y77075D01*
X153836Y76926D01*
X153687Y76783D01*
X153571Y76650D01*
X153458Y76484D01*
X153360Y76297D01*
X153275Y76089D01*
X153203Y75858D01*
X153145Y75606D01*
X153101Y75332D01*
X153070Y75036D01*
X153050Y74379D01*
X150575Y76854D01*
X150915Y76857D01*
X151528Y76905D01*
X151802Y76949D01*
X152054Y77007D01*
X152285Y77078D01*
X152493Y77163D01*
X152681Y77262D01*
X152846Y77375D01*
X152989Y77500D01*
X153592Y76898D01*
X153247Y77759D01*
X153367Y77881D01*
X153680Y78243D01*
X153769Y78362D01*
X153923Y78595D01*
X153989Y78710D01*
X154097Y78936D01*
X154819Y77219D01*
D02*
G37*
G36*
X17527Y79013D02*
X17995Y78613D01*
X18220Y78450D01*
X18439Y78312D01*
X18631Y78211D01*
X18667Y78245D01*
X18718Y78320D01*
X18748Y78405D01*
X18758Y78500D01*
Y78155D01*
X18860Y78113D01*
X19062Y78050D01*
X19259Y78013D01*
X19450Y78000D01*
Y77000D01*
X19259Y76987D01*
X19062Y76950D01*
X18860Y76888D01*
X18758Y76845D01*
Y76500D01*
X18748Y76595D01*
X18718Y76680D01*
X18667Y76755D01*
X18631Y76789D01*
X18439Y76688D01*
X18220Y76550D01*
X17995Y76388D01*
X17764Y76200D01*
X17285Y75750D01*
Y79250D01*
X17527Y79013D01*
D02*
G37*
G36*
X226416Y75406D02*
X226379Y75426D01*
X226327Y75426D01*
X226261Y75406D01*
X226182Y75365D01*
X226088Y75305D01*
X225979Y75224D01*
X225721Y75002D01*
X225406Y74699D01*
X224699Y75406D01*
X224860Y75570D01*
X225305Y76088D01*
X225365Y76182D01*
X225406Y76261D01*
X225426Y76327D01*
X225426Y76379D01*
X225406Y76416D01*
X226416Y75406D01*
D02*
G37*
G36*
X230821Y75396D02*
X230736Y75366D01*
X230661Y75316D01*
X230596Y75246D01*
X230541Y75156D01*
X230496Y75046D01*
X230461Y74916D01*
X230436Y74766D01*
X230421Y74596D01*
X230416Y74406D01*
X229416D01*
X229411Y74596D01*
X229396Y74766D01*
X229371Y74916D01*
X229336Y75046D01*
X229291Y75156D01*
X229236Y75246D01*
X229171Y75316D01*
X229096Y75366D01*
X229011Y75396D01*
X228916Y75406D01*
X230916D01*
X230821Y75396D01*
D02*
G37*
G36*
X218856Y74047D02*
X218845Y74142D01*
X218815Y74227D01*
X218764Y74302D01*
X218694Y74367D01*
X218602Y74422D01*
X218491Y74467D01*
X218360Y74502D01*
X218208Y74527D01*
X218036Y74542D01*
X217844Y74547D01*
Y75547D01*
X218036Y75552D01*
X218208Y75567D01*
X218360Y75592D01*
X218491Y75627D01*
X218602Y75672D01*
X218694Y75727D01*
X218764Y75792D01*
X218815Y75867D01*
X218845Y75952D01*
X218856Y76047D01*
Y74047D01*
D02*
G37*
G36*
X215651Y75952D02*
X215682Y75867D01*
X215732Y75792D01*
X215803Y75727D01*
X215894Y75672D01*
X216006Y75627D01*
X216137Y75592D01*
X216289Y75567D01*
X216461Y75552D01*
X216653Y75547D01*
Y74547D01*
X216461Y74542D01*
X216289Y74527D01*
X216137Y74502D01*
X216006Y74467D01*
X215894Y74422D01*
X215803Y74367D01*
X215732Y74302D01*
X215682Y74227D01*
X215651Y74142D01*
X215641Y74047D01*
Y76047D01*
X215651Y75952D01*
D02*
G37*
G36*
X222755Y75805D02*
X222785Y75721D01*
X222836Y75646D01*
X222906Y75581D01*
X222997Y75525D01*
X223109Y75481D01*
X223240Y75445D01*
X223392Y75420D01*
X223564Y75406D01*
X223757Y75401D01*
Y74401D01*
X223564Y74396D01*
X223392Y74380D01*
X223240Y74356D01*
X223109Y74321D01*
X222997Y74275D01*
X222906Y74221D01*
X222836Y74155D01*
X222785Y74080D01*
X222755Y73996D01*
X222744Y73901D01*
Y75901D01*
X222755Y75805D01*
D02*
G37*
G36*
X212761Y73300D02*
X212684Y73355D01*
X212593Y73382D01*
X212488Y73381D01*
X212368Y73351D01*
X212233Y73294D01*
X212085Y73208D01*
X211922Y73093D01*
X211744Y72951D01*
X211347Y72581D01*
X210640Y73288D01*
X210839Y73494D01*
X211152Y73863D01*
X211267Y74026D01*
X211353Y74174D01*
X211410Y74309D01*
X211440Y74429D01*
X211441Y74534D01*
X211414Y74625D01*
X211359Y74702D01*
X212761Y73300D01*
D02*
G37*
G36*
X158681Y74019D02*
X158596Y73989D01*
X158521Y73939D01*
X158456Y73868D01*
X158401Y73777D01*
X158356Y73665D01*
X158321Y73534D01*
X158296Y73382D01*
X158281Y73210D01*
X158276Y73018D01*
X157276D01*
X157271Y73210D01*
X157256Y73382D01*
X157231Y73534D01*
X157196Y73665D01*
X157151Y73777D01*
X157096Y73868D01*
X157031Y73939D01*
X156956Y73989D01*
X156871Y74019D01*
X156776Y74030D01*
X158776D01*
X158681Y74019D01*
D02*
G37*
G36*
X182788Y74027D02*
X182828Y73564D01*
X182862Y73375D01*
X182906Y73216D01*
X182960Y73086D01*
X183024Y72984D01*
X183097Y72912D01*
X183181Y72869D01*
X183274Y72854D01*
X181293D01*
X181386Y72869D01*
X181470Y72912D01*
X181543Y72984D01*
X181607Y73086D01*
X181661Y73216D01*
X181705Y73375D01*
X181739Y73564D01*
X181764Y73781D01*
X181779Y74027D01*
X181783Y74302D01*
X182783D01*
X182788Y74027D01*
D02*
G37*
G36*
X167023Y74036D02*
X167062Y73574D01*
X167096Y73387D01*
X167140Y73229D01*
X167194Y73101D01*
X167258Y73001D01*
X167332Y72931D01*
X167415Y72889D01*
X167508Y72877D01*
X165527Y72831D01*
X165620Y72848D01*
X165704Y72893D01*
X165777Y72967D01*
X165841Y73071D01*
X165895Y73203D01*
X165939Y73364D01*
X165974Y73553D01*
X165998Y73772D01*
X166018Y74295D01*
X167018Y74310D01*
X167023Y74036D01*
D02*
G37*
G36*
X210958Y72192D02*
X210855Y72075D01*
X210752Y71930D01*
X210648Y71757D01*
X210543Y71555D01*
X210334Y71067D01*
X210228Y70781D01*
X209909Y69753D01*
X208218Y72817D01*
X208510Y72739D01*
X208788Y72685D01*
X209050Y72654D01*
X209297Y72648D01*
X209529Y72665D01*
X209746Y72706D01*
X209947Y72771D01*
X210133Y72860D01*
X210304Y72972D01*
X210460Y73108D01*
X210958Y72192D01*
D02*
G37*
G36*
X178306Y73977D02*
X178559Y73768D01*
X178685Y73680D01*
X178811Y73603D01*
X178937Y73537D01*
X179063Y73482D01*
X179188Y73438D01*
X179314Y73405D01*
X179439Y73383D01*
X177967Y72202D01*
X178030Y72271D01*
X178067Y72352D01*
X178076Y72447D01*
X178058Y72555D01*
X178013Y72677D01*
X177941Y72812D01*
X177842Y72959D01*
X177716Y73120D01*
X177562Y73295D01*
X177381Y73482D01*
X178180Y74098D01*
X178306Y73977D01*
D02*
G37*
G36*
X192823Y74023D02*
X192722Y74001D01*
X192650Y73965D01*
X192607Y73915D01*
X192593Y73850D01*
X192607Y73771D01*
X192639Y73702D01*
X192824Y73612D01*
X193029Y73542D01*
X193250Y73494D01*
X193488Y73468D01*
X193743Y73464D01*
X194014Y73481D01*
X194303Y73519D01*
X194609Y73580D01*
X192712Y70638D01*
X192633Y71002D01*
X192374Y71935D01*
X192281Y72193D01*
X192084Y72630D01*
X191980Y72809D01*
X191873Y72961D01*
X191762Y73087D01*
X191905Y73311D01*
X191538D01*
X191394Y73447D01*
X191251Y73569D01*
X191109Y73677D01*
X190967Y73771D01*
X190825Y73850D01*
X190684Y73915D01*
X190543Y73965D01*
X190403Y74001D01*
X190263Y74023D01*
X190124Y74030D01*
X192952D01*
X192823Y74023D01*
D02*
G37*
G36*
X226679Y68295D02*
X226480Y68089D01*
X226167Y67720D01*
X226052Y67557D01*
X225966Y67408D01*
X225908Y67274D01*
X225879Y67154D01*
X225878Y67049D01*
X225905Y66958D01*
X225960Y66881D01*
X224558Y68283D01*
X224635Y68228D01*
X224726Y68201D01*
X224831Y68202D01*
X224951Y68231D01*
X225085Y68289D01*
X225234Y68375D01*
X225397Y68489D01*
X225574Y68632D01*
X225972Y69002D01*
X226679Y68295D01*
D02*
G37*
G36*
X229052Y64373D02*
X228819Y64614D01*
X228366Y65020D01*
X228146Y65185D01*
X227931Y65324D01*
X227720Y65439D01*
X227514Y65527D01*
X227312Y65591D01*
X227115Y65629D01*
X226936Y65641D01*
X226780Y65637D01*
X226608Y65622D01*
X226456Y65597D01*
X226325Y65562D01*
X226213Y65517D01*
X226122Y65462D01*
X226051Y65397D01*
X226001Y65322D01*
X225970Y65237D01*
X225960Y65142D01*
Y67142D01*
X225970Y67047D01*
X226001Y66962D01*
X226051Y66887D01*
X226122Y66822D01*
X226213Y66767D01*
X226325Y66722D01*
X226456Y66687D01*
X226608Y66662D01*
X226780Y66647D01*
X226956Y66642D01*
X227138Y66654D01*
X227334Y66691D01*
X227536Y66752D01*
X227745Y66839D01*
X227962Y66949D01*
X228185Y67084D01*
X228415Y67244D01*
X228652Y67429D01*
X229148Y67872D01*
X229052Y64373D01*
D02*
G37*
G36*
X193258Y67472D02*
X193418Y67335D01*
X193490Y67283D01*
X193556Y67242D01*
X193617Y67212D01*
X193673Y67194D01*
X193723Y67186D01*
X193768Y67189D01*
X193807Y67204D01*
X192816Y66213D01*
X192831Y66252D01*
X192834Y66297D01*
X192827Y66347D01*
X192808Y66403D01*
X192778Y66464D01*
X192737Y66531D01*
X192685Y66602D01*
X192622Y66680D01*
X192463Y66851D01*
X193170Y67558D01*
X193258Y67472D01*
D02*
G37*
G36*
X186599Y68109D02*
X186620Y68024D01*
X186664Y67949D01*
X186731Y67884D01*
X186821Y67829D01*
X186933Y67784D01*
X187069Y67749D01*
X187227Y67724D01*
X187408Y67709D01*
X187612Y67704D01*
X187583Y66704D01*
X187358Y66699D01*
X186976Y66660D01*
X186819Y66625D01*
X186683Y66581D01*
X186570Y66527D01*
X186479Y66463D01*
X186411Y66389D01*
X186365Y66305D01*
X186341Y66211D01*
X186600Y68204D01*
X186599Y68109D01*
D02*
G37*
G36*
X173104Y65798D02*
X173026Y65852D01*
X172935Y65879D01*
X172831Y65879D01*
X172714Y65851D01*
X172583Y65797D01*
X172440Y65716D01*
X172283Y65608D01*
X172113Y65472D01*
X171929Y65310D01*
X171733Y65120D01*
X171026Y65827D01*
X171212Y66020D01*
X171503Y66367D01*
X171607Y66520D01*
X171685Y66660D01*
X171736Y66788D01*
X171759Y66901D01*
X171756Y67002D01*
X171725Y67090D01*
X171668Y67164D01*
X173104Y65798D01*
D02*
G37*
G36*
X169954D02*
X169876Y65852D01*
X169785Y65879D01*
X169681Y65879D01*
X169564Y65851D01*
X169434Y65797D01*
X169290Y65716D01*
X169133Y65608D01*
X168963Y65472D01*
X168780Y65310D01*
X168583Y65120D01*
X167876Y65827D01*
X168062Y66020D01*
X168353Y66367D01*
X168458Y66520D01*
X168535Y66660D01*
X168586Y66788D01*
X168610Y66901D01*
X168606Y67002D01*
X168576Y67090D01*
X168518Y67164D01*
X169954Y65798D01*
D02*
G37*
G36*
X216547Y65142D02*
X216537Y65237D01*
X216507Y65322D01*
X216457Y65397D01*
X216387Y65462D01*
X216297Y65517D01*
X216187Y65562D01*
X216057Y65597D01*
X215907Y65622D01*
X215737Y65637D01*
X215547Y65642D01*
Y66642D01*
X215737Y66647D01*
X215907Y66662D01*
X216057Y66687D01*
X216187Y66722D01*
X216297Y66767D01*
X216387Y66822D01*
X216457Y66887D01*
X216507Y66962D01*
X216537Y67047D01*
X216547Y67142D01*
Y65142D01*
D02*
G37*
G36*
X176882Y66305D02*
X176798Y66261D01*
X176725Y66189D01*
X176661Y66088D01*
X176607Y65957D01*
X176563Y65798D01*
X176528Y65610D01*
X176504Y65392D01*
X176489Y65146D01*
X176484Y64871D01*
X175484D01*
X175479Y65146D01*
X175440Y65610D01*
X175406Y65798D01*
X175362Y65957D01*
X175308Y66088D01*
X175244Y66189D01*
X175170Y66261D01*
X175087Y66305D01*
X174994Y66319D01*
X176975D01*
X176882Y66305D01*
D02*
G37*
G36*
X164283D02*
X164200Y66261D01*
X164126Y66189D01*
X164062Y66088D01*
X164008Y65957D01*
X163964Y65798D01*
X163930Y65610D01*
X163905Y65392D01*
X163891Y65146D01*
X163886Y64871D01*
X162886D01*
X162881Y65146D01*
X162842Y65610D01*
X162807Y65798D01*
X162763Y65957D01*
X162709Y66088D01*
X162645Y66189D01*
X162572Y66261D01*
X162488Y66305D01*
X162395Y66319D01*
X164376D01*
X164283Y66305D01*
D02*
G37*
G36*
X213445Y67654D02*
X213912Y67254D01*
X214137Y67092D01*
X214356Y66954D01*
X214570Y66842D01*
X214778Y66754D01*
X214980Y66692D01*
X215176Y66654D01*
X215367Y66642D01*
Y65642D01*
X215176Y65629D01*
X214980Y65592D01*
X214778Y65529D01*
X214570Y65442D01*
X214356Y65329D01*
X214137Y65192D01*
X213912Y65029D01*
X213681Y64842D01*
X213203Y64392D01*
Y67892D01*
X213445Y67654D01*
D02*
G37*
G36*
X163891Y63394D02*
X163906Y63222D01*
X163931Y63070D01*
X163966Y62939D01*
X164011Y62827D01*
X164066Y62736D01*
X164131Y62665D01*
X164206Y62615D01*
X164291Y62585D01*
X164386Y62574D01*
X162386D01*
X162481Y62585D01*
X162566Y62615D01*
X162641Y62665D01*
X162706Y62736D01*
X162761Y62827D01*
X162806Y62939D01*
X162841Y63070D01*
X162866Y63222D01*
X162881Y63394D01*
X162886Y63586D01*
X163886D01*
X163891Y63394D01*
D02*
G37*
G36*
X158280Y63396D02*
X158294Y63226D01*
X158318Y63076D01*
X158351Y62946D01*
X158394Y62836D01*
X158446Y62746D01*
X158507Y62676D01*
X158578Y62626D01*
X158658Y62596D01*
X158748Y62586D01*
X156776Y62574D01*
X156871Y62585D01*
X156956Y62616D01*
X157031Y62667D01*
X157096Y62738D01*
X157151Y62829D01*
X157196Y62940D01*
X157231Y63072D01*
X157256Y63223D01*
X157271Y63395D01*
X157276Y63586D01*
X158276D01*
X158280Y63396D01*
D02*
G37*
G36*
X171023Y64384D02*
X171045Y64161D01*
X171081Y63942D01*
X171132Y63727D01*
X171197Y63515D01*
X171277Y63306D01*
X171372Y63102D01*
X171481Y62901D01*
X171605Y62704D01*
X171743Y62510D01*
X169011Y63388D01*
X169202Y63456D01*
X169372Y63537D01*
X169523Y63629D01*
X169654Y63733D01*
X169764Y63849D01*
X169855Y63977D01*
X169925Y64117D01*
X169975Y64270D01*
X170005Y64434D01*
X170015Y64610D01*
X171015D01*
X171023Y64384D01*
D02*
G37*
G36*
X176489Y63296D02*
X176504Y63124D01*
X176529Y62972D01*
X176564Y62840D01*
X176609Y62729D01*
X176664Y62638D01*
X176729Y62567D01*
X176804Y62516D01*
X176889Y62486D01*
X176984Y62476D01*
X174984D01*
X175079Y62486D01*
X175164Y62516D01*
X175239Y62567D01*
X175304Y62638D01*
X175359Y62729D01*
X175404Y62840D01*
X175439Y62972D01*
X175464Y63124D01*
X175479Y63296D01*
X175484Y63488D01*
X176484D01*
X176489Y63296D01*
D02*
G37*
G36*
X17527Y63512D02*
X17995Y63112D01*
X18220Y62950D01*
X18439Y62813D01*
X18631Y62712D01*
X18667Y62745D01*
X18718Y62820D01*
X18748Y62905D01*
X18758Y63000D01*
Y62656D01*
X18860Y62612D01*
X19062Y62550D01*
X19259Y62512D01*
X19450Y62500D01*
Y61500D01*
X19259Y61488D01*
X19062Y61450D01*
X18860Y61387D01*
X18758Y61344D01*
Y61000D01*
X18748Y61095D01*
X18718Y61180D01*
X18667Y61255D01*
X18631Y61288D01*
X18439Y61187D01*
X18220Y61050D01*
X17995Y60887D01*
X17764Y60700D01*
X17285Y60250D01*
Y63750D01*
X17527Y63512D01*
D02*
G37*
G36*
X154638Y58673D02*
X154628Y58671D01*
X154598Y58669D01*
X154148Y58662D01*
X153709Y58662D01*
X153695Y58647D01*
X153558Y58484D01*
X153435Y58319D01*
X153328Y58152D01*
X153235Y57982D01*
X153157Y57811D01*
X153095Y57637D01*
X153047Y57462D01*
X153014Y57284D01*
X152996Y57104D01*
X151836Y59363D01*
X151976Y59284D01*
X152114Y59226D01*
X152250Y59189D01*
X152383Y59173D01*
X152515Y59178D01*
X152644Y59203D01*
X152772Y59250D01*
X152897Y59317D01*
X153019Y59406D01*
X153140Y59515D01*
X153638Y59017D01*
Y59661D01*
X153830Y59666D01*
X154001Y59681D01*
X154153Y59706D01*
X154284Y59741D01*
X154395Y59786D01*
X154486Y59841D01*
X154557Y59906D01*
X154608Y59981D01*
X154639Y60066D01*
X154650Y60161D01*
X154638Y58673D01*
D02*
G37*
G36*
X163503Y58675D02*
X163418Y58645D01*
X163343Y58594D01*
X163278Y58523D01*
X163223Y58432D01*
X163178Y58321D01*
X163143Y58189D01*
X163118Y58038D01*
X163103Y57866D01*
X163098Y57673D01*
X162098D01*
X162093Y57866D01*
X162078Y58038D01*
X162053Y58189D01*
X162018Y58321D01*
X161973Y58432D01*
X161918Y58523D01*
X161853Y58594D01*
X161778Y58645D01*
X161693Y58675D01*
X161598Y58685D01*
X163598D01*
X163503Y58675D01*
D02*
G37*
G36*
X183745Y61262D02*
X183774Y61190D01*
X183820Y61126D01*
X183886Y61070D01*
X183970Y61023D01*
X184074Y60985D01*
X184196Y60955D01*
X184336Y60934D01*
X184496Y60921D01*
X184674Y60917D01*
Y60391D01*
X185032Y60766D01*
X185183Y60632D01*
X185353Y60515D01*
X185541Y60414D01*
X185748Y60328D01*
X185974Y60258D01*
X186218Y60204D01*
X186482Y60166D01*
X186764Y60144D01*
X187066Y60138D01*
X187386Y60148D01*
X185019Y57673D01*
X185014Y57999D01*
X184964Y58591D01*
X184917Y58857D01*
X184857Y59104D01*
X184782Y59331D01*
X184693Y59539D01*
X184590Y59726D01*
X184473Y59894D01*
X184459Y59910D01*
X184336Y59900D01*
X184196Y59879D01*
X184074Y59849D01*
X183970Y59810D01*
X183886Y59763D01*
X183820Y59708D01*
X183774Y59644D01*
X183745Y59572D01*
X183736Y59491D01*
Y61343D01*
X183745Y61262D01*
D02*
G37*
G36*
X176692Y58577D02*
X176607Y58547D01*
X176532Y58496D01*
X176467Y58425D01*
X176412Y58334D01*
X176367Y58223D01*
X176332Y58091D01*
X176307Y57939D01*
X176292Y57767D01*
X176287Y57575D01*
X175287D01*
X175282Y57767D01*
X175267Y57939D01*
X175242Y58091D01*
X175207Y58223D01*
X175162Y58334D01*
X175107Y58425D01*
X175042Y58496D01*
X174967Y58547D01*
X174882Y58577D01*
X174787Y58587D01*
X176787D01*
X176692Y58577D01*
D02*
G37*
G36*
X176292Y57095D02*
X176307Y56923D01*
X176332Y56771D01*
X176367Y56639D01*
X176412Y56528D01*
X176467Y56437D01*
X176532Y56366D01*
X176607Y56316D01*
X176692Y56285D01*
X176787Y56275D01*
X174787D01*
X174882Y56285D01*
X174967Y56316D01*
X175042Y56366D01*
X175107Y56437D01*
X175162Y56528D01*
X175207Y56639D01*
X175242Y56771D01*
X175267Y56923D01*
X175282Y57095D01*
X175287Y57287D01*
X176287D01*
X176292Y57095D01*
D02*
G37*
G36*
X163103D02*
X163118Y56923D01*
X163143Y56771D01*
X163178Y56639D01*
X163223Y56528D01*
X163278Y56437D01*
X163343Y56366D01*
X163418Y56316D01*
X163503Y56285D01*
X163598Y56275D01*
X161598D01*
X161693Y56285D01*
X161778Y56316D01*
X161853Y56366D01*
X161918Y56437D01*
X161973Y56528D01*
X162018Y56639D01*
X162053Y56771D01*
X162078Y56923D01*
X162093Y57095D01*
X162098Y57287D01*
X163098D01*
X163103Y57095D01*
D02*
G37*
G36*
X153387Y56153D02*
X152680Y55446D01*
X152444Y55679D01*
X152910Y56586D01*
X153387Y56153D01*
D02*
G37*
G36*
X154638Y56287D02*
X154650Y54799D01*
X154639Y54894D01*
X154608Y54979D01*
X154557Y55054D01*
X154486Y55119D01*
X154395Y55174D01*
X154284Y55219D01*
X154153Y55254D01*
X154001Y55279D01*
X153830Y55294D01*
X153638Y55299D01*
Y56299D01*
X154638Y56287D01*
D02*
G37*
G36*
X166955Y57520D02*
X167120Y57408D01*
X167307Y57309D01*
X167516Y57224D01*
X167746Y57153D01*
X167999Y57095D01*
X168273Y57051D01*
X168568Y57020D01*
X169225Y57000D01*
X166750Y54525D01*
X166747Y54864D01*
X166699Y55477D01*
X166655Y55751D01*
X166597Y56004D01*
X166526Y56234D01*
X166441Y56443D01*
X166342Y56630D01*
X166230Y56796D01*
X166104Y56939D01*
X166811Y57646D01*
X166955Y57520D01*
D02*
G37*
G36*
X188089Y55217D02*
X187722Y55127D01*
X186527Y54747D01*
X186295Y54647D01*
X186091Y54545D01*
X185915Y54441D01*
X185765Y54335D01*
X185643Y54227D01*
X184758Y54757D01*
X184894Y54912D01*
X185006Y55082D01*
X185096Y55269D01*
X185164Y55472D01*
X185209Y55692D01*
X185232Y55927D01*
X185232Y56179D01*
X185209Y56447D01*
X185164Y56732D01*
X185096Y57032D01*
X188089Y55217D01*
D02*
G37*
G36*
X183746Y55236D02*
X183776Y55151D01*
X183827Y55076D01*
X183898Y55011D01*
X183989Y54956D01*
X184100Y54911D01*
X184232Y54876D01*
X184383Y54851D01*
X184556Y54836D01*
X184748Y54831D01*
Y53831D01*
X184556Y53826D01*
X184383Y53811D01*
X184232Y53786D01*
X184100Y53751D01*
X183989Y53706D01*
X183898Y53651D01*
X183827Y53586D01*
X183776Y53511D01*
X183746Y53426D01*
X183736Y53331D01*
Y55331D01*
X183746Y55236D01*
D02*
G37*
G36*
X164597Y53711D02*
X164568Y53619D01*
Y53513D01*
X164597Y53392D01*
X164653Y53258D01*
X164738Y53110D01*
X164851Y52947D01*
X164993Y52770D01*
X165360Y52374D01*
X164653Y51667D01*
X164448Y51865D01*
X164081Y52176D01*
X163918Y52289D01*
X163769Y52374D01*
X163635Y52431D01*
X163515Y52459D01*
X163409D01*
X163317Y52431D01*
X163239Y52374D01*
X164653Y53788D01*
X164597Y53711D01*
D02*
G37*
G36*
X175135Y52386D02*
X176799D01*
X176704Y52376D01*
X176619Y52346D01*
X176544Y52295D01*
X176479Y52224D01*
X176424Y52133D01*
X176379Y52022D01*
X176344Y51890D01*
X176319Y51739D01*
X176304Y51566D01*
X176303Y51540D01*
X176498Y51370D01*
X176523Y51356D01*
X176541Y51350D01*
X176552Y51352D01*
X175800Y50552D01*
X175801Y50564D01*
X175794Y50582D01*
X175778Y50607D01*
X175755Y50639D01*
X175684Y50724D01*
X175517Y50901D01*
X175445Y50973D01*
X175846Y51374D01*
X175299D01*
X175294Y51566D01*
X175279Y51739D01*
X175254Y51890D01*
X175219Y52022D01*
X175174Y52133D01*
X175119Y52224D01*
X175054Y52295D01*
X174979Y52346D01*
X174894Y52376D01*
X174799Y52386D01*
X175130D01*
X175069Y52431D01*
X174977Y52459D01*
X174871D01*
X174751Y52431D01*
X174616Y52374D01*
X174468Y52289D01*
X174305Y52176D01*
X174128Y52035D01*
X173732Y51667D01*
X173025Y52374D01*
X173223Y52579D01*
X173534Y52947D01*
X173647Y53110D01*
X173732Y53258D01*
X173789Y53392D01*
X173817Y53513D01*
Y53619D01*
X173789Y53711D01*
X173732Y53788D01*
X175135Y52386D01*
D02*
G37*
G36*
X172946Y50500D02*
X172961Y50328D01*
X172986Y50177D01*
X173021Y50045D01*
X173066Y49934D01*
X173121Y49843D01*
X173186Y49772D01*
X173261Y49721D01*
X173346Y49691D01*
X173441Y49681D01*
X171441D01*
X171536Y49691D01*
X171621Y49721D01*
X171696Y49772D01*
X171761Y49843D01*
X171816Y49934D01*
X171861Y50045D01*
X171896Y50177D01*
X171921Y50328D01*
X171936Y50500D01*
X171941Y50693D01*
X172941D01*
X172946Y50500D01*
D02*
G37*
G36*
X166647D02*
X166662Y50328D01*
X166687Y50177D01*
X166722Y50045D01*
X166767Y49934D01*
X166822Y49843D01*
X166887Y49772D01*
X166962Y49721D01*
X167047Y49691D01*
X167142Y49681D01*
X165142D01*
X165237Y49691D01*
X165322Y49721D01*
X165397Y49772D01*
X165462Y49843D01*
X165517Y49934D01*
X165562Y50045D01*
X165597Y50177D01*
X165622Y50328D01*
X165637Y50500D01*
X165642Y50693D01*
X166642D01*
X166647Y50500D01*
D02*
G37*
G36*
X254028Y44750D02*
X254018Y44845D01*
X253988Y44930D01*
X253937Y45005D01*
X253866Y45070D01*
X253775Y45125D01*
X253664Y45170D01*
X253532Y45205D01*
X253380Y45230D01*
X253208Y45245D01*
X253016Y45250D01*
Y46250D01*
X253208Y46255D01*
X253380Y46270D01*
X253532Y46295D01*
X253664Y46330D01*
X253775Y46375D01*
X253866Y46430D01*
X253937Y46495D01*
X253988Y46570D01*
X254018Y46655D01*
X254028Y46750D01*
Y44750D01*
D02*
G37*
G36*
X243960Y46655D02*
X243991Y46570D01*
X244041Y46495D01*
X244112Y46430D01*
X244203Y46375D01*
X244315Y46330D01*
X244446Y46295D01*
X244598Y46270D01*
X244770Y46255D01*
X244962Y46250D01*
Y45250D01*
X244770Y45245D01*
X244598Y45230D01*
X244446Y45205D01*
X244315Y45170D01*
X244203Y45125D01*
X244112Y45070D01*
X244041Y45005D01*
X243991Y44930D01*
X243960Y44845D01*
X243950Y44750D01*
Y46750D01*
X243960Y46655D01*
D02*
G37*
G36*
X226674Y47219D02*
X226431Y46989D01*
X226023Y46543D01*
X225857Y46325D01*
X225716Y46112D01*
X225602Y45902D01*
X225512Y45697D01*
X225448Y45495D01*
X225410Y45298D01*
X225400Y45151D01*
X225400Y45145D01*
X225426Y44825D01*
X225448Y44695D01*
X225476Y44585D01*
X225511Y44495D01*
X225552Y44425D01*
X225599Y44375D01*
X225652Y44345D01*
X225712Y44335D01*
X223897Y44323D01*
X223992Y44334D01*
X224077Y44365D01*
X224152Y44416D01*
X224217Y44487D01*
X224272Y44578D01*
X224317Y44689D01*
X224352Y44820D01*
X224377Y44972D01*
X224392Y45143D01*
X224394Y45199D01*
X224385Y45331D01*
X224348Y45526D01*
X224287Y45729D01*
X224202Y45939D01*
X224092Y46156D01*
X223958Y46381D01*
X223799Y46614D01*
X223616Y46854D01*
X223177Y47357D01*
X226674Y47219D01*
D02*
G37*
G36*
X235952Y43597D02*
X235874Y43653D01*
X235782Y43681D01*
X235676D01*
X235556Y43653D01*
X235421Y43597D01*
X235273Y43512D01*
X235110Y43399D01*
X234933Y43257D01*
X234538Y42889D01*
X233830Y43597D01*
X234028Y43802D01*
X234339Y44169D01*
X234453Y44332D01*
X234538Y44480D01*
X234594Y44615D01*
X234622Y44735D01*
Y44841D01*
X234594Y44933D01*
X234538Y45011D01*
X235952Y43597D01*
D02*
G37*
G36*
X266917Y44737D02*
X266890Y44646D01*
X266891Y44541D01*
X266920Y44421D01*
X266978Y44287D01*
X267064Y44138D01*
X267178Y43975D01*
X267321Y43798D01*
X267691Y43400D01*
X266984Y42693D01*
X266778Y42892D01*
X266409Y43205D01*
X266246Y43320D01*
X266097Y43406D01*
X265963Y43464D01*
X265843Y43493D01*
X265738Y43494D01*
X265647Y43467D01*
X265570Y43412D01*
X266972Y44814D01*
X266917Y44737D01*
D02*
G37*
G36*
X32715Y37250D02*
X32473Y37488D01*
X32005Y37887D01*
X31780Y38050D01*
X31561Y38188D01*
X31356Y38296D01*
X31312Y38255D01*
X31262Y38180D01*
X31232Y38095D01*
X31222Y38000D01*
Y38353D01*
X31140Y38388D01*
X30937Y38450D01*
X30741Y38487D01*
X30551Y38500D01*
Y39500D01*
X30741Y39513D01*
X30937Y39550D01*
X31140Y39612D01*
X31222Y39647D01*
Y40000D01*
X31232Y39905D01*
X31262Y39820D01*
X31312Y39745D01*
X31356Y39704D01*
X31561Y39812D01*
X31780Y39950D01*
X32005Y40113D01*
X32236Y40300D01*
X32715Y40750D01*
Y37250D01*
D02*
G37*
G36*
X228978Y37330D02*
X228759Y37104D01*
X228419Y36708D01*
X228298Y36539D01*
X228210Y36388D01*
X228154Y36256D01*
X228131Y36143D01*
X228141Y36048D01*
X228184Y35973D01*
X228259Y35916D01*
X226445Y36855D01*
X226578Y36865D01*
X226719Y36897D01*
X226869Y36950D01*
X227027Y37025D01*
X227193Y37120D01*
X227367Y37237D01*
X227550Y37374D01*
X227941Y37714D01*
X228149Y37916D01*
X228978Y37330D01*
D02*
G37*
G36*
X221338Y34686D02*
X221328Y34781D01*
X221298Y34866D01*
X221247Y34941D01*
X221177Y35006D01*
X221085Y35061D01*
X220974Y35106D01*
X220843Y35141D01*
X220691Y35166D01*
X220519Y35181D01*
X220326Y35186D01*
Y36186D01*
X220519Y36191D01*
X220691Y36206D01*
X220843Y36231D01*
X220974Y36266D01*
X221085Y36311D01*
X221177Y36366D01*
X221247Y36431D01*
X221298Y36506D01*
X221328Y36591D01*
X221338Y36686D01*
Y34686D01*
D02*
G37*
G36*
X216955Y36591D02*
X216985Y36506D01*
X217036Y36431D01*
X217106Y36366D01*
X217197Y36311D01*
X217309Y36266D01*
X217440Y36231D01*
X217592Y36206D01*
X217764Y36191D01*
X217956Y36186D01*
Y35186D01*
X217764Y35181D01*
X217592Y35166D01*
X217440Y35141D01*
X217309Y35106D01*
X217197Y35061D01*
X217106Y35006D01*
X217036Y34941D01*
X216985Y34866D01*
X216955Y34781D01*
X216945Y34686D01*
Y36686D01*
X216955Y36591D01*
D02*
G37*
G36*
X204823Y37012D02*
X205290Y36612D01*
X205515Y36450D01*
X205734Y36312D01*
X205948Y36200D01*
X206156Y36112D01*
X206358Y36050D01*
X206554Y36013D01*
X206684Y36004D01*
X206722Y36005D01*
X206892Y36020D01*
X207042Y36045D01*
X207172Y36080D01*
X207282Y36125D01*
X207372Y36180D01*
X207442Y36245D01*
X207492Y36320D01*
X207522Y36405D01*
X207532Y36500D01*
Y34500D01*
X207522Y34595D01*
X207492Y34680D01*
X207442Y34755D01*
X207372Y34820D01*
X207282Y34875D01*
X207172Y34920D01*
X207042Y34955D01*
X206892Y34980D01*
X206722Y34995D01*
X206684Y34996D01*
X206554Y34988D01*
X206358Y34950D01*
X206156Y34887D01*
X205948Y34800D01*
X205734Y34688D01*
X205515Y34550D01*
X205290Y34387D01*
X205059Y34200D01*
X204581Y33750D01*
Y37250D01*
X204823Y37012D01*
D02*
G37*
G36*
X272870Y38240D02*
X273040Y38127D01*
X273228Y38035D01*
X273433Y37963D01*
X273657Y37911D01*
X273898Y37879D01*
X274156Y37868D01*
X274433Y37878D01*
X274728Y37907D01*
X275040Y37957D01*
X273427Y35651D01*
X274687Y33136D01*
X274402Y33224D01*
X274132Y33286D01*
X273876Y33324D01*
X273634Y33337D01*
X273406Y33325D01*
X273192Y33287D01*
X272992Y33225D01*
X272807Y33138D01*
X272636Y33025D01*
X272479Y32888D01*
X272013Y33836D01*
X272111Y33947D01*
X272211Y34087D01*
X272314Y34257D01*
X272421Y34455D01*
X272642Y34941D01*
X272875Y35544D01*
X272916Y35665D01*
X272742Y36376D01*
X272655Y36634D01*
X272562Y36866D01*
X272465Y37072D01*
X272361Y37253D01*
X272253Y37409D01*
X272138Y37538D01*
X272718Y38373D01*
X272870Y38240D01*
D02*
G37*
G36*
X90013Y32473D02*
X89613Y32005D01*
X89450Y31780D01*
X89312Y31561D01*
X89211Y31368D01*
X89245Y31332D01*
X89320Y31282D01*
X89405Y31252D01*
X89500Y31242D01*
X89156D01*
X89113Y31140D01*
X89050Y30937D01*
X89012Y30741D01*
X89000Y30551D01*
X88000D01*
X87988Y30741D01*
X87950Y30937D01*
X87888Y31140D01*
X87844Y31242D01*
X87500D01*
X87595Y31252D01*
X87680Y31282D01*
X87755Y31332D01*
X87789Y31368D01*
X87687Y31561D01*
X87550Y31780D01*
X87388Y32005D01*
X87200Y32236D01*
X86750Y32715D01*
X90250D01*
X90013Y32473D01*
D02*
G37*
G36*
X45513D02*
X45112Y32005D01*
X44950Y31780D01*
X44813Y31561D01*
X44711Y31368D01*
X44745Y31332D01*
X44820Y31282D01*
X44905Y31252D01*
X45000Y31242D01*
X44656D01*
X44613Y31140D01*
X44550Y30937D01*
X44513Y30741D01*
X44500Y30551D01*
X43500D01*
X43488Y30741D01*
X43450Y30937D01*
X43387Y31140D01*
X43344Y31242D01*
X43000D01*
X43095Y31252D01*
X43180Y31282D01*
X43255Y31332D01*
X43289Y31368D01*
X43187Y31561D01*
X43050Y31780D01*
X42887Y32005D01*
X42700Y32236D01*
X42250Y32715D01*
X45750D01*
X45513Y32473D01*
D02*
G37*
G36*
X267691Y28100D02*
X267493Y27895D01*
X267182Y27527D01*
X267069Y27365D01*
X266984Y27216D01*
X266928Y27082D01*
X266899Y26962D01*
Y26856D01*
X266928Y26764D01*
X266984Y26686D01*
X265570Y28100D01*
X265648Y28043D01*
X265740Y28015D01*
X265846D01*
X265966Y28043D01*
X266100Y28100D01*
X266249Y28185D01*
X266411Y28298D01*
X266588Y28440D01*
X266984Y28807D01*
X267691Y28100D01*
D02*
G37*
G36*
X234493Y28412D02*
X234860Y28101D01*
X235023Y27988D01*
X235171Y27903D01*
X235306Y27847D01*
X235426Y27818D01*
X235532D01*
X235624Y27847D01*
X235702Y27903D01*
X234288Y26489D01*
X234344Y26567D01*
X234372Y26659D01*
Y26765D01*
X234344Y26885D01*
X234288Y27019D01*
X234203Y27168D01*
X234090Y27330D01*
X233948Y27507D01*
X233580Y27903D01*
X234288Y28610D01*
X234493Y28412D01*
D02*
G37*
G36*
X254028Y24750D02*
X254018Y24845D01*
X253987Y24930D01*
X253937Y25005D01*
X253866Y25070D01*
X253775Y25125D01*
X253664Y25170D01*
X253532Y25205D01*
X253380Y25230D01*
X253208Y25245D01*
X253016Y25250D01*
Y26250D01*
X253208Y26255D01*
X253380Y26270D01*
X253532Y26295D01*
X253664Y26330D01*
X253775Y26375D01*
X253866Y26430D01*
X253937Y26495D01*
X253987Y26570D01*
X254018Y26655D01*
X254028Y26750D01*
Y24750D01*
D02*
G37*
G36*
X243710Y26655D02*
X243741Y26570D01*
X243791Y26495D01*
X243862Y26430D01*
X243953Y26375D01*
X244065Y26330D01*
X244196Y26295D01*
X244348Y26270D01*
X244520Y26255D01*
X244712Y26250D01*
Y25250D01*
X244520Y25245D01*
X244348Y25230D01*
X244196Y25205D01*
X244065Y25170D01*
X243953Y25125D01*
X243862Y25070D01*
X243791Y25005D01*
X243741Y24930D01*
X243710Y24845D01*
X243700Y24750D01*
Y26750D01*
X243710Y26655D01*
D02*
G37*
G36*
X103005Y18386D02*
X103020Y18214D01*
X103045Y18062D01*
X103080Y17931D01*
X103125Y17820D01*
X103180Y17729D01*
X103245Y17658D01*
X103320Y17607D01*
X103405Y17577D01*
X103500Y17567D01*
X101500D01*
X101595Y17577D01*
X101680Y17607D01*
X101755Y17658D01*
X101820Y17729D01*
X101875Y17820D01*
X101920Y17931D01*
X101955Y18062D01*
X101980Y18214D01*
X101995Y18386D01*
X102000Y18579D01*
X103000D01*
X103005Y18386D01*
D02*
G37*
G36*
X66513Y19259D02*
X66550Y19062D01*
X66612Y18860D01*
X66647Y18778D01*
X67000D01*
X66905Y18768D01*
X66820Y18737D01*
X66745Y18687D01*
X66705Y18643D01*
X66812Y18439D01*
X66950Y18220D01*
X67112Y17995D01*
X67300Y17764D01*
X67750Y17285D01*
X64250D01*
X64487Y17527D01*
X64887Y17995D01*
X65050Y18220D01*
X65188Y18439D01*
X65295Y18643D01*
X65255Y18687D01*
X65180Y18737D01*
X65095Y18768D01*
X65000Y18778D01*
X65353D01*
X65387Y18860D01*
X65450Y19062D01*
X65487Y19259D01*
X65500Y19450D01*
X66500D01*
X66513Y19259D01*
D02*
G37*
G36*
X32715Y14750D02*
X32473Y14988D01*
X32005Y15387D01*
X31780Y15550D01*
X31561Y15687D01*
X31368Y15789D01*
X31332Y15755D01*
X31282Y15680D01*
X31252Y15595D01*
X31242Y15500D01*
Y15844D01*
X31140Y15888D01*
X30937Y15950D01*
X30741Y15988D01*
X30551Y16000D01*
Y17000D01*
X30741Y17012D01*
X30937Y17050D01*
X31140Y17112D01*
X31242Y17156D01*
Y17500D01*
X31252Y17405D01*
X31282Y17320D01*
X31332Y17245D01*
X31368Y17211D01*
X31561Y17312D01*
X31780Y17450D01*
X32005Y17613D01*
X32236Y17800D01*
X32715Y18250D01*
Y14750D01*
D02*
G37*
G36*
X153017Y19185D02*
X153067Y18955D01*
X153150Y18713D01*
X153266Y18461D01*
X153416Y18197D01*
X153599Y17921D01*
X153815Y17635D01*
X154347Y17028D01*
X154663Y16707D01*
X150337D01*
X150653Y17028D01*
X151185Y17635D01*
X151401Y17921D01*
X151584Y18197D01*
X151734Y18461D01*
X151850Y18713D01*
X151934Y18955D01*
X151983Y19185D01*
X152000Y19404D01*
X153000D01*
X153017Y19185D01*
D02*
G37*
G36*
X143017D02*
X143067Y18955D01*
X143150Y18713D01*
X143266Y18461D01*
X143416Y18197D01*
X143599Y17921D01*
X143815Y17635D01*
X144347Y17028D01*
X144663Y16707D01*
X140337D01*
X140653Y17028D01*
X141185Y17635D01*
X141401Y17921D01*
X141584Y18197D01*
X141734Y18461D01*
X141850Y18713D01*
X141934Y18955D01*
X141983Y19185D01*
X142000Y19404D01*
X143000D01*
X143017Y19185D01*
D02*
G37*
G36*
X133017D02*
X133066Y18955D01*
X133150Y18713D01*
X133266Y18461D01*
X133416Y18197D01*
X133599Y17921D01*
X133815Y17635D01*
X134347Y17028D01*
X134663Y16707D01*
X130337D01*
X130653Y17028D01*
X131185Y17635D01*
X131401Y17921D01*
X131584Y18197D01*
X131734Y18461D01*
X131850Y18713D01*
X131933Y18955D01*
X131983Y19185D01*
X132000Y19404D01*
X133000D01*
X133017Y19185D01*
D02*
G37*
G36*
X123017D02*
X123066Y18955D01*
X123150Y18713D01*
X123266Y18461D01*
X123416Y18197D01*
X123599Y17921D01*
X123815Y17635D01*
X124347Y17028D01*
X124663Y16707D01*
X120337D01*
X120653Y17028D01*
X121185Y17635D01*
X121401Y17921D01*
X121584Y18197D01*
X121734Y18461D01*
X121850Y18713D01*
X121933Y18955D01*
X121983Y19185D01*
X122000Y19404D01*
X123000D01*
X123017Y19185D01*
D02*
G37*
G36*
X113017D02*
X113066Y18955D01*
X113150Y18713D01*
X113266Y18461D01*
X113416Y18197D01*
X113599Y17921D01*
X113815Y17635D01*
X114347Y17028D01*
X114663Y16707D01*
X110337D01*
X110653Y17028D01*
X111185Y17635D01*
X111401Y17921D01*
X111584Y18197D01*
X111734Y18461D01*
X111850Y18713D01*
X111934Y18955D01*
X111983Y19185D01*
X112000Y19404D01*
X113000D01*
X113017Y19185D01*
D02*
G37*
G36*
X17346Y18731D02*
X18123Y18212D01*
X18359Y18085D01*
X18584Y17981D01*
X18596Y17977D01*
X18596Y17977D01*
X18667Y18042D01*
X18718Y18117D01*
X18748Y18202D01*
X18758Y18297D01*
Y17915D01*
X18797Y17901D01*
X19000Y17843D01*
X19190Y17808D01*
X19370Y17797D01*
X19492Y16797D01*
X19293Y16784D01*
X19094Y16744D01*
X18894Y16678D01*
X18758Y16615D01*
Y16297D01*
X18748Y16392D01*
X18718Y16477D01*
X18667Y16552D01*
X18655Y16563D01*
X18493Y16466D01*
X18291Y16321D01*
X18089Y16149D01*
X17887Y15950D01*
X17684Y15726D01*
X17481Y15474D01*
X17065Y18950D01*
X17346Y18731D01*
D02*
G37*
D15*
X175799Y51327D02*
Y54319D01*
Y51327D02*
X177844Y49281D01*
X175787Y54331D02*
X175799Y54319D01*
X177844Y49281D02*
X177953D01*
X207677Y145276D02*
X208748D01*
X206606D02*
X207677D01*
X205118Y142126D02*
Y143787D01*
X206606Y145276D01*
X207677D02*
Y148425D01*
X210236Y142126D02*
Y143787D01*
X208748Y145276D02*
X210236Y143787D01*
X197737Y89256D02*
X201769D01*
X202014Y89500D01*
X196277Y87795D02*
X197737Y89256D01*
X191043Y87795D02*
X196277D01*
X198837Y81496D02*
X200833Y79500D01*
X191043Y81496D02*
X198837D01*
X200833Y79500D02*
X202014D01*
X203005Y80491D01*
X204925D02*
X205190Y80756D01*
X203005Y80491D02*
X204925D01*
X205190Y80756D02*
X213500D01*
X213697Y80953D01*
X220800D01*
X202014Y89500D02*
X202570Y88944D01*
X213500D01*
X213697Y88747D01*
X220800D01*
X213303Y94456D02*
X213500D01*
X211835Y95924D02*
Y96121D01*
X208265Y97887D02*
X210069D01*
X211835Y95924D02*
X213303Y94456D01*
X210069Y97887D02*
X211835Y96121D01*
X207500Y98653D02*
X208265Y97887D01*
X207500Y70422D02*
X208481D01*
X213303Y75244D02*
X213500D01*
X208481Y70422D02*
X213303Y75244D01*
X220947Y74901D02*
X224901D01*
X226378Y76378D01*
X220800Y75047D02*
X220947Y74901D01*
X213697Y75047D02*
X220800D01*
X226378Y76378D02*
X226772D01*
X213500Y75244D02*
X213697Y75047D01*
X213500Y94456D02*
X213697Y94653D01*
X220800D01*
X226391Y93038D02*
X226785D01*
X224776Y94653D02*
X226391Y93038D01*
X220800Y94653D02*
X224776D01*
X234662Y83135D02*
X235890Y81907D01*
X232041Y83855D02*
X232761Y83135D01*
X234662D01*
X230349Y83855D02*
X232041D01*
X220800Y81051D02*
X223604Y83855D01*
X228676D01*
X223921Y85528D02*
X228676D01*
X220800Y88649D02*
X223921Y85528D01*
X220800Y88649D02*
Y88747D01*
Y80953D02*
Y81051D01*
X231703Y85528D02*
X232421Y86246D01*
X234421D01*
X235872Y87696D01*
X230349Y85528D02*
X231703D01*
X196500Y96894D02*
Y104100D01*
X192816Y67204D02*
X195009Y65012D01*
X186062Y67204D02*
X192816D01*
X178000Y82414D02*
X180000Y80414D01*
X178000Y82414D02*
Y83000D01*
X180000Y77358D02*
Y80414D01*
Y77358D02*
X182283Y75075D01*
Y69587D02*
Y75075D01*
X176001Y75570D02*
X179134Y72437D01*
X176001Y75570D02*
Y76319D01*
X179134Y69587D02*
Y72437D01*
X222835Y166836D02*
X228249Y172250D01*
X222835Y166738D02*
Y166836D01*
X228249Y172250D02*
X228750D01*
X228642Y160734D02*
X228750Y160842D01*
Y172250D01*
X228740Y128445D02*
Y139764D01*
X228642Y128347D02*
X228740Y128445D01*
X222835Y134351D02*
Y134449D01*
X228150Y139764D01*
X228740D01*
X184653Y78347D02*
X191043D01*
X184500Y78500D02*
X184653Y78347D01*
X150550Y74354D02*
X154543Y78347D01*
X157776D01*
X146000Y75500D02*
X151996Y81496D01*
X157776Y61712D02*
Y75197D01*
X156693Y60630D02*
X157776Y61712D01*
X114200Y129100D02*
X116978Y131878D01*
X124585D02*
X125401Y132694D01*
X116978Y131878D02*
X124585D01*
X79272Y139000D02*
X80917Y137354D01*
X86643Y144309D02*
X91590D01*
X86634Y144319D02*
X86643Y144309D01*
X91590D02*
X91600Y144300D01*
X24994Y99700D02*
X25194Y99500D01*
X34500D01*
X15500Y122000D02*
X24991D01*
X24994Y122003D01*
X24891Y77500D02*
X24994Y77397D01*
X15500Y77500D02*
X24891D01*
X25097D02*
X34500D01*
X24994Y77397D02*
X25097Y77500D01*
X25594Y39000D02*
X34500D01*
X24994Y39600D02*
X25594Y39000D01*
X15500Y62000D02*
X24897D01*
X24994Y61903D01*
X15500Y17000D02*
X15797Y17297D01*
X24994D01*
X25791Y16500D01*
X34500D01*
X66000Y15500D02*
Y24994D01*
X44000Y25297D02*
Y34500D01*
X43697Y24994D02*
X44000Y25297D01*
X88500Y25191D02*
Y34500D01*
X88303Y24994D02*
X88500Y25191D01*
X235872Y87696D02*
Y93742D01*
X235890Y76002D02*
Y81907D01*
X151582Y57250D02*
X153033Y55799D01*
X150500Y57250D02*
X151582D01*
X153033Y55799D02*
X155225D01*
X81000Y156992D02*
Y162500D01*
Y156992D02*
X81515Y156477D01*
X87000Y156898D02*
Y162500D01*
Y156898D02*
X87028Y156870D01*
X85000Y133000D02*
Y138567D01*
X85256Y138823D01*
X84075Y140004D02*
X85256Y138823D01*
X61750Y97250D02*
X62000Y97500D01*
X79272Y139000D02*
X81516Y141244D01*
X122697Y122654D02*
X125440D01*
X121405Y127654D02*
X125440D01*
X81515Y151800D02*
X81516Y151799D01*
X81515Y151800D02*
Y156477D01*
X166518Y69604D02*
Y83982D01*
Y69604D02*
X166535Y69587D01*
X166500Y84000D02*
X166518Y83982D01*
X42744Y162622D02*
X43122Y163000D01*
X73000Y139000D02*
X79272D01*
X102500Y14500D02*
Y74500D01*
X125244Y97244D01*
X112500Y14500D02*
Y75000D01*
X131595Y94095D01*
X122500Y14500D02*
Y75000D01*
X138445Y90945D01*
X145879Y87793D02*
X149543D01*
X149545Y87795D01*
X132500Y74414D02*
X145879Y87793D01*
X149545Y87795D02*
X157776D01*
X132500Y14500D02*
Y74414D01*
X142500Y14500D02*
Y76250D01*
X150896Y84646D01*
X152500Y14500D02*
Y19500D01*
X146000Y26000D02*
X152500Y19500D01*
X146000Y26000D02*
Y75500D01*
X151996Y81496D02*
X157776D01*
X168000Y130000D02*
Y155500D01*
X143491Y180009D02*
Y182009D01*
Y180009D02*
X168000Y155500D01*
X142500Y183000D02*
X143491Y182009D01*
X168000Y130000D02*
X182283Y115717D01*
Y102854D02*
Y115717D01*
X132500Y178000D02*
Y183000D01*
Y178000D02*
X134000Y176500D01*
X142000D01*
X122500Y177500D02*
Y183000D01*
Y177500D02*
X126500Y173500D01*
X138705D01*
X136193Y170500D02*
X159055Y147638D01*
Y127445D02*
Y147638D01*
X119500Y170500D02*
X136193D01*
X102500Y177000D02*
Y183000D01*
X112000Y167500D02*
X134390D01*
X102500Y177000D02*
X112000Y167500D01*
X112500Y177500D02*
X119500Y170500D01*
X112500Y177500D02*
Y183000D01*
X217027Y160734D02*
Y162997D01*
X214564Y165461D02*
X217027Y162997D01*
X205520Y165461D02*
X214564D01*
X227783Y34408D02*
X236244Y25947D01*
X227783Y34408D02*
Y35260D01*
X227358Y35686D02*
X227783Y35260D01*
X236244Y25750D02*
Y25947D01*
X227783Y36842D02*
X236494Y45553D01*
X227783Y36111D02*
Y36842D01*
X227358Y35686D02*
X227783Y36111D01*
X236494Y45553D02*
Y45750D01*
X274735Y34735D02*
X275500Y35500D01*
X264634Y25750D02*
X273619Y34735D01*
X274735D01*
X274884Y35500D02*
X275500D01*
X264634Y45750D02*
X274884Y35500D01*
X241756Y25750D02*
X256366D01*
X242006Y45750D02*
X256366D01*
X236250Y45506D02*
X236494Y45750D01*
X194414Y71141D02*
X195161D01*
X191043Y74512D02*
X194414Y71141D01*
X184674Y60417D02*
X187440Y57651D01*
X125244Y97244D02*
X157776D01*
X131595Y94095D02*
X157776D01*
X138445Y90945D02*
X157776D01*
X150896Y84646D02*
X157776D01*
X155225Y55799D02*
X156693Y54331D01*
X153494Y59161D02*
X155126D01*
X156595Y60630D01*
X151582Y57250D02*
X153494Y59161D01*
X156595Y60630D02*
X156693D01*
X169750Y61000D02*
X170515Y61765D01*
Y64610D01*
X169685Y66929D02*
Y69587D01*
X166356Y57394D02*
Y63600D01*
X169685Y66929D01*
X170515Y64610D02*
X172835Y66929D01*
X166356Y57394D02*
X169250Y54500D01*
X172835Y66929D02*
Y69587D01*
X194882Y132087D02*
X195866Y131102D01*
X194882Y132087D02*
Y137008D01*
X184446Y84646D02*
X191043D01*
X184400Y84600D02*
X184446Y84646D01*
X184600Y90900D02*
X184645Y90945D01*
X191043D01*
X193701Y94095D02*
X196500Y96894D01*
X191043Y94095D02*
X193701D01*
X186062Y66982D02*
Y67204D01*
X185433Y67611D02*
Y69587D01*
Y67611D02*
X186062Y66982D01*
X179134Y102854D02*
Y114866D01*
X165000Y129000D02*
X179134Y114866D01*
X165000Y129000D02*
Y153500D01*
X175984Y102854D02*
Y114516D01*
X161811Y128689D02*
Y150394D01*
Y128689D02*
X175984Y114516D01*
X159055Y127445D02*
X172835Y113665D01*
Y102854D02*
Y113665D01*
X156299Y126201D02*
X169685Y112815D01*
Y102854D02*
Y112815D01*
X156299Y126201D02*
Y145591D01*
X142000Y176500D02*
X165000Y153500D01*
X138705Y173500D02*
X161811Y150394D01*
X134390Y167500D02*
X156299Y145591D01*
X200401Y120760D02*
X201091D01*
X189961Y131102D02*
X190059D01*
X200401Y120760D01*
X201091D02*
X202559Y119291D01*
X177559Y131102D02*
X177953Y131496D01*
Y137402D01*
X187008Y144193D02*
Y148819D01*
X187008Y148819D02*
X187008Y148819D01*
X189567Y131496D02*
Y136122D01*
Y131496D02*
X189961Y131102D01*
X215461Y125984D02*
X217028Y127551D01*
X210236Y125984D02*
X215461D01*
X217028Y127551D02*
Y128347D01*
X202559Y162598D02*
X202658D01*
X205520Y165461D01*
X207677Y148425D02*
X208465Y149213D01*
X210236Y142126D02*
X210630D01*
X210236Y142126D02*
X210236Y142126D01*
X208858Y148819D02*
X214567D01*
X208465Y149213D02*
X208858Y148819D01*
X208465Y149213D02*
Y155905D01*
Y162598D01*
X202559Y155905D02*
Y162598D01*
Y149213D02*
Y155905D01*
Y149213D02*
X202559Y149213D01*
Y142126D02*
Y149213D01*
X207677Y120079D02*
X208465Y119291D01*
X214173D01*
X207677Y120079D02*
Y125984D01*
X202559Y119291D02*
X202559Y119291D01*
Y125984D01*
X205118Y125984D02*
Y131890D01*
Y125984D02*
X205118Y125984D01*
X211417Y66142D02*
X218504D01*
X191043Y74512D02*
Y75197D01*
X229928Y93045D02*
Y99206D01*
X229921Y99213D02*
X229928Y99206D01*
Y93045D02*
X229934Y93038D01*
X230816Y66142D02*
X230885Y66074D01*
X224016Y66142D02*
X230816D01*
X224016D02*
Y66339D01*
X229916Y72239D01*
Y76373D01*
X229921Y76378D01*
X191732Y112205D02*
Y118110D01*
X185827Y112205D02*
Y118110D01*
X185827Y112205D02*
X185827Y112205D01*
X191103Y97244D02*
X191732Y97873D01*
X191043Y97244D02*
X191103D01*
X191732Y97873D02*
Y112205D01*
X138720Y112654D02*
X138901Y112835D01*
X147471D01*
X148369Y111936D01*
X118661Y112835D02*
X122697D01*
X119671Y122835D02*
X122697D01*
X119498D02*
X119671D01*
X122697Y112835D02*
X126732D01*
X133536Y106031D02*
X148369D01*
X126732Y112835D02*
X133536Y106031D01*
X120628Y123791D02*
Y126878D01*
X114253Y122907D02*
X119246D01*
X119671Y122835D02*
X120628Y123791D01*
X119246Y122907D02*
X119498Y122654D01*
X114181Y117315D02*
X118661Y112835D01*
X114181Y117315D02*
Y122979D01*
X114253Y122907D01*
X120628Y126878D02*
X121405Y127654D01*
X181693Y54331D02*
X185039D01*
X187519Y56810D01*
Y57651D01*
X162697Y54331D02*
X166142Y50886D01*
Y46850D02*
Y50886D01*
X175787Y54331D02*
Y60532D01*
X175787Y54331D02*
X175787Y54331D01*
X175984Y60728D02*
Y69587D01*
X175787Y60532D02*
X175984Y60728D01*
X162598Y54331D02*
Y60630D01*
X163386Y61417D01*
Y69587D01*
X172441Y46850D02*
Y51083D01*
X175689Y54331D01*
X175787D01*
X162598D02*
X162697D01*
X153487Y111936D02*
X155160D01*
X139677Y126878D02*
X144382D01*
X163386Y102854D02*
Y107874D01*
X144382Y126878D02*
X163386Y107874D01*
X138720Y127835D02*
X139677Y126878D01*
X148369Y111936D02*
X153487D01*
X153488Y111936D02*
X153666D01*
X153487Y111936D02*
X153487Y111936D01*
X153488Y111936D01*
X166535Y102854D02*
Y109055D01*
X142756Y132835D02*
X166535Y109055D01*
X138720Y132835D02*
X142756D01*
X215940Y35686D02*
X222240D01*
X202795Y35500D02*
X209488D01*
X224799Y43166D02*
X224897Y43264D01*
Y48973D01*
X224996Y49072D01*
X43786Y145000D02*
X44004D01*
X84075Y140004D02*
Y144319D01*
X81516Y141244D02*
Y144319D01*
X183465Y125197D02*
Y131102D01*
X184449Y132087D01*
Y136122D01*
X187008Y144193D02*
X187008Y144193D01*
X181693Y60532D02*
X181808Y60417D01*
X184674D01*
X185630Y112008D02*
X185827Y112205D01*
X185630Y105413D02*
Y112008D01*
D16*
X220800Y88747D02*
D03*
Y94653D02*
D03*
Y80953D02*
D03*
Y75047D02*
D03*
X235890Y87644D02*
D03*
Y81739D02*
D03*
X222835Y134351D02*
D03*
X222835Y166738D02*
D03*
X148369Y111936D02*
D03*
Y106031D02*
D03*
D17*
X230349Y83855D02*
D03*
Y85528D02*
D03*
X228676Y83855D02*
D03*
Y85528D02*
D03*
D18*
X163386Y69587D02*
D03*
X166535D02*
D03*
X169685D02*
D03*
X172835D02*
D03*
X175984D02*
D03*
X179134D02*
D03*
X182283D02*
D03*
X185433D02*
D03*
Y102854D02*
D03*
X182283D02*
D03*
X179134D02*
D03*
X175984D02*
D03*
X172835D02*
D03*
X169685D02*
D03*
X166535D02*
D03*
X163386D02*
D03*
D19*
X191043Y75197D02*
D03*
Y78347D02*
D03*
Y81496D02*
D03*
Y84646D02*
D03*
Y87795D02*
D03*
Y90945D02*
D03*
Y94095D02*
D03*
Y97244D02*
D03*
X157776D02*
D03*
Y94095D02*
D03*
Y90945D02*
D03*
Y87795D02*
D03*
Y84646D02*
D03*
Y81496D02*
D03*
Y78347D02*
D03*
Y75197D02*
D03*
D20*
X226785Y93038D02*
D03*
X229934D02*
D03*
X226772Y76378D02*
D03*
X229921D02*
D03*
D21*
X24994Y122003D02*
D03*
Y77397D02*
D03*
Y61903D02*
D03*
Y17297D02*
D03*
D22*
X43697Y24994D02*
D03*
X88303D02*
D03*
D23*
X87028Y156870D02*
D03*
X81122D02*
D03*
X208465Y155905D02*
D03*
X202559D02*
D03*
X208465Y162598D02*
D03*
X202559D02*
D03*
X208465Y149213D02*
D03*
X202559D02*
D03*
X208465Y119291D02*
D03*
X202559D02*
D03*
X189961Y131102D02*
D03*
X195866D02*
D03*
X79350Y138823D02*
D03*
X85256D02*
D03*
X175787Y60532D02*
D03*
X181693D02*
D03*
X175787Y54331D02*
D03*
X181693D02*
D03*
X185827Y112205D02*
D03*
X191732D02*
D03*
X162598Y60630D02*
D03*
X156693D02*
D03*
X162598Y54331D02*
D03*
X156693D02*
D03*
X183465Y131102D02*
D03*
X177559D02*
D03*
D24*
X122697Y132835D02*
D03*
Y127835D02*
D03*
Y122835D02*
D03*
Y117835D02*
D03*
Y112835D02*
D03*
X138720D02*
D03*
Y117835D02*
D03*
Y122835D02*
D03*
Y127835D02*
D03*
Y132835D02*
D03*
D25*
X189567Y136122D02*
D03*
X184449D02*
D03*
Y144193D02*
D03*
X187008D02*
D03*
X189567D02*
D03*
D26*
X213500Y80756D02*
D03*
Y75244D02*
D03*
Y88944D02*
D03*
Y94456D02*
D03*
D27*
X224016Y66142D02*
D03*
X218504D02*
D03*
X209488Y35500D02*
D03*
X215000D02*
D03*
X236494Y45750D02*
D03*
X242006D02*
D03*
X236244Y25750D02*
D03*
X241756D02*
D03*
D28*
X222240Y35686D02*
D03*
X227358D02*
D03*
X224799Y43166D02*
D03*
D29*
X264634Y45750D02*
D03*
X256366D02*
D03*
X264634Y25750D02*
D03*
X256366D02*
D03*
D30*
X228642Y128347D02*
D03*
X217028D02*
D03*
X217027Y160734D02*
D03*
X228642D02*
D03*
D31*
X81516Y144319D02*
D03*
X84075D02*
D03*
X86634D02*
D03*
Y151799D02*
D03*
X81516D02*
D03*
D32*
X202559Y125984D02*
D03*
X205118D02*
D03*
X207677D02*
D03*
X210236D02*
D03*
X202559Y142126D02*
D03*
X205118D02*
D03*
X207677D02*
D03*
X210236D02*
D03*
D33*
X172441Y46850D02*
D03*
X166142D02*
D03*
D35*
X24994Y99700D02*
D03*
Y39600D02*
D03*
D36*
X66000Y24994D02*
D03*
D37*
X247013Y89775D02*
D03*
X62000Y125500D02*
D03*
Y107500D02*
D03*
X202014Y89500D02*
D03*
D38*
X247013Y79775D02*
D03*
X62000Y135500D02*
D03*
Y97500D02*
D03*
X202014Y79500D02*
D03*
X192500Y14500D02*
D03*
X182500D02*
D03*
X172500D02*
D03*
X162500D02*
D03*
X152500D02*
D03*
X142500D02*
D03*
X132500D02*
D03*
X122500D02*
D03*
X112500D02*
D03*
X102500Y183000D02*
D03*
X112500D02*
D03*
X122500D02*
D03*
X132500D02*
D03*
X142500D02*
D03*
X152500D02*
D03*
X162500D02*
D03*
X172500D02*
D03*
X182500D02*
D03*
D39*
X102500Y14500D02*
D03*
X192500Y183000D02*
D03*
D40*
X43000Y145000D02*
D03*
D41*
Y165000D02*
D03*
D42*
X6500Y190000D02*
D03*
X289000Y6500D02*
D03*
X16000D02*
D03*
X278500Y190000D02*
D03*
D43*
X16500Y190000D02*
D03*
X279000Y6500D02*
D03*
X6000D02*
D03*
X288500Y190000D02*
D03*
D44*
X177953Y49281D02*
D03*
X207500Y98653D02*
D03*
X196500Y104100D02*
D03*
X195009Y65012D02*
D03*
X176001Y76319D02*
D03*
X184500Y78500D02*
D03*
X178000Y83000D02*
D03*
X150550Y74354D02*
D03*
X114200Y129100D02*
D03*
X91600Y144300D02*
D03*
X34500Y99500D02*
D03*
X15500Y122000D02*
D03*
Y77500D02*
D03*
X34500D02*
D03*
Y39000D02*
D03*
X15500Y62000D02*
D03*
Y17000D02*
D03*
X34500Y16500D02*
D03*
X66000Y15500D02*
D03*
X44000Y34500D02*
D03*
X88500D02*
D03*
X81000Y162500D02*
D03*
X87000D02*
D03*
X85000Y133000D02*
D03*
X207500Y70422D02*
D03*
X166500Y84000D02*
D03*
X73000Y139000D02*
D03*
X228750Y172250D02*
D03*
X275500Y35500D02*
D03*
X195161Y71141D02*
D03*
X187519Y57651D02*
D03*
X150500Y57250D02*
D03*
X169750Y61000D02*
D03*
X169250Y54500D02*
D03*
X194882Y137008D02*
D03*
X184400Y84600D02*
D03*
X184600Y90900D02*
D03*
X228740Y139764D02*
D03*
X187008Y148819D02*
D03*
X177953Y137402D02*
D03*
X214173Y119291D02*
D03*
X205118Y131890D02*
D03*
X211417Y66142D02*
D03*
X229921Y99213D02*
D03*
X230885Y66074D02*
D03*
X191732Y118110D02*
D03*
X185827D02*
D03*
X114181Y122979D02*
D03*
X153666Y111936D02*
D03*
X235872Y93742D02*
D03*
X235890Y76002D02*
D03*
X202795Y35500D02*
D03*
X224996Y49072D02*
D03*
X214567Y148819D02*
D03*
X183465Y125197D02*
D03*
M02*
