G04*
G04 #@! TF.GenerationSoftware,Altium Limited,Altium Designer,21.7.2 (23)*
G04*
G04 Layer_Color=255*
%FSLAX25Y25*%
%MOIN*%
G70*
G04*
G04 #@! TF.SameCoordinates,CEDA9658-653E-4C37-85A5-3546ED317D05*
G04*
G04*
G04 #@! TF.FilePolarity,Positive*
G04*
G01*
G75*
%ADD16R,0.03937X0.04134*%
%ADD17C,0.00945*%
%ADD18O,0.02362X0.07677*%
%ADD19O,0.07677X0.02362*%
%ADD20R,0.02756X0.01968*%
%ADD21R,0.12520X0.07992*%
%ADD22R,0.07992X0.12520*%
%ADD23R,0.04134X0.03937*%
%ADD24R,0.10984X0.02913*%
%ADD25R,0.01575X0.01968*%
%ADD26R,0.04331X0.03937*%
%ADD27R,0.03937X0.04331*%
%ADD28R,0.01850X0.02362*%
%ADD29R,0.04724X0.04724*%
%ADD30R,0.04134X0.08661*%
%ADD31R,0.01575X0.02559*%
%ADD32O,0.01772X0.05512*%
%ADD33R,0.02362X0.05709*%
%ADD35R,0.12480X0.12480*%
%ADD36R,0.12480X0.12480*%
%ADD37R,0.06181X0.06181*%
%ADD38C,0.06181*%
%ADD39R,0.06181X0.06181*%
%ADD40C,0.08465*%
%ADD41R,0.08465X0.08465*%
%ADD42C,0.05512*%
%ADD43R,0.05512X0.05512*%
D16*
X220800Y88747D02*
D03*
Y94653D02*
D03*
Y80953D02*
D03*
Y75047D02*
D03*
X235890Y87644D02*
D03*
Y81739D02*
D03*
X222835Y134351D02*
D03*
X222835Y166738D02*
D03*
X148369Y111936D02*
D03*
Y106031D02*
D03*
D17*
X230349Y83855D02*
D03*
Y85528D02*
D03*
X228676Y83855D02*
D03*
Y85528D02*
D03*
D18*
X163386Y69587D02*
D03*
X166535D02*
D03*
X169685D02*
D03*
X172835D02*
D03*
X175984D02*
D03*
X179134D02*
D03*
X182283D02*
D03*
X185433D02*
D03*
Y102854D02*
D03*
X182283D02*
D03*
X179134D02*
D03*
X175984D02*
D03*
X172835D02*
D03*
X169685D02*
D03*
X166535D02*
D03*
X163386D02*
D03*
D19*
X191043Y75197D02*
D03*
Y78347D02*
D03*
Y81496D02*
D03*
Y84646D02*
D03*
Y87795D02*
D03*
Y90945D02*
D03*
Y94095D02*
D03*
Y97244D02*
D03*
X157776D02*
D03*
Y94095D02*
D03*
Y90945D02*
D03*
Y87795D02*
D03*
Y84646D02*
D03*
Y81496D02*
D03*
Y78347D02*
D03*
Y75197D02*
D03*
D20*
X226785Y93038D02*
D03*
X229934D02*
D03*
X226772Y76378D02*
D03*
X229921D02*
D03*
D21*
X24994Y122003D02*
D03*
Y77397D02*
D03*
Y61903D02*
D03*
Y17297D02*
D03*
D22*
X43697Y24994D02*
D03*
X88303D02*
D03*
D23*
X87028Y156870D02*
D03*
X81122D02*
D03*
X208465Y155905D02*
D03*
X202559D02*
D03*
X208465Y162598D02*
D03*
X202559D02*
D03*
X208465Y149213D02*
D03*
X202559D02*
D03*
X208465Y119291D02*
D03*
X202559D02*
D03*
X189961Y131102D02*
D03*
X195866D02*
D03*
X79350Y138823D02*
D03*
X85256D02*
D03*
X175787Y60532D02*
D03*
X181693D02*
D03*
X175787Y54331D02*
D03*
X181693D02*
D03*
X185827Y112205D02*
D03*
X191732D02*
D03*
X162598Y60630D02*
D03*
X156693D02*
D03*
X162598Y54331D02*
D03*
X156693D02*
D03*
X183465Y131102D02*
D03*
X177559D02*
D03*
D24*
X122697Y132835D02*
D03*
Y127835D02*
D03*
Y122835D02*
D03*
Y117835D02*
D03*
Y112835D02*
D03*
X138720D02*
D03*
Y117835D02*
D03*
Y122835D02*
D03*
Y127835D02*
D03*
Y132835D02*
D03*
D25*
X189567Y136122D02*
D03*
X184449D02*
D03*
Y144193D02*
D03*
X187008D02*
D03*
X189567D02*
D03*
D26*
X213500Y80756D02*
D03*
Y75244D02*
D03*
Y88944D02*
D03*
Y94456D02*
D03*
D27*
X224016Y66142D02*
D03*
X218504D02*
D03*
X209488Y35500D02*
D03*
X215000D02*
D03*
X236494Y45750D02*
D03*
X242006D02*
D03*
X236244Y25750D02*
D03*
X241756D02*
D03*
D28*
X222240Y35686D02*
D03*
X227358D02*
D03*
X224799Y43166D02*
D03*
D29*
X264634Y45750D02*
D03*
X256366D02*
D03*
X264634Y25750D02*
D03*
X256366D02*
D03*
D30*
X228642Y128347D02*
D03*
X217028D02*
D03*
X217027Y160734D02*
D03*
X228642D02*
D03*
D31*
X81516Y144319D02*
D03*
X84075D02*
D03*
X86634D02*
D03*
Y151799D02*
D03*
X81516D02*
D03*
D32*
X202559Y125984D02*
D03*
X205118D02*
D03*
X207677D02*
D03*
X210236D02*
D03*
X202559Y142126D02*
D03*
X205118D02*
D03*
X207677D02*
D03*
X210236D02*
D03*
D33*
X172441Y46850D02*
D03*
X166142D02*
D03*
D35*
X24994Y99700D02*
D03*
Y39600D02*
D03*
D36*
X66000Y24994D02*
D03*
D37*
X247013Y89775D02*
D03*
X62000Y125500D02*
D03*
Y107500D02*
D03*
X202014Y89500D02*
D03*
D38*
X247013Y79775D02*
D03*
X62000Y135500D02*
D03*
Y97500D02*
D03*
X202014Y79500D02*
D03*
X192500Y14500D02*
D03*
X182500D02*
D03*
X172500D02*
D03*
X162500D02*
D03*
X152500D02*
D03*
X142500D02*
D03*
X132500D02*
D03*
X122500D02*
D03*
X112500D02*
D03*
X102500Y183000D02*
D03*
X112500D02*
D03*
X122500D02*
D03*
X132500D02*
D03*
X142500D02*
D03*
X152500D02*
D03*
X162500D02*
D03*
X172500D02*
D03*
X182500D02*
D03*
D39*
X102500Y14500D02*
D03*
X192500Y183000D02*
D03*
D40*
X43000Y145000D02*
D03*
D41*
Y165000D02*
D03*
D42*
X6500Y190000D02*
D03*
X289000Y6500D02*
D03*
X16000D02*
D03*
X278500Y190000D02*
D03*
D43*
X16500Y190000D02*
D03*
X279000Y6500D02*
D03*
X6000D02*
D03*
X288500Y190000D02*
D03*
M02*
